<mxfile host="app.diagrams.net" modified="2022-01-09T06:58:06.892Z" agent="5.0 (X11; Linux x86_64) AppleWebKit/537.36 (KHTML, like Gecko) Chrome/96.0.4664.110 Safari/537.36" etag="RE_6UOzvrkkLmdRHHa6d" version="16.0.0" type="github" pages="5">
  <diagram id="W83oTSsJoPOMaXSjO9w1" name="TP_4">
    <mxGraphModel dx="1450" dy="906" grid="1" gridSize="10" guides="1" tooltips="1" connect="1" arrows="1" fold="1" page="1" pageScale="1" pageWidth="827" pageHeight="1169" math="0" shadow="0">
      <root>
        <mxCell id="0" />
        <mxCell id="1" parent="0" />
        <mxCell id="wjO6eCzXpp8LbPTjelTX-1" value="" style="endArrow=none;html=1;rounded=0;fontStyle=0;strokeWidth=4;" parent="1" edge="1">
          <mxGeometry width="50" height="50" relative="1" as="geometry">
            <mxPoint x="100" y="350" as="sourcePoint" />
            <mxPoint x="520" y="350" as="targetPoint" />
          </mxGeometry>
        </mxCell>
        <mxCell id="wjO6eCzXpp8LbPTjelTX-2" value="&lt;font style=&quot;font-size: 18px&quot;&gt;&lt;b&gt;Coeff&lt;/b&gt;&lt;/font&gt;" style="text;html=1;strokeColor=none;fillColor=none;align=center;verticalAlign=middle;whiteSpace=wrap;rounded=0;" parent="1" vertex="1">
          <mxGeometry x="20" y="330" width="60" height="30" as="geometry" />
        </mxCell>
        <mxCell id="wjO6eCzXpp8LbPTjelTX-3" value="" style="endArrow=none;html=1;rounded=0;fontStyle=0;strokeWidth=4;" parent="1" edge="1">
          <mxGeometry width="50" height="50" relative="1" as="geometry">
            <mxPoint x="100" y="400" as="sourcePoint" />
            <mxPoint x="310" y="400" as="targetPoint" />
          </mxGeometry>
        </mxCell>
        <mxCell id="wjO6eCzXpp8LbPTjelTX-4" value="&lt;font style=&quot;font-size: 18px&quot;&gt;&lt;b&gt;TC&lt;/b&gt;&lt;/font&gt;" style="text;html=1;strokeColor=none;fillColor=none;align=center;verticalAlign=middle;whiteSpace=wrap;rounded=0;" parent="1" vertex="1">
          <mxGeometry x="20" y="380" width="60" height="30" as="geometry" />
        </mxCell>
        <mxCell id="wjO6eCzXpp8LbPTjelTX-5" value="&lt;font style=&quot;font-size: 15px&quot;&gt;cmax = length(TC)&amp;nbsp;&lt;/font&gt;" style="text;html=1;strokeColor=none;fillColor=none;align=center;verticalAlign=middle;whiteSpace=wrap;rounded=0;fontSize=18;" parent="1" vertex="1">
          <mxGeometry x="130" y="300" width="140" height="30" as="geometry" />
        </mxCell>
        <mxCell id="wjO6eCzXpp8LbPTjelTX-6" value="&lt;div style=&quot;text-align: center&quot;&gt;&lt;span&gt;&lt;font face=&quot;helvetica&quot;&gt;&amp;nbsp; length(Coeff) = 2*TC+1&lt;/font&gt;&lt;/span&gt;&lt;/div&gt;" style="text;whiteSpace=wrap;html=1;fontSize=15;" parent="1" vertex="1">
          <mxGeometry x="300" y="300" width="180" height="30" as="geometry" />
        </mxCell>
        <mxCell id="wjO6eCzXpp8LbPTjelTX-7" value="" style="endArrow=classic;html=1;rounded=0;fontSize=15;strokeWidth=2;exitX=1;exitY=0.5;exitDx=0;exitDy=0;entryX=0;entryY=0.5;entryDx=0;entryDy=0;" parent="1" source="wjO6eCzXpp8LbPTjelTX-5" target="wjO6eCzXpp8LbPTjelTX-6" edge="1">
          <mxGeometry width="50" height="50" relative="1" as="geometry">
            <mxPoint x="270" y="315" as="sourcePoint" />
            <mxPoint x="300" y="314.5" as="targetPoint" />
          </mxGeometry>
        </mxCell>
        <mxCell id="wjO6eCzXpp8LbPTjelTX-8" value="" style="endArrow=none;html=1;rounded=0;fontStyle=0;strokeWidth=4;" parent="1" edge="1">
          <mxGeometry width="50" height="50" relative="1" as="geometry">
            <mxPoint x="100" y="450" as="sourcePoint" />
            <mxPoint x="240" y="450" as="targetPoint" />
          </mxGeometry>
        </mxCell>
        <mxCell id="wjO6eCzXpp8LbPTjelTX-9" value="&lt;font style=&quot;font-size: 18px&quot;&gt;&lt;b&gt;Coeff&lt;/b&gt;&lt;/font&gt;" style="text;html=1;strokeColor=none;fillColor=none;align=center;verticalAlign=middle;whiteSpace=wrap;rounded=0;" parent="1" vertex="1">
          <mxGeometry x="20" y="430" width="60" height="30" as="geometry" />
        </mxCell>
        <mxCell id="wjO6eCzXpp8LbPTjelTX-10" value="&lt;font style=&quot;font-size: 15px&quot;&gt;cmax = 20&lt;/font&gt;" style="text;html=1;strokeColor=none;fillColor=none;align=center;verticalAlign=middle;whiteSpace=wrap;rounded=0;fontSize=18;" parent="1" vertex="1">
          <mxGeometry x="190" y="460" width="80" height="30" as="geometry" />
        </mxCell>
        <mxCell id="wjO6eCzXpp8LbPTjelTX-11" value="&lt;div style=&quot;text-align: center&quot;&gt;&lt;span&gt;&lt;font face=&quot;helvetica&quot;&gt;&amp;nbsp; length(Coeff) = 41&lt;/font&gt;&lt;/span&gt;&lt;/div&gt;" style="text;whiteSpace=wrap;html=1;fontSize=15;" parent="1" vertex="1">
          <mxGeometry x="300" y="460" width="140" height="30" as="geometry" />
        </mxCell>
        <mxCell id="wjO6eCzXpp8LbPTjelTX-12" value="" style="endArrow=classic;html=1;rounded=0;fontSize=15;strokeWidth=2;exitX=1;exitY=0.5;exitDx=0;exitDy=0;entryX=0;entryY=0.5;entryDx=0;entryDy=0;" parent="1" source="wjO6eCzXpp8LbPTjelTX-10" target="wjO6eCzXpp8LbPTjelTX-11" edge="1">
          <mxGeometry width="50" height="50" relative="1" as="geometry">
            <mxPoint x="330" y="475" as="sourcePoint" />
            <mxPoint x="360" y="474.5" as="targetPoint" />
          </mxGeometry>
        </mxCell>
        <mxCell id="wjO6eCzXpp8LbPTjelTX-13" value="" style="endArrow=none;html=1;rounded=0;fontSize=15;strokeWidth=4;strokeColor=#FF1A12;" parent="1" edge="1">
          <mxGeometry width="50" height="50" relative="1" as="geometry">
            <mxPoint x="170" y="450" as="sourcePoint" />
            <mxPoint x="170" y="440" as="targetPoint" />
          </mxGeometry>
        </mxCell>
        <mxCell id="wjO6eCzXpp8LbPTjelTX-14" value="" style="endArrow=none;html=1;rounded=0;fontSize=15;strokeWidth=4;strokeColor=#FF1A12;" parent="1" edge="1">
          <mxGeometry width="50" height="50" relative="1" as="geometry">
            <mxPoint x="240" y="390" as="sourcePoint" />
            <mxPoint x="240" y="400" as="targetPoint" />
          </mxGeometry>
        </mxCell>
        <mxCell id="wjO6eCzXpp8LbPTjelTX-15" value="" style="endArrow=none;html=1;rounded=0;fontSize=15;strokeWidth=4;strokeColor=#FF1A12;" parent="1" edge="1">
          <mxGeometry width="50" height="50" relative="1" as="geometry">
            <mxPoint x="170" y="400" as="sourcePoint" />
            <mxPoint x="170" y="390" as="targetPoint" />
          </mxGeometry>
        </mxCell>
        <mxCell id="wjO6eCzXpp8LbPTjelTX-16" value="" style="endArrow=classic;html=1;rounded=0;fontSize=15;strokeColor=#7AB8FF;strokeWidth=2;dashed=1;dashPattern=1 1;" parent="1" edge="1">
          <mxGeometry width="50" height="50" relative="1" as="geometry">
            <mxPoint x="280" y="400" as="sourcePoint" />
            <mxPoint x="140" y="450" as="targetPoint" />
          </mxGeometry>
        </mxCell>
        <mxCell id="wjO6eCzXpp8LbPTjelTX-17" value="" style="endArrow=classic;html=1;rounded=0;fontSize=15;strokeColor=#7AB8FF;strokeWidth=2;dashed=1;dashPattern=1 1;" parent="1" edge="1">
          <mxGeometry width="50" height="50" relative="1" as="geometry">
            <mxPoint x="130" y="400" as="sourcePoint" />
            <mxPoint x="210" y="450" as="targetPoint" />
          </mxGeometry>
        </mxCell>
      </root>
    </mxGraphModel>
  </diagram>
  <diagram id="BPWpJ-bR7NpPK26G6hpB" name="Unit UI">
    <mxGraphModel dx="568" dy="870" grid="1" gridSize="10" guides="1" tooltips="1" connect="1" arrows="1" fold="1" page="1" pageScale="1" pageWidth="827" pageHeight="1169" math="0" shadow="0">
      <root>
        <mxCell id="W2uqBXBcfLVsuPNkIyxK-0" />
        <mxCell id="W2uqBXBcfLVsuPNkIyxK-1" parent="W2uqBXBcfLVsuPNkIyxK-0" />
        <mxCell id="W2uqBXBcfLVsuPNkIyxK-2" value="" style="rounded=1;whiteSpace=wrap;html=1;dashed=1;dashPattern=1 2;" parent="W2uqBXBcfLVsuPNkIyxK-1" vertex="1">
          <mxGeometry x="170" y="40" width="190" height="90" as="geometry" />
        </mxCell>
        <mxCell id="W2uqBXBcfLVsuPNkIyxK-3" value="&lt;font color=&quot;#808080&quot;&gt;&lt;span style=&quot;font-size: 13px&quot;&gt;&lt;b&gt;订单量&lt;/b&gt;&lt;/span&gt;&lt;/font&gt;" style="text;html=1;strokeColor=none;fillColor=none;align=center;verticalAlign=middle;whiteSpace=wrap;rounded=0;dashed=1;dashPattern=1 2;" parent="W2uqBXBcfLVsuPNkIyxK-1" vertex="1">
          <mxGeometry x="170" y="50" width="80" height="20" as="geometry" />
        </mxCell>
        <mxCell id="W2uqBXBcfLVsuPNkIyxK-4" value="&lt;font style=&quot;font-size: 11px&quot; color=&quot;#b3b3b3&quot;&gt;&amp;nbsp;2021-8-26 ~ 2021-8-26 | 今日&lt;/font&gt;" style="text;html=1;strokeColor=none;fillColor=none;align=center;verticalAlign=middle;whiteSpace=wrap;rounded=0;dashed=1;dashPattern=1 2;" parent="W2uqBXBcfLVsuPNkIyxK-1" vertex="1">
          <mxGeometry x="170" y="70" width="170" height="20" as="geometry" />
        </mxCell>
        <mxCell id="W2uqBXBcfLVsuPNkIyxK-5" value="&lt;span style=&quot;font-size: 26px&quot;&gt;&lt;b&gt;94&lt;/b&gt;&lt;/span&gt;" style="text;html=1;strokeColor=none;fillColor=none;align=center;verticalAlign=middle;whiteSpace=wrap;rounded=0;dashed=1;dashPattern=1 2;" parent="W2uqBXBcfLVsuPNkIyxK-1" vertex="1">
          <mxGeometry x="190" y="100" width="30" height="20" as="geometry" />
        </mxCell>
        <mxCell id="W2uqBXBcfLVsuPNkIyxK-6" value="件" style="text;html=1;strokeColor=none;fillColor=none;align=center;verticalAlign=middle;whiteSpace=wrap;rounded=0;dashed=1;dashPattern=1 2;" parent="W2uqBXBcfLVsuPNkIyxK-1" vertex="1">
          <mxGeometry x="220" y="110" width="30" height="10" as="geometry" />
        </mxCell>
        <mxCell id="W2uqBXBcfLVsuPNkIyxK-7" value="周环比&amp;nbsp;" style="text;html=1;strokeColor=none;fillColor=none;align=center;verticalAlign=middle;whiteSpace=wrap;rounded=0;dashed=1;dashPattern=1 2;" parent="W2uqBXBcfLVsuPNkIyxK-1" vertex="1">
          <mxGeometry x="250" y="110" width="60" height="10" as="geometry" />
        </mxCell>
        <mxCell id="W2uqBXBcfLVsuPNkIyxK-8" value="" style="triangle;whiteSpace=wrap;html=1;rounded=1;dashed=1;dashPattern=1 2;rotation=-90;arcSize=35;strokeColor=#FF3333;fillColor=#00CC66;" parent="W2uqBXBcfLVsuPNkIyxK-1" vertex="1">
          <mxGeometry x="300" y="110" width="10" height="10" as="geometry" />
        </mxCell>
        <mxCell id="W2uqBXBcfLVsuPNkIyxK-9" value="7.63%" style="text;html=1;strokeColor=none;fillColor=none;align=center;verticalAlign=middle;whiteSpace=wrap;rounded=0;dashed=1;dashPattern=1 2;fontColor=#00CC00;" parent="W2uqBXBcfLVsuPNkIyxK-1" vertex="1">
          <mxGeometry x="310" y="105" width="40" height="20" as="geometry" />
        </mxCell>
        <mxCell id="g7tIqamHdScXD6ZmcQM3-0" value="" style="rounded=1;whiteSpace=wrap;html=1;dashed=1;dashPattern=1 2;" vertex="1" parent="W2uqBXBcfLVsuPNkIyxK-1">
          <mxGeometry x="180" y="160" width="190" height="90" as="geometry" />
        </mxCell>
        <mxCell id="g7tIqamHdScXD6ZmcQM3-1" value="&lt;font color=&quot;#808080&quot;&gt;&lt;span style=&quot;font-size: 13px&quot;&gt;&lt;b&gt;订单转化率&lt;/b&gt;&lt;/span&gt;&lt;/font&gt;" style="text;html=1;strokeColor=none;fillColor=none;align=center;verticalAlign=middle;whiteSpace=wrap;rounded=0;dashed=1;dashPattern=1 2;" vertex="1" parent="W2uqBXBcfLVsuPNkIyxK-1">
          <mxGeometry x="180" y="170" width="80" height="20" as="geometry" />
        </mxCell>
        <mxCell id="g7tIqamHdScXD6ZmcQM3-2" value="&lt;font style=&quot;font-size: 11px&quot; color=&quot;#b3b3b3&quot;&gt;&amp;nbsp;2021-8-26 ~ 2021-8-26 | 今日&lt;/font&gt;" style="text;html=1;strokeColor=none;fillColor=none;align=center;verticalAlign=middle;whiteSpace=wrap;rounded=0;dashed=1;dashPattern=1 2;" vertex="1" parent="W2uqBXBcfLVsuPNkIyxK-1">
          <mxGeometry x="180" y="190" width="170" height="20" as="geometry" />
        </mxCell>
        <mxCell id="g7tIqamHdScXD6ZmcQM3-3" value="&lt;font size=&quot;1&quot;&gt;&lt;b style=&quot;font-size: 26px&quot;&gt;5.23&lt;/b&gt;&lt;/font&gt;" style="text;html=1;strokeColor=none;fillColor=none;align=center;verticalAlign=middle;whiteSpace=wrap;rounded=0;dashed=1;dashPattern=1 2;" vertex="1" parent="W2uqBXBcfLVsuPNkIyxK-1">
          <mxGeometry x="210" y="220" width="30" height="20" as="geometry" />
        </mxCell>
        <mxCell id="g7tIqamHdScXD6ZmcQM3-4" value="%" style="text;html=1;strokeColor=none;fillColor=none;align=center;verticalAlign=middle;whiteSpace=wrap;rounded=0;dashed=1;dashPattern=1 2;" vertex="1" parent="W2uqBXBcfLVsuPNkIyxK-1">
          <mxGeometry x="240" y="230" width="30" height="10" as="geometry" />
        </mxCell>
        <mxCell id="g7tIqamHdScXD6ZmcQM3-5" value="周环比&amp;nbsp;" style="text;html=1;strokeColor=none;fillColor=none;align=center;verticalAlign=middle;whiteSpace=wrap;rounded=0;dashed=1;dashPattern=1 2;" vertex="1" parent="W2uqBXBcfLVsuPNkIyxK-1">
          <mxGeometry x="260" y="230" width="60" height="10" as="geometry" />
        </mxCell>
        <mxCell id="g7tIqamHdScXD6ZmcQM3-6" value="" style="triangle;whiteSpace=wrap;html=1;rounded=1;dashed=1;dashPattern=1 2;rotation=90;arcSize=35;strokeColor=#FF3333;fillColor=#FF0000;" vertex="1" parent="W2uqBXBcfLVsuPNkIyxK-1">
          <mxGeometry x="310" y="230" width="10" height="10" as="geometry" />
        </mxCell>
        <mxCell id="g7tIqamHdScXD6ZmcQM3-7" value="3.27%" style="text;html=1;strokeColor=none;fillColor=none;align=center;verticalAlign=middle;whiteSpace=wrap;rounded=0;dashed=1;dashPattern=1 2;fontColor=#FF0000;" vertex="1" parent="W2uqBXBcfLVsuPNkIyxK-1">
          <mxGeometry x="320" y="225" width="40" height="20" as="geometry" />
        </mxCell>
      </root>
    </mxGraphModel>
  </diagram>
  <diagram id="3u9jprLcC_4OMorkhTvJ" name="YIN">
    <mxGraphModel dx="1450" dy="906" grid="1" gridSize="10" guides="1" tooltips="1" connect="1" arrows="1" fold="1" page="1" pageScale="1" pageWidth="827" pageHeight="1169" math="0" shadow="0">
      <root>
        <mxCell id="aHZAzOHaMfrtgJ4tfOKh-0" />
        <mxCell id="aHZAzOHaMfrtgJ4tfOKh-1" parent="aHZAzOHaMfrtgJ4tfOKh-0" />
        <mxCell id="aHZAzOHaMfrtgJ4tfOKh-2" value="" style="endArrow=none;html=1;rounded=0;fontStyle=1;strokeWidth=3;" parent="aHZAzOHaMfrtgJ4tfOKh-1" edge="1">
          <mxGeometry width="50" height="50" relative="1" as="geometry">
            <mxPoint x="110" y="420" as="sourcePoint" />
            <mxPoint x="620" y="420" as="targetPoint" />
          </mxGeometry>
        </mxCell>
        <mxCell id="aHZAzOHaMfrtgJ4tfOKh-3" value="&lt;font style=&quot;font-size: 18px&quot;&gt;&lt;b&gt;Audio&lt;/b&gt;&lt;/font&gt;" style="text;html=1;strokeColor=none;fillColor=none;align=center;verticalAlign=middle;whiteSpace=wrap;rounded=0;" parent="aHZAzOHaMfrtgJ4tfOKh-1" vertex="1">
          <mxGeometry x="340" y="290" width="60" height="30" as="geometry" />
        </mxCell>
        <mxCell id="aHZAzOHaMfrtgJ4tfOKh-5" value="" style="endArrow=none;html=1;rounded=0;fontSize=18;strokeWidth=3;" parent="aHZAzOHaMfrtgJ4tfOKh-1" edge="1">
          <mxGeometry width="50" height="50" relative="1" as="geometry">
            <mxPoint x="220" y="420" as="sourcePoint" />
            <mxPoint x="220" y="410" as="targetPoint" />
          </mxGeometry>
        </mxCell>
        <mxCell id="aHZAzOHaMfrtgJ4tfOKh-6" value="" style="endArrow=none;html=1;rounded=0;fontSize=18;strokeWidth=3;" parent="aHZAzOHaMfrtgJ4tfOKh-1" edge="1">
          <mxGeometry width="50" height="50" relative="1" as="geometry">
            <mxPoint x="190" y="420" as="sourcePoint" />
            <mxPoint x="190" y="410" as="targetPoint" />
          </mxGeometry>
        </mxCell>
        <mxCell id="aHZAzOHaMfrtgJ4tfOKh-7" value="" style="endArrow=none;html=1;rounded=0;fontSize=18;strokeWidth=3;" parent="aHZAzOHaMfrtgJ4tfOKh-1" edge="1">
          <mxGeometry width="50" height="50" relative="1" as="geometry">
            <mxPoint x="250" y="420" as="sourcePoint" />
            <mxPoint x="250" y="410" as="targetPoint" />
          </mxGeometry>
        </mxCell>
        <mxCell id="aHZAzOHaMfrtgJ4tfOKh-8" value="" style="endArrow=none;html=1;rounded=0;fontSize=18;strokeWidth=3;" parent="aHZAzOHaMfrtgJ4tfOKh-1" edge="1">
          <mxGeometry width="50" height="50" relative="1" as="geometry">
            <mxPoint x="280" y="420" as="sourcePoint" />
            <mxPoint x="280" y="410" as="targetPoint" />
          </mxGeometry>
        </mxCell>
        <mxCell id="aHZAzOHaMfrtgJ4tfOKh-9" value="" style="endArrow=none;html=1;rounded=0;fontSize=18;strokeWidth=3;" parent="aHZAzOHaMfrtgJ4tfOKh-1" edge="1">
          <mxGeometry width="50" height="50" relative="1" as="geometry">
            <mxPoint x="310" y="420" as="sourcePoint" />
            <mxPoint x="310" y="410" as="targetPoint" />
          </mxGeometry>
        </mxCell>
        <mxCell id="aHZAzOHaMfrtgJ4tfOKh-10" value="" style="endArrow=none;html=1;rounded=0;fontSize=18;strokeWidth=3;" parent="aHZAzOHaMfrtgJ4tfOKh-1" edge="1">
          <mxGeometry width="50" height="50" relative="1" as="geometry">
            <mxPoint x="340" y="420" as="sourcePoint" />
            <mxPoint x="340" y="410" as="targetPoint" />
          </mxGeometry>
        </mxCell>
        <mxCell id="aHZAzOHaMfrtgJ4tfOKh-11" value="" style="endArrow=none;html=1;rounded=0;fontSize=18;strokeWidth=3;" parent="aHZAzOHaMfrtgJ4tfOKh-1" edge="1">
          <mxGeometry width="50" height="50" relative="1" as="geometry">
            <mxPoint x="369.5" y="420" as="sourcePoint" />
            <mxPoint x="369.5" y="410" as="targetPoint" />
          </mxGeometry>
        </mxCell>
        <mxCell id="aHZAzOHaMfrtgJ4tfOKh-12" value="" style="endArrow=none;dashed=1;html=1;dashPattern=1 3;strokeWidth=2;rounded=0;fontSize=18;" parent="aHZAzOHaMfrtgJ4tfOKh-1" edge="1">
          <mxGeometry width="50" height="50" relative="1" as="geometry">
            <mxPoint x="390" y="410" as="sourcePoint" />
            <mxPoint x="510" y="410" as="targetPoint" />
          </mxGeometry>
        </mxCell>
        <mxCell id="aHZAzOHaMfrtgJ4tfOKh-13" value="" style="endArrow=none;html=1;rounded=0;fontSize=18;strokeWidth=3;" parent="aHZAzOHaMfrtgJ4tfOKh-1" edge="1">
          <mxGeometry width="50" height="50" relative="1" as="geometry">
            <mxPoint x="530" y="420" as="sourcePoint" />
            <mxPoint x="530" y="410" as="targetPoint" />
          </mxGeometry>
        </mxCell>
        <mxCell id="aHZAzOHaMfrtgJ4tfOKh-14" value="" style="endArrow=none;html=1;rounded=0;fontSize=18;strokeWidth=3;" parent="aHZAzOHaMfrtgJ4tfOKh-1" edge="1">
          <mxGeometry width="50" height="50" relative="1" as="geometry">
            <mxPoint x="560" y="420" as="sourcePoint" />
            <mxPoint x="560" y="410" as="targetPoint" />
          </mxGeometry>
        </mxCell>
        <mxCell id="aHZAzOHaMfrtgJ4tfOKh-15" value="" style="endArrow=none;html=1;rounded=0;fontSize=18;strokeWidth=3;" parent="aHZAzOHaMfrtgJ4tfOKh-1" edge="1">
          <mxGeometry width="50" height="50" relative="1" as="geometry">
            <mxPoint x="590" y="420" as="sourcePoint" />
            <mxPoint x="590" y="410" as="targetPoint" />
          </mxGeometry>
        </mxCell>
        <mxCell id="aHZAzOHaMfrtgJ4tfOKh-16" value="" style="endArrow=none;html=1;rounded=0;fontSize=18;strokeWidth=3;" parent="aHZAzOHaMfrtgJ4tfOKh-1" edge="1">
          <mxGeometry width="50" height="50" relative="1" as="geometry">
            <mxPoint x="620" y="420" as="sourcePoint" />
            <mxPoint x="620" y="410" as="targetPoint" />
          </mxGeometry>
        </mxCell>
        <mxCell id="aHZAzOHaMfrtgJ4tfOKh-17" value="" style="endArrow=none;dashed=1;html=1;dashPattern=1 3;strokeWidth=2;rounded=0;fontSize=18;" parent="aHZAzOHaMfrtgJ4tfOKh-1" edge="1">
          <mxGeometry width="50" height="50" relative="1" as="geometry">
            <mxPoint x="120" y="410" as="sourcePoint" />
            <mxPoint x="180" y="410" as="targetPoint" />
          </mxGeometry>
        </mxCell>
        <mxCell id="aHZAzOHaMfrtgJ4tfOKh-18" value="" style="endArrow=none;html=1;rounded=0;fontSize=18;strokeWidth=3;strokeColor=#67AB9F;" parent="aHZAzOHaMfrtgJ4tfOKh-1" edge="1">
          <mxGeometry width="50" height="50" relative="1" as="geometry">
            <mxPoint x="190" y="410" as="sourcePoint" />
            <mxPoint x="190" y="380" as="targetPoint" />
          </mxGeometry>
        </mxCell>
        <mxCell id="aHZAzOHaMfrtgJ4tfOKh-21" value="" style="endArrow=none;html=1;rounded=0;fontSize=18;strokeWidth=3;strokeColor=#67AB9F;" parent="aHZAzOHaMfrtgJ4tfOKh-1" edge="1">
          <mxGeometry width="50" height="50" relative="1" as="geometry">
            <mxPoint x="280" y="410" as="sourcePoint" />
            <mxPoint x="280" y="380" as="targetPoint" />
          </mxGeometry>
        </mxCell>
        <mxCell id="aHZAzOHaMfrtgJ4tfOKh-22" value="" style="endArrow=none;html=1;rounded=0;fontSize=18;strokeWidth=3;strokeColor=#67AB9F;" parent="aHZAzOHaMfrtgJ4tfOKh-1" edge="1">
          <mxGeometry width="50" height="50" relative="1" as="geometry">
            <mxPoint x="530" y="410" as="sourcePoint" />
            <mxPoint x="530" y="380" as="targetPoint" />
          </mxGeometry>
        </mxCell>
        <mxCell id="aHZAzOHaMfrtgJ4tfOKh-23" value="" style="endArrow=none;html=1;rounded=0;fontSize=18;strokeWidth=3;strokeColor=#67AB9F;" parent="aHZAzOHaMfrtgJ4tfOKh-1" edge="1">
          <mxGeometry width="50" height="50" relative="1" as="geometry">
            <mxPoint x="220" y="450" as="sourcePoint" />
            <mxPoint x="220" y="420" as="targetPoint" />
          </mxGeometry>
        </mxCell>
        <mxCell id="aHZAzOHaMfrtgJ4tfOKh-24" value="" style="endArrow=none;html=1;rounded=0;fontSize=18;strokeWidth=3;strokeColor=#67AB9F;" parent="aHZAzOHaMfrtgJ4tfOKh-1" edge="1">
          <mxGeometry width="50" height="50" relative="1" as="geometry">
            <mxPoint x="310" y="450" as="sourcePoint" />
            <mxPoint x="310" y="420" as="targetPoint" />
          </mxGeometry>
        </mxCell>
        <mxCell id="aHZAzOHaMfrtgJ4tfOKh-25" value="" style="endArrow=none;html=1;rounded=0;fontSize=18;strokeWidth=3;strokeColor=#67AB9F;" parent="aHZAzOHaMfrtgJ4tfOKh-1" edge="1">
          <mxGeometry width="50" height="50" relative="1" as="geometry">
            <mxPoint x="620" y="410" as="sourcePoint" />
            <mxPoint x="620" y="380" as="targetPoint" />
          </mxGeometry>
        </mxCell>
        <mxCell id="aHZAzOHaMfrtgJ4tfOKh-26" value="" style="shape=curlyBracket;whiteSpace=wrap;html=1;rounded=1;flipH=1;fontSize=18;rotation=-90;strokeWidth=2;" parent="aHZAzOHaMfrtgJ4tfOKh-1" vertex="1">
          <mxGeometry x="226.25" y="331.25" width="20" height="87.5" as="geometry" />
        </mxCell>
        <mxCell id="aHZAzOHaMfrtgJ4tfOKh-29" value="win_i" style="text;html=1;strokeColor=none;fillColor=none;align=center;verticalAlign=middle;whiteSpace=wrap;rounded=0;fontSize=18;" parent="aHZAzOHaMfrtgJ4tfOKh-1" vertex="1">
          <mxGeometry x="186.25" y="340" width="100" height="30" as="geometry" />
        </mxCell>
        <mxCell id="aHZAzOHaMfrtgJ4tfOKh-30" value="" style="shape=curlyBracket;whiteSpace=wrap;html=1;rounded=1;flipH=1;fontSize=18;rotation=90;strokeWidth=2;" parent="aHZAzOHaMfrtgJ4tfOKh-1" vertex="1">
          <mxGeometry x="250.63" y="410.63" width="20" height="86.25" as="geometry" />
        </mxCell>
        <mxCell id="aHZAzOHaMfrtgJ4tfOKh-31" value="win_(i+1)" style="text;html=1;strokeColor=none;fillColor=none;align=center;verticalAlign=middle;whiteSpace=wrap;rounded=0;fontSize=18;" parent="aHZAzOHaMfrtgJ4tfOKh-1" vertex="1">
          <mxGeometry x="210.63" y="460" width="100" height="30" as="geometry" />
        </mxCell>
        <mxCell id="aHZAzOHaMfrtgJ4tfOKh-33" value="" style="shape=curlyBracket;whiteSpace=wrap;html=1;rounded=1;flipH=1;fontSize=18;rotation=-90;strokeWidth=2;" parent="aHZAzOHaMfrtgJ4tfOKh-1" vertex="1">
          <mxGeometry x="341.57" y="389.07" width="20" height="29.38" as="geometry" />
        </mxCell>
        <mxCell id="aHZAzOHaMfrtgJ4tfOKh-34" value="&lt;font style=&quot;font-size: 14px&quot;&gt;Hop Step&lt;/font&gt;" style="text;html=1;strokeColor=none;fillColor=none;align=center;verticalAlign=middle;whiteSpace=wrap;rounded=0;fontSize=18;" parent="aHZAzOHaMfrtgJ4tfOKh-1" vertex="1">
          <mxGeometry x="311.57" y="370" width="80" height="20" as="geometry" />
        </mxCell>
      </root>
    </mxGraphModel>
  </diagram>
  <diagram id="EwnKGqtm1O8DncG416Ai" name="TP_model">
    <mxGraphModel dx="1450" dy="906" grid="1" gridSize="10" guides="1" tooltips="1" connect="1" arrows="1" fold="1" page="1" pageScale="1" pageWidth="827" pageHeight="1169" math="0" shadow="0">
      <root>
        <mxCell id="0pw7UGAyTuQbIFyHGtrg-0" />
        <mxCell id="0pw7UGAyTuQbIFyHGtrg-1" parent="0pw7UGAyTuQbIFyHGtrg-0" />
        <mxCell id="0pw7UGAyTuQbIFyHGtrg-2" value="&lt;b style=&quot;font-size: 14px&quot;&gt;Training &lt;br&gt;Data&lt;/b&gt;" style="rounded=1;whiteSpace=wrap;html=1;" parent="0pw7UGAyTuQbIFyHGtrg-1" vertex="1">
          <mxGeometry x="210" y="410" width="80" height="50" as="geometry" />
        </mxCell>
        <mxCell id="0pw7UGAyTuQbIFyHGtrg-3" value="" style="shape=flexArrow;endArrow=classic;html=1;rounded=0;" parent="0pw7UGAyTuQbIFyHGtrg-1" edge="1">
          <mxGeometry width="50" height="50" relative="1" as="geometry">
            <mxPoint x="310" y="434.5" as="sourcePoint" />
            <mxPoint x="350" y="434.5" as="targetPoint" />
          </mxGeometry>
        </mxCell>
        <mxCell id="0pw7UGAyTuQbIFyHGtrg-4" value="" style="rounded=1;whiteSpace=wrap;html=1;" parent="0pw7UGAyTuQbIFyHGtrg-1" vertex="1">
          <mxGeometry x="360" y="340" width="260" height="180" as="geometry" />
        </mxCell>
        <mxCell id="0pw7UGAyTuQbIFyHGtrg-5" value="&lt;b&gt;&lt;font color=&quot;#330066&quot;&gt;2D-FFT&lt;/font&gt;&lt;/b&gt;" style="text;html=1;strokeColor=none;fillColor=none;align=center;verticalAlign=middle;whiteSpace=wrap;rounded=0;" parent="0pw7UGAyTuQbIFyHGtrg-1" vertex="1">
          <mxGeometry x="300" y="390" width="60" height="30" as="geometry" />
        </mxCell>
        <mxCell id="0pw7UGAyTuQbIFyHGtrg-6" value="&lt;b&gt;&lt;font style=&quot;font-size: 13px&quot;&gt;Pre-processing&lt;/font&gt;&lt;/b&gt;" style="text;html=1;strokeColor=none;fillColor=none;align=center;verticalAlign=middle;whiteSpace=wrap;rounded=0;fontColor=#000000;" parent="0pw7UGAyTuQbIFyHGtrg-1" vertex="1">
          <mxGeometry x="438.75" y="340" width="102.5" height="30" as="geometry" />
        </mxCell>
        <mxCell id="0pw7UGAyTuQbIFyHGtrg-11" style="edgeStyle=orthogonalEdgeStyle;rounded=0;orthogonalLoop=1;jettySize=auto;html=1;entryX=0;entryY=0.5;entryDx=0;entryDy=0;fontSize=13;fontColor=#000000;" parent="0pw7UGAyTuQbIFyHGtrg-1" source="0pw7UGAyTuQbIFyHGtrg-7" target="0pw7UGAyTuQbIFyHGtrg-9" edge="1">
          <mxGeometry relative="1" as="geometry" />
        </mxCell>
        <mxCell id="0pw7UGAyTuQbIFyHGtrg-7" value="&lt;font style=&quot;font-size: 12px&quot;&gt;&lt;b&gt;Amplitude&lt;br&gt;Spectrum&lt;/b&gt;&lt;/font&gt;" style="rounded=0;whiteSpace=wrap;html=1;fontSize=13;fontColor=#000000;" parent="0pw7UGAyTuQbIFyHGtrg-1" vertex="1">
          <mxGeometry x="390" y="380" width="70" height="40" as="geometry" />
        </mxCell>
        <mxCell id="0pw7UGAyTuQbIFyHGtrg-12" style="edgeStyle=orthogonalEdgeStyle;rounded=0;orthogonalLoop=1;jettySize=auto;html=1;entryX=0;entryY=0.5;entryDx=0;entryDy=0;fontSize=13;fontColor=#000000;" parent="0pw7UGAyTuQbIFyHGtrg-1" source="0pw7UGAyTuQbIFyHGtrg-8" target="0pw7UGAyTuQbIFyHGtrg-9" edge="1">
          <mxGeometry relative="1" as="geometry" />
        </mxCell>
        <mxCell id="0pw7UGAyTuQbIFyHGtrg-8" value="&lt;b style=&quot;font-size: 12px&quot;&gt;Phase&lt;br&gt;Spectrum&lt;/b&gt;" style="rounded=0;whiteSpace=wrap;html=1;fontSize=13;fontColor=#000000;" parent="0pw7UGAyTuQbIFyHGtrg-1" vertex="1">
          <mxGeometry x="390" y="460" width="70" height="40" as="geometry" />
        </mxCell>
        <mxCell id="0pw7UGAyTuQbIFyHGtrg-9" value="&lt;b style=&quot;font-size: 12px&quot;&gt;Mixed&lt;br&gt;Image&lt;/b&gt;" style="rounded=0;whiteSpace=wrap;html=1;fontSize=13;fontColor=#000000;" parent="0pw7UGAyTuQbIFyHGtrg-1" vertex="1">
          <mxGeometry x="529" y="420" width="70" height="40" as="geometry" />
        </mxCell>
        <mxCell id="0pw7UGAyTuQbIFyHGtrg-13" value="&lt;b&gt;Feature&amp;nbsp;&lt;br&gt;Extraction&lt;br&gt;&lt;/b&gt;" style="rounded=1;whiteSpace=wrap;html=1;" parent="0pw7UGAyTuQbIFyHGtrg-1" vertex="1">
          <mxGeometry x="680" y="410" width="70" height="50" as="geometry" />
        </mxCell>
        <mxCell id="0pw7UGAyTuQbIFyHGtrg-14" value="" style="shape=flexArrow;endArrow=classic;html=1;rounded=0;" parent="0pw7UGAyTuQbIFyHGtrg-1" edge="1">
          <mxGeometry width="50" height="50" relative="1" as="geometry">
            <mxPoint x="760" y="434.5" as="sourcePoint" />
            <mxPoint x="800" y="434.5" as="targetPoint" />
          </mxGeometry>
        </mxCell>
        <mxCell id="0pw7UGAyTuQbIFyHGtrg-15" value="&lt;b&gt;&lt;font color=&quot;#330066&quot;&gt;SVM&lt;/font&gt;&lt;/b&gt;" style="text;html=1;strokeColor=none;fillColor=none;align=center;verticalAlign=middle;whiteSpace=wrap;rounded=0;" parent="0pw7UGAyTuQbIFyHGtrg-1" vertex="1">
          <mxGeometry x="750" y="390" width="60" height="30" as="geometry" />
        </mxCell>
        <mxCell id="0pw7UGAyTuQbIFyHGtrg-19" value="&lt;b&gt;Classification&lt;br&gt;&lt;/b&gt;" style="rounded=1;whiteSpace=wrap;html=1;" parent="0pw7UGAyTuQbIFyHGtrg-1" vertex="1">
          <mxGeometry x="810" y="410" width="90" height="50" as="geometry" />
        </mxCell>
        <mxCell id="0pw7UGAyTuQbIFyHGtrg-22" value="" style="shape=flexArrow;endArrow=classic;html=1;rounded=0;" parent="0pw7UGAyTuQbIFyHGtrg-1" edge="1">
          <mxGeometry width="50" height="50" relative="1" as="geometry">
            <mxPoint x="630" y="434.5" as="sourcePoint" />
            <mxPoint x="670" y="434.5" as="targetPoint" />
          </mxGeometry>
        </mxCell>
        <mxCell id="0pw7UGAyTuQbIFyHGtrg-23" value="&lt;b&gt;&lt;font color=&quot;#330066&quot;&gt;PCA&lt;/font&gt;&lt;/b&gt;" style="text;html=1;strokeColor=none;fillColor=none;align=center;verticalAlign=middle;whiteSpace=wrap;rounded=0;" parent="0pw7UGAyTuQbIFyHGtrg-1" vertex="1">
          <mxGeometry x="620" y="390" width="60" height="30" as="geometry" />
        </mxCell>
        <mxCell id="0pw7UGAyTuQbIFyHGtrg-24" value="" style="rounded=1;whiteSpace=wrap;html=1;fontSize=12;fontColor=#000000;fillColor=none;dashed=1;strokeWidth=2;" parent="0pw7UGAyTuQbIFyHGtrg-1" vertex="1">
          <mxGeometry x="300" y="290" width="610" height="260" as="geometry" />
        </mxCell>
        <mxCell id="0pw7UGAyTuQbIFyHGtrg-25" value="&lt;font&gt;&lt;font&gt;&lt;font&gt;&lt;font&gt;&lt;font&gt;&lt;font&gt;&lt;font style=&quot;font-size: 19px&quot;&gt;&lt;b&gt;Classification Model&lt;/b&gt;&lt;/font&gt;&lt;/font&gt;&lt;/font&gt;&lt;/font&gt;&lt;/font&gt;&lt;/font&gt;&lt;/font&gt;" style="text;html=1;strokeColor=none;fillColor=none;align=center;verticalAlign=middle;whiteSpace=wrap;rounded=0;dashed=1;fontSize=12;fontColor=#000000;" parent="0pw7UGAyTuQbIFyHGtrg-1" vertex="1">
          <mxGeometry x="490" y="310" width="230" height="10" as="geometry" />
        </mxCell>
      </root>
    </mxGraphModel>
  </diagram>
  <diagram id="Gm1Ic8DiPYItqdlUJY4B" name="Page-5">
    <mxGraphModel dx="1933" dy="1208" grid="1" gridSize="10" guides="1" tooltips="1" connect="1" arrows="1" fold="1" page="1" pageScale="1" pageWidth="827" pageHeight="1169" math="0" shadow="0">
      <root>
        <mxCell id="RVkiUUmXxSvIBv53PdkQ-0" />
        <mxCell id="RVkiUUmXxSvIBv53PdkQ-1" parent="RVkiUUmXxSvIBv53PdkQ-0" />
        <mxCell id="xo6WSdMoPao4BwD4sp3l-0" value="" style="shape=image;verticalLabelPosition=bottom;labelBackgroundColor=#ffffff;verticalAlign=top;aspect=fixed;imageAspect=0;image=data:image/png,iVBORw0KGgoAAAANSUhEUgAABvgAAAGyCAYAAAAh0MP2AAAAOXRFWHRTb2Z0d2FyZQBNYXRwbG90bGliIHZlcnNpb24zLjQuMiwgaHR0cHM6Ly9tYXRwbG90bGliLm9yZy8rg+JYAAAACXBIWXMAAA9hAAAPYQGoP6dpAABoA0lEQVR4nO3deZyN9f//8eeZfcaYGcyYxVZKkVAfMgmpKKNPWj4UUiFLCz72tRiUbNFiTfVRn0qLpJV8JKKyVFpEiazZM8wMY4aZc/3+8HV+TQZjlvO+rnMe99vtut3MWa7r+T5zXg0957qOy7IsSwAAAAAAAAAAAAAcIcB0AAAAAAAAAAAAAACFR8EHAAAAAAAAAAAAOAgFHwAAAAAAAAAAAOAgFHwAAAAAAAAAAACAg1DwAQAAAAAAAAAAAA5CwQcAAAAAAAAAAAA4CAUfAAAAAAAAAAAA4CAUfAAAAAAAAAAAAICDUPABAAAAKHEXXXSRXC5Xvi00NFSVK1fWHXfcoY8//rjEj/nRRx+padOmioqK8hxz+fLlJX4cf3f6e/vKK6+YjgIAAAAAfivIdAAAAAAAvqtx48a69NJLJUnp6en6/vvv9eGHH+rDDz9Uv379NGXKlBI5zg8//KA2bdrI7XbrpptuUmJiolwulxISEkpk/wAAAAAA2AkFHwAAAIBS061bN3Xu3NnzdW5urvr166dp06bpmWeeUYcOHXTNNdcU+zjvv/++Tp48qeHDh2vs2LHF3h8AAAAAAHbGJToBAAAAeE1QUJAmTZqkqKgoSacuq1kSdu7cKUmqUaNGiewPAAAAAAA7o+ADAAAA4FVhYWGeIm7//v0FPmbp0qX617/+pcTERIWEhKhixYq66667tGrVqnyPGzVqlFwul+bMmSNJ6tKli+fz92644YZ8jz18+LBSU1N11VVXqWzZsoqIiFCdOnX05JNPKisr64wMp/c9atQo7dy5U127dlWVKlUUHByc76xESXr33XeVkpKiuLg4hYSEqFKlSrrvvvu0cePGM/a7fft2uVwuXXTRRbIsS7Nnz1b9+vVVpkwZRUdH65ZbbjljnX+VlZWlZ599Vk2aNFG5cuUUGhqqatWqqXXr1po7d26Bz7mQfEX119drz5496tatm5KSkhQeHq4rr7xSL7/8suexv/76q+69914lJCQoLCxM9erV09tvv13gfjdu3KjU1FQ1btxYlSpVUkhIiCpUqKAWLVronXfeOWemDz74QE2bNlXZsmUVHR2tZs2a6ZNPPsn3PSjIhb5X3G63Zs+ercaNGysmJkbBwcGqWLGi6tWrp969e2v79u2Ffh0BAAAAoDC4RCcAAAAAr8vIyJAkxcfHn3HfwIEDNXnyZAUEBKhBgwZq2rSpdu7cqQ8++EAfffSRXnzxRXXp0kWSdNVVV6lTp0768ssv9fvvv+f7zL+aNWt69rlx40alpKRo165dSkxMVJMmTRQcHKy1a9dqxIgRmj9/vpYvX67o6Ogz8mzevFlXX321QkJC1LhxY1mWpdjYWEmnLjnasWNHvfPOOwoNDVX9+vVVqVIl/fbbb3rjjTf03nvv6b333lNKSkqBr0OXLl00d+5cNW3aVLfddpt++OEHLVmyRCtWrNAXX3yh5OTkfI/ftWuXUlJStHHjRkVERKhx48aqUKGCdu/erZUrV2r9+vW69957PY8vbr6i2Llzp+rXr6+QkBA1bdpUBw8e1IoVK9StWzcdOXJEjRs31i233KKkpCTdeOON2rFjh1atWqX27dtLktq1a5dvf1OmTNHLL7+smjVrqk6dOoqJidHOnTu1bNkyLV26VKtXry7wsxwnTpyoIUOGSJKSk5NVvXp1bdmyRbfddpsGDx581vxFea9069ZNc+bMUVhYmJo0aaK4uDilpaVp69atmjZtmpo3b37WMhEAAAAAisQCAAAAgBJWrVo1S5I1Z86cM+7buHGjFRgYaEmyvvnmm3z3zZ4925JkXXrppdaPP/6Y774vvvjCKlu2rBUSEmL99ttv+e7r1KnTWY+XlZVlXXLJJZYk6/HHH7dycnI89x07dszq0KGDJcnq0qVLvuelpqZakixJ1n333WdlZ2efse/hw4dbkqzk5GRr69at+e6bN2+eFRgYaJUrV846fPiw5/Zt27Z59lutWjVr06ZNnvtyc3OtBx980JJk3XLLLfn2l5eXZzVo0MBz34EDB/Ldf/z4ceuTTz4pdr7zOdv39q+v18MPP2ydPHnSc9+HH35oSbLKli1rVatWzXryySctt9vtuf/ZZ5/1fN//bvny5dbvv/9+xu2//vqrVblyZUuStWbNmnz3rVu3zgoMDLQCAwOt9957L99977zzjhUQEOB5/f+qKO+VHTt2WJKsypUrW3v37j0j58aNG60dO3accTsAAAAAFAeX6AQAAADgFenp6frf//6nf/3rX8rLy9Pjjz+uBg0aeO53u90aNWqUJOmtt95S3bp18z3/+uuv14gRI3TixAm98MILhT7uq6++qt9//1233XabnnjiCYWEhHjui4iI0OzZs1WxYkW99tprOnz48BnPL1++vKZNm6bQ0NB8t6elpemZZ55RWFiY5s+fr4svvjjf/W3bttVDDz2kw4cP6/XXXy8w29SpU3XZZZd5vg4MDNTYsWMlSV988YVOnjzpue+jjz7St99+q8TERM2fP19xcXH59hUWFqZbb721RPMVRdWqVfXMM88oKOj/XzCmdevWqlu3rjIzMxUfH6/hw4fL5XJ57u/Zs6fKly+vLVu2eD5P8bRmzZqpevXqZxzn8ssv14gRIySdugTpX02bNk15eXm65557dNddd+W77+6779a//vWvArMX5b1y+jKz//jHP5SQkHDGPmvVqqWqVasWeDwAAAAAKCoKPgAAAACl5q+fiRcTE6OWLVtq8+bNev311/XEE0/ke+z333+vPXv26JJLLlH9+vUL3N/pz9X7+uuvC53hk08+kXTmpR9Pi4yMVIMGDZSbm6tvvvnmjPtbtGhR4KU7ly1bpuPHj3s+G+5C8wYFBRV4acyEhASVK1dOOTk5OnTokOf2Tz/9VJJ07733KjIyssDjlWS+orrxxhsVFhZ2xu2nP3exVatW+co96dRrcfoSlnv27DnjuUePHtW8efM0fPhw9ejRQ507d1bnzp01f/58SdKmTZvyPf6LL76QJHXs2LHAjGe7vSjvlZo1a6ps2bJauHChxo4dq23bthX4XAAAAAAoSXwGHwAAAIBS89fPxDt48KBWrlypzMxMPfLII6pRo4YaNmzoeezWrVslSb///vsZBdDfHTx4sNAZTu/3/vvv1/3333/B+z3bZ6ed3u/SpUuLlDcxMVHBwcEFPj4qKkqHDx9Wdna257YdO3ZIyv/ZgudS3HxFdbaz1U6Xkme7v2zZspKUb83SqTMXu3Tpkq/s/LvTn+l42h9//CHp7N+7831PL+S9UrZsWc2ZM0ddunTR448/rscff1yJiYm69tprlZKSUuhCFgAAAAAuBAUfAAAAgFLTrVs3de7c2fN1enq67rrrLi1btkz33HOPNm7cqIiICEmnLtEpnTqDrWXLlufcb2xsbKEznN5vSkqK4uPjz/nYatWqnXFbeHj4Ofd76aWXqnHjxufcb0GlXEBA6V5Qpbj5iup867qQde/evVvt2rXT8ePHNXjwYHXs2FEXXXSRIiMjFRAQoP/9739q2bKlLMsq8PlnKzbPdntR3ytt2rRRixYt9OGHH2rlypX66quvtGDBAi1YsEAjR47UkiVLVKdOncIsGQAAAAAKhYIPAAAAgNdER0fr7bffVs2aNbVjxw5NmTJFjz/+uCSpSpUqkqQKFSrolVdeKbFjVqlSRb/++qu6du2qtm3bluh+pVOfBVeSec/m9Jlvv/76a6Ee7+18peGjjz7S8ePHddddd2nChAln3L958+YCn1epUiVt3bpV27dv1xVXXHHG/du3by/wecV5r0RHR+c782/Xrl3q3bu3PvjgA/Xq1ctz2VAAAAAAKAl8Bh8AAAAAr4qLi/OUek8//bSOHDkiSbrmmmsUGxurjRs3asOGDSV2vFatWkmS3nnnnRLbpyQ1b95cISEhWr58uQ4cOFCi+y7I6c/re/PNN3Xs2LHzPt7b+UpDWlqapILPrLQsS3Pnzi3weddff70knfX+s91eku+VKlWqaPTo0ZKkH374odj7AwAAAIC/ouADAAAA4HWPPvqoqlatqvT0dE2ePFmSFBwcrNTUVFmWpbvuuktffvnlGc/Ly8vT559/rtWrVxf6WD169FC1atU0b948DRkyRJmZmWc8Zt++fXrxxRcvaA3x8fHq3bu3jh07ptatW2v9+vVnPCYnJ0cffvhhoc+6O5fbb79dV199tfbs2aO77777jM+ky87O1qJFi4zlKw21atWSJL377rvau3ev5/a8vDyNHDlSX3/9dYHP69WrlwICAvTWW2/pgw8+yHffe++9p/nz5xf4vKK8V77//nu9/fbbOn78+BmP/eijjyQVXFACAAAAQHFwiU4AAAAAXhcaGqpRo0bpwQcf1HPPPad+/fqpfPny6tWrl3bu3KlJkyapadOmql27ti699FKFh4dr3759+uGHH3TkyBHNnDlT1157baGOVaZMGX3yySe67bbbNHHiRM2ePVt169ZV5cqVlZWVpd9++02//PKLKlasqO7du1/QOsaPH6+9e/dq7ty5uuqqq1SvXj1Vr15dQUFB+uOPP/TDDz/o2LFjWrRoUbE/5y4gIEALFixQy5YttWjRIlWtWlVNmjRRhQoVtHv3bv3444+KiYnJd/lJb+YrDa1bt1b9+vX13Xff6bLLLlOzZs1UpkwZrVmzRnv27NGQIUMKvHRn/fr19eSTT2r48OG68847de2116p69erasmWL1q5dqwEDBmjy5MkKCQnJ97yivFd27Nih9u3bKzw8XP/4xz9UpUoV5ebmav369dq0aZNCQkI0ceJEr7xeAAAAAPwHZ/ABAAAAMOKBBx7QFVdcoczMTE2aNMlz+8SJE/XVV1+pY8eOOnr0qD799FN98skn2rNnj2644Qa99NJLateu3QUdq3bt2vrpp580ceJE1apVSz/99JPmzZunNWvWqEyZMho4cKAWLFhwwWsICgrSG2+8oYULF+rOO+/UgQMH9OGHH2rx4sVKS0tT69atNXfuXM8lI4urWrVq+vbbbzVhwgTVrl1bq1at0nvvvacdO3aoWbNmZ5Rd3s5X0oKCgrR8+XINHz5clSpV0tKlS7V8+XJdffXVWrVqleeypQUZNmyY3nvvPTVu3Fjr16/XRx99pJCQEL3//vu64447JEmxsbFnPO9C3yvXXnutxo8frxtvvFF79uzRhx9+qP/9738KDAxUz5499dNPP50zJwAAAAAUhcuyLMt0CAAAAAAAvGXMmDFKTU1V79699fzzz5uOAwAAAAAXjDP4AAAAAAA+Z/PmzTp8+PAZt3/44YcaN26cXC6XOnXqZCAZAAAAABQfn8EHAAAAAPA5b7zxhp566ildffXVqlKlik6ePKlNmzZp06ZNkqRRo0apfv36hlMCAAAAQNFQ8AEAAAAAfE5KSoo2b96s1atX65dfflF2drYqVKig1q1b69FHH+Vz8QAAAAA4Gp/BBwAAAAAAAAAAADgIn8EHAAAAAAAAAAAAOAgFHwAAAAAAAAAAAOAgFHwAAAAAAAAAAACAg1DwAQAAAAAAAAAAAA5CwQcAAAAAAAAAAAA4CAUfAAAAAAAAAAAA4CAUfAAAAAAAAAAAAICDUPABAAAAAAAAAAAADkLBBwAAAAAAAAAAADgIBR8AAAAAAAAAAADgIBR8AAAAAAAAAAAAgINQ8AEAAAAAAAAAAAAOQsEHAAAAAAAAAAAAOAgFHwAAAAAAAAAAAOAgFHwAAAAAAAAAAACAg1DwAQAAAAAAAAAAAA5CwQcAAAAAAAAAAAA4CAUfAAAAAAAAAAAA4CAUfAAAAAAAAAAAAICDUPABAAAAAAAAAAAADkLBBwAAAAAAAAAAADgIBR8AAAAAAAAAAADgIBR8AAAAAAAAAAAAgINQ8AEAAAAAAAAAAAAOQsEHAAAAAAAAAAAAOAgFHwAAAAAAAAAAAOAgFHwAAAAAAAAAAACAg1DwAQAAAAAAAAAAAA5CwQcAAAAAAAAAAAA4CAUfAAAAAAAAAAAA4CAUfAAAAAAAAAAAAICDUPABAAAAAAAAAAAADkLBBwAAAAAAAAAAADgIBR8AAAAAAAAAAADgIBR8AAAAAAAAAAAAgINQ8AEAAAAAAAAAAAAOQsEHAAAAAAAAAAAAOAgFHwAAAAAAAAAAAOAgFHwAAAAAAAAAAACAg1DwAQAAAAAAAAAAAA5CwQcAAAAAAAAAAAA4CAUfAAAAAAAAAAAA4CAUfAAAAAAAAAAAAICDUPABAAAAAAAAAAAADkLBBwAAAAAAAAAAADgIBR8AAAAAAAAAAADgIBR8AAAAAAAAAAAAgINQ8AEAAAAAAAAAAAAOQsEHAAAAAAAAAAAAOAgFHwAAAAAAAAAAAOAgFHwAAAAAAAAAAACAg1DwAQAAAAAAAAAAAA5CwQcAAAAAAAAAAAA4CAUfAAAAAAAAAAAA4CAUfAAAAAAAAAAAAICDUPABAAAAAAAAAAAADkLBBwAAAAAAAAAAADgIBR8AAAAAAAAAAADgIBR8AAAAAAAAAAAAgINQ8AEAAAAAAAAAAAAOQsEHAAAAAAAAAAAAOAgFHwAAAAAAAAAAAOAgFHwAAAAAAAAAAACAg1DwAQAAAAAAAAAAAA5CwQcAAAAAAAAAAAA4CAUfAAAAAAAAAAAA4CAUfAAAAAAAAAAAAICDUPABAAAAAAAAAAAADkLBBwAAAAAAAAAAADgIBR8Ax7nooovUuXNn0zEAFBIzCzgLMws4CzMLOAszCzgLMwvAzij4ANjG77//roceekjVq1dXWFiYoqKi1LhxYz333HM6fvy46XhFMmrUKLlcrjO2sLAw09GAYvPFmf27m2++WS6XS7169TIdBSg2X5zZ9957T+3atVP16tUVERGhyy+/XAMGDNCRI0dMRwOKzRdndsGCBWrZsqWSkpIUGhqqypUrq23btvr5559NRwOKzRdndtOmTerXr5+uu+46hYWFyeVyafv27aZjASXCF2f2tLfffluNGjVSmTJlFBMTo+uuu06ff/656VgASkGQ6QAAIEmffPKJ7r77boWGhuqBBx7QlVdeqRMnTujLL7/UoEGDtGHDBs2ePdt0zCKbOXOmIiMjPV8HBgYaTAMUn6/PrHSqOFi1apXpGECJ8NWZ7dGjh5KSknTfffepatWqWr9+vaZNm6aFCxdq3bp1Cg8PNx0RKBJfndn169erXLly6tOnj2JjY7Vv3z795z//UcOGDbVq1SrVq1fPdESgSHx1ZletWqXnn39eV1xxhWrVqqUffvjBdCSgRPjqzEqnftF8zJgxatu2rTp37qyTJ0/q559/1u7du01HA1AKKPgAGLdt2za1b99e1apV0+eff67ExETPfT179tSWLVv0ySefGExYfG3btlVsbKzpGECJ8IeZzc7O1oABAzRkyBCNHDnSdBygWHx5Zt99913dcMMN+W6rX7++OnXqpDfeeEPdunUzEwwoBl+e2YJ+pnbr1k2VK1fWzJkzNWvWLAOpgOLx5Zm9/fbbdeTIEZUtW1ZPP/00BR98gi/P7OrVqzVmzBhNnjxZ/fr1Mx0HgBdwiU4Axk2cOFFHjx7Vyy+/nO8vVqddeuml6tOnz1mfn5aWpoEDB6pOnTqKjIxUVFSUWrVqpR9//PGMx06dOlW1a9dWRESEypUrpwYNGmju3Lme+zMzM9W3b19ddNFFCg0NVcWKFXXzzTdr3bp1nsdkZWXp119/1Z9//lnoNVqWpYyMDFmWVejnAHblDzM7ceJEud1uDRw4sNDPAezKl2f27+WeJN11112SpF9++eW8zwfsyJdntiAVK1ZUREQEl9aFY/nyzJYvX15ly5Y97+MAJ/HlmX322WeVkJCgPn36yLIsHT169LzPAeBsFHwAjPvoo49UvXp1XXfddUV6/tatW/X+++/rtttu05QpUzRo0CCtX79ezZo10549ezyPe/HFF/Xvf/9bV1xxhZ599lmNHj1aV111ldasWeN5zMMPP6yZM2eqTZs2mjFjhgYOHKjw8PB8/5Nw7dq1qlWrlqZNm1bojNWrV1d0dLTKli2r++67T/v37y/SWgE78PWZ3blzp8aPH68JEyZweT/4BF+f2b/bt2+fJHHmPBzLH2b2yJEjOnjwoNavX69u3bopIyNDzZs3L9J6AdP8YWYBX+LLM7t06VJdc801ev755xUXF6eyZcsqMTGReQd8GJfoBGBURkaGdu/erTvuuKPI+6hTp45+++03BQT8/99ZuP/++1WzZk29/PLLGjFihKRT11ivXbu25s2bd9Z9ffLJJ+revbsmT57suW3w4MFFzlauXDn16tVLjRo1UmhoqFauXKnp06dr7dq1+vbbbxUVFVXkfQMm+PrMStKAAQN09dVXq3379sXaD2AH/jCzfzdhwgQFBgaqbdu2JbpfwBv8ZWavvfZabdq0SZIUGRmpxx9/XF27di32fgFv85eZBXyFL8/s4cOH9eeff+qrr77S559/rtTUVFWtWlVz5sxR7969FRwcrIceeqhI+wZgXxR8AIzKyMiQpGJd9iM0NNTz57y8PB05ckSRkZG6/PLL813WICYmRn/88Ye++eYbXXPNNQXuKyYmRmvWrNGePXuUlJRU4GNuuOGGQl9q8++XdWjTpo0aNmyojh07asaMGRo6dGih9gPYha/P7LJlyzR//vx8v1UJOJmvz+zfzZ07Vy+//LIGDx6sGjVqFGkfgEn+MrNz5sxRRkaGtm7dqjlz5uj48ePKy8vL9z9LASfwl5kFfIUvz+zpy3EeOnRIb731ltq1aydJatu2rerUqaMnn3ySgg/wQfztGYBRp89gy8zMLPI+3G63nnnmGdWoUUOhoaGKjY1VXFycfvrpJ6Wnp3seN2TIEEVGRqphw4aqUaOGevbsqa+++irfviZOnKiff/5ZVapUUcOGDTVq1Cht3bq1yNkKcu+99yohIUGfffZZie4X8AZfntnc3Fz9+9//1v3333/Wf4ABTuPLM/t3K1euVNeuXdWyZUuNHTu2RPYJeJu/zGyjRo3UsmVLPfLII1q8eLFef/11DRs2rNj7BbzNX2YW8BW+PLOnP14iODg435UsAgIC1K5dO/3xxx/auXNnkfYNwL4o+AAYFRUVpaSkJP38889F3sdTTz2l/v376/rrr9frr7+uxYsXa8mSJapdu7bcbrfncbVq1dKmTZv01ltvqUmTJpo/f76aNGmi1NRUz2Puuecebd26VVOnTlVSUpImTZqk2rVra9GiRcVa599VqVJFaWlpJbpPwBt8eWb/+9//atOmTXrooYe0fft2zyad+gfg9u3blZWVVeR1Ayb48sz+1Y8//qjbb79dV155pd59910FBXGhEjiTv8zsX5UrV0433XST3njjjRLbJ+At/jizgJP58syWL19eYWFhqlChggIDA/PdV7FiRUmnLuMJwMdYAGBYjx49LEnW119/XajHV6tWzerUqZPn63r16lk33njjGY+rVKmS1axZs7PuJycnx/rnP/9pBQYGWsePHy/wMfv377cqVapkNW7cuFDZCsPtdltxcXHWLbfcUmL7BLzJV2c2NTXVknTObcGCBRe8X8A0X53Z07Zs2WIlJCRYl112mXXgwIEi7wewC1+f2YLceeedVnh4eInuE/AWf5nZSZMmWZKsbdu2FXtfgEm+PLPXXnutFRgYaOXk5OS7fcSIEZYka/fu3UXaLwD74gw+AMYNHjxYZcqUUbdu3bR///4z7v/999/13HPPnfX5gYGBZ1yPfN68edq9e3e+2w4dOpTv65CQEF1xxRWyLEsnT55UXl5evsspSKd+yykpKUk5OTme27KysvTrr7/qzz//PO/aDh48eMZtM2fO1MGDB5WSknLe5wN25Ksz2759ey1YsOCMTZJuvfVWLViwQMnJyefcB2BHvjqzkrRv3z7dcsstCggI0OLFixUXF3fe5wB258sze+DAgTNu2759u5YuXaoGDRqc9/mAHfnyzAK+yJdntl27dsrLy9Orr77quS07O1tvvPGGrrjiirN+zh8A5+LaNQCMu+SSSzR37ly1a9dOtWrV0gMPPKArr7xSJ06c0Ndff6158+apc+fOZ33+bbfdpjFjxqhLly667rrrtH79er3xxhuqXr16vsfdcsstSkhIUOPGjRUfH69ffvlF06ZN0z//+U+VLVtWR44cUeXKldW2bVvVq1dPkZGR+uyzz/TNN99o8uTJnv2sXbtWN954o1JTUzVq1Khzrq1atWpq166d6tSpo7CwMH355Zd66623dNVVV/HhxnAsX53ZmjVrqmbNmgXed/HFF+vOO++8kJcJsA1fnVlJSklJ0datWzV48GB9+eWX+vLLLz33xcfH6+abby7SawaY5MszW6dOHTVv3lxXXXWVypUrp82bN+vll1/WyZMnNX78+OK8bIAxvjyz6enpmjp1qiR5Pjts2rRpiomJUUxMjHr16lW0Fw0wyJdn9qGHHtJLL72knj176rffflPVqlX12muvaceOHfroo4+K87IBsCszJw4CwJl+++03q3v37tZFF11khYSEWGXLlrUaN25sTZ061crOzvY87u+XR8jOzrYGDBhgJSYmWuHh4Vbjxo2tVatWWc2aNct3eYQXXnjBuv76660KFSpYoaGh1iWXXGINGjTISk9Ptyzr1OUSBg0aZNWrV88qW7asVaZMGatevXrWjBkz8uVctmyZJclKTU0975q6detmXXHFFVbZsmWt4OBg69JLL7WGDBliZWRkFOu1AuzAF2e2IJKsnj17Fum5gJ344szqHJfUPdclkgAn8MWZTU1NtRo0aGCVK1fOCgoKspKSkqz27dtbP/30U7FeK8AOfHFmt23bdtafs9WqVSvOywUY54sza1mnLvPZqVMnq3z58lZoaKiVnJxsffrpp0V+nQDYm8uy/nZOMQAAAAAAAAAAAADb4jP4AAAAAAAAAAAAAAeh4AMAAAAAAAAAAAAchIIPAAAAAAAAAAAAcBAKPqCIpk+frosuukhhYWFKTk7W2rVrTUcCcA7MLOAszCzgLMws4CzMLOAszCwAoCAUfEARvP322+rfv79SU1O1bt061atXTy1bttSBAwdMRwNQAGYWcBZmFnAWZhZwFmYWcBZmFgBwNi7LsizTIQCnSU5O1jXXXKNp06ZJktxut6pUqaLevXtr6NChZzw+JydHOTk5nq/dbrfS0tJUoUIFuVwur+UG7MyyLGVmZiopKUkBASX7+yfMLFDymFnAWZhZwFmYWcBZmFnAWUpzZgGvsgBckJycHCswMNBasGBBvtsfeOAB6/bbby/wOampqZYkNja2Qmy7du1iZtnYHLQxs2xsztqYWTY2Z23MLBubszZmlo3NWVtJzyzgbUECcEH+/PNP5eXlKT4+Pt/t8fHx+vXXXwt8zrBhw9S/f3/P1+np6apatap27dqlqKioUs0LOEVGRoaqVKmismXLluh+mVmgdDCzgLMws4CzMLOAszCzgLOU1swC3kbBB3hBaGioQkNDz7g9KiqKv1wBf2OHS4Yws0DhMbOAszCzgLMws4CzMLOAs9hhZoHi4AKzwAWKjY1VYGCg9u/fn+/2/fv3KyEhwVAqAGfDzALOwswCzsLMAs7CzALOwswCAM6Fgg+4QCEhIapfv76WLl3quc3tdmvp0qVq1KiRwWQACsLMAs7CzALOwswCzsLMAs7CzAIAzoVLdAJF0L9/f3Xq1EkNGjRQw4YN9eyzz+rYsWPq0qWL6WgACsDMAs7CzALOwswCzsLMAs7CzAIAzoaCDyiCdu3a6eDBgxo5cqT27dunq666Sp9++ukZH3oMwB6YWcBZmFnAWZhZwFmYWcBZmFkAwNm4LMuyTIcA/E1GRoaio6OVnp7OBxwD/8fOc2HnbIApdp4LO2cDTLHzXNg5G2CKnefCztkAU+w8F3bOBpjCXMBX8Bl8AAAAAAAAAAAAgINQ8AEAAAAAAAAAAAAOQsEHAAAAAAAAAAAAOAgFHwAAAAAAAAAAAOAgFHwAAAAAAAAAAACAg1DwAQAAAAAAAAAAAA5CwQcAAAAAAAAAAAA4CAUfAAAAAAAAAAAA4CAUfAAAAAAAAAAAAICDUPABAAAAAAAAAAAADkLBBwAAAAAAAAAAADgIBR8AAAAAAAAAAADgIBR8AAAAAAAAAAAAgIMEmQ4AwKysrCzt3bvXaIakpCSFh4cbzQAAAAAAAAAAgFNQ8AF+bsWKFWrVqpXRDCtXrlSTJk2MZiiqvLw8/f7770aOXa5cOcXFxRk5NmDKb7/9Jkm67LLLDCcBAMDZfvvtN9WoUUMul8t0FAAAAABFQMEHAMWQnp6uyy+/3MixBw0apIkTJxo5NmCCZVmeebMsy3AaAACc59dff/X8DK1du7Z+/vnnfAVfzZo1KfwAAAAAh6DgAwAAjvPzzz/ryiuvNB0DAADb27Bhg6fUu/rqq5Wbm+u5r3bt2vkeu379es+f+TkLAAAA2BsFHwAAcIQff/zR8+c6depwFh8AAOfx008/qWHDhsrJySnU4+vUqeP58w8//KB69eqVVjQAAAAAxRRgOgAAAEBhXH311aYjAADgGD/88IOSk5MLXe793VVXXaV169aVcCoAAAAAJYWCDwAAONLatWtNRwAAwJa+++47XXfddcrOzi7Wfho0aKBvvvmmhFIBAAAAKElcohMAANje6tWrz7gtOTmZy3QCAPAX3377rXJzc9WiRQsdP3682PuzLEvJycn6+uuv5XK5lJycXAIpAQAAAJQECj4AAGB7jRo1Mh0BAADbu+WWW3T48OES3adlWWrUqJGCgoJ08uTJEt03AAAAgKKj4AMAAI61YsUKXX/99aZjAEZt3LhRBw8eNB3D51SpUkXVq1c3HQMotK+//lq5ubmltn/Lsvi5CwAAANgIBR8AALC1pUuXnvW+G264QW6324tpAPsZPXq03nnnHdMxfM6gQYM0ceJE0zGAQlm5cqVuu+02ZWZmltox8vLydNNNN2nJkiW68cYbS+04AAAAAAonwHQAAACAc2nRooXpCAAA2Frbtm2VkZFR6sfJy8tTSkpKqR8HAAAAwPlR8AEAANv69NNPS+QxAAD4qmXLliknJ8drx3O73frf//7nteMBAAAAKBgFHwAAsK1bb731nPdblqV//vOfXkoDAIC9LFmyRG3atFF6errXjpmbm6vbbrtNCxcu9NoxAQAAAJyJgg8AAAAAAAfq3LmzDh8+7PXjnjx5Um3btvX6cQEAAAD8fxR8AADAlubPn286AgAAtrVw4UIdP37c2PHz8vL0/vvvGzs+AAAA4O8o+AAAgC3dc889sizrvI+zLEtvv/22FxIBAGAfDz/8sJGz9047ceKEOnbsaOz4AAAAgL+j4AMAAI5mWRb/gxEA4Ffef/99ZWVlmY6hvLw8fskGAAAAMISCDwAA2M5///vfQp29BwCAP+rbt68OHTpkOoZycnLUrVs30zEAAAAAv0TBBwAAbOfBBx+8oILP7XZrzpw5pZgIAAB7mDdvno4ePWo6hsfJkyf12muvmY4BAAAA+B0KPgAA4HiWZalHjx6mYwAAUOqGDh1qi7P3TsvJyVGvXr1MxwAAAAD8DgUfAACwlVmzZsntdpuOAQCA7cydO1cZGRmmY5zhxIkTevnll03HAAAAAPwKBR8AALCV3r17F+nz99xut6ZNm1YKiQAAsIdRo0bpzz//NB3jDNnZ2RowYIDpGAAAAIBfoeADAAC28cwzzxT57D23263+/fuXcCIAAFAYOTk5mj59uukYAAAAgN+g4AMAALYxZMgQLs8JAEABXnrpJR0+fNh0jLPKzs7WiBEjTMcAAAAA/AYFH/A3o0aNksvlyrfVrFnTc392drZ69uypChUqKDIyUm3atNH+/fsNJgb8GzMLOAszCzgLM2sfkydPtuXlOWEvzKzve+qpp4p0OXvYEzMLACiOINMBADuqXbu2PvvsM8/XQUH/f1T69eunTz75RPPmzVN0dLR69eqlf/3rX/rqq69MRAUgZtZXjB07Vnl5ecXaR15ensaOHavHHnushFKhNDCzgLMws+bNmjXLEeVedna2nn76aQ0cONB0FL/GzDrT+PHjdeLEifM+LjU1Vbm5uYXaZ2BgIH8vdgBmFgBQVBR8QAGCgoKUkJBwxu3p6el6+eWXNXfuXN10002SpDlz5qhWrVpavXq1rr32Wm9HBSBm1leMGTOm2JfndLvdGjNmDP8jw+aYWcBZmFnzpk2b5oiC7/jx4xo/fjwFn2HMrHOMGzdOx48fl3Sq4Dt58mShnpeamlqoxwUEBCgnJ0fSqffFyJEjixYUpcoJM5uVlaXx48d77XgloUOHDqpVq5bpGABQqij4gAJs3rxZSUlJCgsLU6NGjTRu3DhVrVpV3333nU6ePKkWLVp4HluzZk1VrVpVq1atOutfrnJycjx/qZakjIyMUl8D4E+YWcBZmFnAWZhZwFmYWfsaN25cvtfv2WefVXZ2dqkdz+1264knnpB0qkQ6XSZKUlhYWKGLQpQuJ8xsVlaW573kFBs3btQTTzzhFyXf4cOHNXHiRNMxiqxnz56qXLmy6RiAI1HwAX+TnJysV155RZdffrn27t2r0aNHq2nTpvr555+1b98+hYSEKCYmJt9z4uPjtW/fvrPuc9y4cRo9enQpJwf8EzPrG4YPH17oSw2dT25uroYPH66nnnqqRPaHksXMAs7CzJr3zDPPOOrzlrKysjRmzBjOFDKEmbWfCRMm6NChQ5KkmTNn6ujRo0Zy5Obm5jsDKzQ0VMeOHZMkRUZGMrOGOGVmIyIiNGLECEeVfPPnz1fnzp19vuA7cuSIhg4dqtmzZ5uOUmS7d+/WuHHjVKlSJdNRAMeh4AP+plWrVp4/161bV8nJyapWrZreeecdhYeHF2mfw4YNU//+/T1fZ2RkqEqVKsXOCoCZ9RVTpkwp9uU5T3O73ZoyZQoFn00xs4CzMLPmzZkzxxGX5zzt+PHjmj59OmWBIcysfYwfP1779+/XnDlzlJ6ebjrOGXJycjRp0iRJUnh4uA4fPqzo6GiNGjXKbDA/45SZjYiIUM+ePR1V8EnSSy+9pEsvvVQ1a9Y0HaVUpKena+DAgXr55ZdNRymW1157TX379qXgA4qAgg84j5iYGF122WXasmWLbr75Zp04cUJHjhzJ9xtU+/fvL/B66aeFhoYqNDTUC2kBMLOAszCzgLMws4CzMLPeN2HCBO3evVuvv/66Dh8+bDpOoRw/flzPPvusypQpo7S0NJUvX56izxA7z2zZsmUdd4b2Bx98IMuyNHHiRF1++eWm45So9PR09e/fX//5z39MRym2AQMGcIlOoIgCTAcA7O7o0aP6/ffflZiYqPr16ys4OFhLly713L9p0ybt3LlTjRo1MpgSwGnMrPP06dOnxC7PeVpubq769OlTovtE6WBmAWdhZgFnYWa9Z/z48Xr00Uc1ceJETZ061THl3l8dO3ZMU6dO1ZQpU/Too49S8hlg55mNiIhQ//79NXbsWK8fuzg+/PBD7dq1y3SMEpWZmak+ffr4RLk3cOBADR48WBUrVjQdBXAkzuAD/mbgwIFq3bq1qlWrpj179ig1NVWBgYHq0KGDoqOj1bVrV/Xv31/ly5dXVFSUevfurUaNGp31w40BlC5m1vlefPFF5eXlleg+8/Ly9OKLL+q5554r0f2i+JhZwFmYWbOeeOIJ7d6923SMC5aRkaGBAwfq6aefNh3F7zCzZowbN05Tpkxx1OV0zyUzM1MzZ85UdHS03G63xowZYzqSz3LazJYpU0Z9+vRRYGCghg4daiRDUTzzzDOqXLmyT1yq8+jRo3r00Uf1+uuvm45SbIMHD1b//v0p94BioOAD/uaPP/5Qhw4ddOjQIcXFxalJkyZavXq14uLiJJ36S0FAQIDatGmjnJwctWzZUjNmzDCcGvBfzKyzPfLIIzpx4oTpGPAiZhZwFmbWrAULFigtLc10jAuWnZ2tN954g4LPAGbWu8aPH6/ffvtNH3/8sc+Ue3+Vnp6u559/Xn/88YeqVKmi0aNHm47kc5w4s2XKlFGHDh0cVfAtXLhQAwcOdHzBd/ToUT300EOaO3eu6SjFNmTIEPXr10/x8fGmowCO5rIsyzIdAvA3GRkZio6OVnp6uqKiooxm+fTTT/N9qLMJK1euVJMmTYxmKKq0tDRVqFDByLEHDRqkiRMnGjl2abDTXPydnbM5XZkyZZSVlVUq+w4PDy+1fcPec2HnbKWhXbt2euedd0zH8Dn8nPUeO2cz7R//+Ie+//570zGKJCEhQXv37jUdw7HsPBd2zuYtEyZM0IYNG7R48WIdOHDAdByviImJUevWrXXxxRdT9BXAznNRGtmOHTumF154QQMGDCiR/XnDzTffrKlTpzr2s/iysrLUpUsXn/h7/9ChQ9W3b1+j5Z6dZxa4EHwGHwAA8EknTpzQgw8+aDoGAABF8vjjj2v79u2mYxTZkSNH1KtXL9MxgBI3YcIEPfPMM3rttdf8ptyTTs30a6+9pmnTpik1NdV0HBhWpkwZ9ejRQ1OmTDEdpdCWLFmiXr16adOmTaajXLCsrCx16tTJZ8q9Pn36cOYeUEIo+AAAgBGdOnVSTk5Oqe0/Ly9Pb7/9dqntHwCA0rR48WIdPnzYdIwiy87O1oIFC0zHAErUhAkT9Oyzz2r//v2moxiTlpamadOmaeTIkaajwLDIyEh1795dzzzzjOkohfbZZ5/p4MGDpmNckOPHj+u+++7Tu+++azpKsQ0bNkx9+/ZVQkKC6SiAz6DgAwAARrz33nvKy8szHQMAAAA4r9Pl3r59+0xHMS4tLU0zZsyg5IMiIyN16623mo5xQR5//HH99ttvpmMUWm5urk/8wszQoUP173//mzP3gBJGwQcAAHxWTk6O2rdvbzoGAAAAHIxy70yHDh3SjBkzNGLECNNRYFhSUpKmTZtmOkahffHFF+rWrZu2bNliOsp5ZWdnq0OHDqZjFNuwYcPUp08fztwDSkGQ6QAAAMD/3H333Tp+/HipHycvL0+ffPJJqR8HAAAAvmfSpElavny51q1bR7lXgEOHDmnmzJlat26d6tevrzFjxpiOBAMiIyPVqVMnuVwu9ezZ03ScQlm5cqXtL4Odk5OjO++8U4sXLzYdpViGDRumf//735R7QCnhDD4AAOB1//vf/7g8JwAAZ9G3b19HXT7sbA4dOqQHHnjAdAygSJ5++mk988wzWrhwIeXeORw6dEgLFy7UzJkzlZqaajoODImMjNT999+vGTNmmI5SaH369LHtWXwnTpxQ69atKfcAnBcFHwAA8GnHjx/XHXfcYToGAACFtnr1amVkZJiOUWw5OTlavny56RjABXv66ac1ZcoU7d2713QUx/jzzz/5XD4/V7ZsWTVu3Nh0jEJbtWqVOnbsqK1bt5qOks/JkyeVkpKiJUuWmI5SLEOHDuWynIAXUPABAACvat26tY4dO+a14+Xl5fE/FwEAAFBoGzdupNwrgj///FM//vij6RgwqHr16nrhhRdMxyi0tWvX6ujRo6ZjeOTm5urmm2/WsmXLTEcpliFDhqhPnz6Kj483HQXweRR8AADAq1auXMnlOQEAAGBLkyZN0sKFC03HcKwvv/xSI0aMMB0DhkRGRuree+/V7NmzTUcptM6dO9viLL7c3FzdcMMN+uKLL0xHKZYhQ4aoX79+nLkHeAkFHwAA8JpWrVrZ6jckAQAAgNOefvppTZ48Wfv37zcdxbHS0tI0c+ZMSj4/FhkZqQ4dOjjmTL7vv/9ebdq00Y4dO4xlyMvL0/XXX6+vvvrKWIaSMGjQIPXr148z9wAvouADAABes2bNGiNn7x07dkw333yz148LAMCFeuihh7RhwwbTMUrM/v37ddddd5mOAZzXlClT9PTTT1PulYBDhw5pxowZSk1NNR0FhkRGRqpu3bqmYxTaDz/8oKysLCPHdrvdaty4sVatWmXk+CVl4MCBGjBgAOUe4GUUfAAAwOfl5eXpm2++MR0DAIDz2rBhg0+d7X7ixAl9//33pmMA5zRlyhRNmDCBcq8EpaWladq0aRo1apTpKDDkyiuv1Isvvmg6RqHdfffdXj+Lz+12q2HDhlqzZo1Xj1vSBgwYoEGDBlHuAQYEmQ4AAAD8w0033aSMjAzTMQAAAACP5557TuPHj9fBgwdNR/E5aWlpmjp1qlwuF2fz+aHIyEi1b99ektS9e3fDac5vw4YNysnJ8drxLMtSgwYNHP9LMP3799fgwYNVsWJF01EAv8QZfAAAwCt++uknI5fnPC0zM1NNmzY1dnwAAADYz+7duyn3SlFaWprRzzaDWadLvtmzZ5uOUii33367du3aVerHsSxL9erVc3y517dvXw0dOpRyDzCIgg8AAPgFt9vtU59pBAAAgOJ57rnnNGfOHNMxfN6CBQs0evRo0zFgSGRkpKpXr246RqFs2rRJzZs31+7du0vtGJZlqU6dOlq/fn2pHcMb/v3vf2v48OGKi4szHQXwaxR8AACg1DVu3FhHjhwxHQMAAFu77777tG7dOtMxStzu3bt1yy23mI4BnOHAgQP6888/TcfweUeOHNGePXtMx4BB1157rV566SXTMQpl8+bNOnnyZKns27IsXXHFFY7/xdPevXtrxIgRlHuADVDwAQCAUrdlyxajl+c8LT09XQ0bNjQdAwCAAu3YsUPHjx83HaPE5ebm6vfffzcdA8jn2Wef1cyZM03H8BtvvfUWn8Pnx8qUKaMOHTo4puS78cYbS7yUtixLl112mX799dcS3a+39ezZU6mpqYqNjTUdBYAo+AAAgB9xu93aunWr6RgAABTI5XKZjgD4jbS0NB0+fNh0DL+RkZHBZx36uYiICHXo0MERn8e3fft2NWrUSPv27SuxfV566aXasmVLie3PhEceeURjxoxRhQoVTEcB8H8o+AAAQKlq2LAhlz4CAKAQLMsyHQHwC88//7yef/550zH8zuuvv65Ro0aZjgGDIiIilJiYaDpGoezcubPErkJz8cUXO/4XTXv06KGxY8eqfPnypqMA+AsKPgAAUKp27dolt9ttOgYAAACgadOmaeTIkUpPTzcdxe9kZmZq8uTJGjNmjOkoMKh58+Z68cUXTccolIYNG+rAgQPF2ke1atW0ffv2kglkSNeuXTVhwgSVK1fOdBQAf0PBBwAASk39+vWL/Q+iknb48GHVq1fPdAwAAAAYkJ6eTrln0NGjR7k0qp8LDw9Xx44d9cILL5iOcl579uxRvXr1inxFmipVqmjnzp0lnMq7HnzwQU2ePFkxMTGmowAoAAUfAAAoNfv27bPd2Xtut7tEP0sBAAAAzjB9+nSNHz/edAy/N3v2bD3xxBOmY8Cg8PBwPfDAA44o+fbt21fkS3Xu3r27hNN4V6dOnfTMM88oOjradBQAZ0HBBwAAAAAAAJ937NgxHT161HQMv5eVlaXMzEzTMWBYWFiYY4qjK6+8UmlpaRf0nMTEREd/tu7999+vqVOnKioqynQUAOdAwQcAAEpFvXr1bHum3MGDB1W7dm3TMQAAAOAlM2fO1OjRo03HwP+ZNm2axo4dazoGDLvzzjs1c+ZM0zHO688//1SNGjUKfXnZ+Ph42/5buDDuvfdezZgxQ2XLljUdBcB5UPABAIBScfjwYdtdnvM0y7Iu+DcwAQAoTXfccYdWr15tOkap2b59uxo2bGg6BvxYdna2srKyTMfA/zl+/DjfDyg0NFRdunTRtGnTTEc5r7S0tEKdkVexYkXbfQ59YbVt21aHDh3SCy+8oMjISNNxABQCBR8AAAAAAIZlZGQoNzfXdIxS43a7deTIEdMxAAA2Exoaqu7du2vq1Kmmo5zXxRdfrPT09LPeHxcXp4MHD3oxUcm588479corr6h8+fKUe4CDUPABAIASd+WVV+qPP/4wHeOc9u/fr8svv9x0DAAAAADwayEhIYqIiDAd47wyMjLOehZfbGys/vzzTy8nKhm333675s6dqzJlypiOAuACUfABAIASd/ToUdt/oLhlWTp69KjpGAAAAChlM2fO1NChQ03HwN9MmjRJTz75pOkYsIn7779fzz33nOkY51W5cmVlZGTkuy02NlaHDh0ylKh4/vnPf+qtt95SeHi46SgAiiDIdAAAAOBMTZs21bp16wq87/jx415OAwAAABTs5MmTOnHihOkY+Bu+L/ir4OBgPfLII3K73erXr5/pOGd17NgxJSQk6MCBA4qMjFSFChUc+/nuKSkpevfddxUWFmY6CoAiouADAABn1aZNGy1atKjA+7Kzs21/lt757Nmzp8BLwVxxxRX69ttvDSQCAAAAAP8UHBysXr16KTc3V4MGDTId56yOHz8uy7IUGxvr2HLv5ptv1vvvv6/Q0FDTUQAUAwUfAAB+rmfPnnr55ZcLvO/kyZNyu91eTuRdBZ1tuG7dugJ/i7FJkyb67LPPvBELAAAAJeCFF17QgAEDTMfAWTz11FMKCwvT8OHDTUeBTQQFBSkkJMR0jPOKi4tTTk6O6RhF0rx5c3388ceOeJ0BnBsFHwAAPm78+PFKTU096/25ubk+X+JdKMuyCvzH2ueff17gbzjeddddeuutt7wRDQAAABcgLy9Pubm5pmPgLPj+oCA9e/ZUTk6OBg8ebDrKWTm13Lvhhhu0aNEiBQcHm44CoAQEmA4AAACK77XXXlNISEiB22OPPaYTJ06cdaPcKzzLsgp8Dd95550CX/vevXubjgwAAAAAjhIYGKj+/fvrqaeeMh3FpzRt2lRLliyh3AN8CAUfAAAOsWTJEgUFBRW4de7cWSdPnixwo8ArfZZlFfjaT58+vcDv15NPPmk6MgAAgM978cUX+YUrBxg1apTGjRtnOgZsJjAwUEOGDNGYMWNMR/EJ1113nZYtW6agIC7oB/gSCj4AAGzkp59+OmuJl5KSory8vAI3Sjx7siyrwO/XyJEjC/wez54923RkAAAAn+F2u/l7sgNYlsX3CQUKCAhQQAD/+7q4kpOTtWLFCgUGBpqOAqCEUdkDMO7666+Xy+UyHaNILMsyHQEOtHv3blWtWrXA+yzL4n3lB04Xf3/38MMP65FHHjnj9vfee0933HGHN6IBAAAAgG0MGzZMubm5GjVqlOkojlS/fn19/fXXFKWAj6LgA2AchQb8Eb+hioKc7b+Hd911V4GPX7FihZo0aVLasQAAAADAiICAAI0cOVK5ubl81MEFuvrqq7V27VrKPcCHMd0AAAA2d7r4+/vWtGlTuVyuM7ZffvnFdGQAAAAAKBEul0tjxozRsGHDTEdxjDp16ui7776j3AN8HBMOAICXJSUleT4PZPPmzabjwAddccUVBRZ/e/fuNR0NAAAAAC7Y6X/T4Pxq166tH3/8kdcL8AMUfPArK1asUOvWrZWUlCSXy6X3338/3/2WZWnkyJFKTExUeHi4WrRoccb/fE9LS1PHjh0VFRWlmJgYde3aVUePHvXiKgD/4asz+9fC5ZJLLvGUfevXrzeaC77v9Cz9fcvMzCzwDMEL5asza3dc5hrFwdwCzsLMAs7CzJasJ598UoMGDTIdw9Zq1qyp9evXU+4BfoKCD37l2LFjqlevnqZPn17g/RMnTtTzzz+vWbNmac2aNSpTpoxatmyp7Oxsz2M6duyoDRs2aMmSJfr444+1YsUK9ejRw1tLAPyKP8zsX0uWK6+80lP2rV271nQ0+JGoqCgFBAScsZ08efKC9uMPM2tH/OMdxcHcAs7CzALOwsyWLJfLpQkTJqhfv36mo9jSZZddpo0bN/LvA8CfWICfkmQtWLDA87Xb7bYSEhKsSZMmeW47cuSIFRoaar355puWZVnWxo0bLUnWN99843nMokWLLJfLZe3evfusx8rOzrbS09M9265duyxJVnp6eskv7AItWrTIksTmwG3QoEGm3z4lKj09/Zxz4Y8z63a7LbfbbS1fvtz4+43NP7cTJ06c9f3JzNrHPffcY/y94oubv/2ctSzvza2/z+zZ3HDDDcbf96W91ahRw/TL7BjMbMmYNWuW8fc9W+G2J5980vTbpViYWe9yu91W7969jb9v7bRdcsklltvtNv2tcYzCzCzgBJzBB/yfbdu2ad++fWrRooXntujoaCUnJ2vVqlWSpFWrVikmJkYNGjTwPKZFixYKCAjQmjVrzrrvcePGKTo62rNVqVKl9BYC+Al/mNnTZ/Y1a9bMc8nERYsWGckCFJc/zCzga0prbplZoHQws/lZXMIaNsfMFh2fx5ffRRddpC1btvCaAH6Igg/4P/v27ZMkxcfH57s9Pj7ec9++fftUsWLFfPcHBQWpfPnynscUZNiwYUpPT/dsu3btKuH0gP/x15lNSUnxlH3vvvuu6TjwIUePHj3jM/iCg4NLbP/+OrOAk5XW3DKzQOlgZvObM2eOHn74YdMxgLNiZovnueee0yOPPGI6hnFVq1bVtm3bTMcAYEiQ6QCAPwgNDVVoaKjpGAAKySkz26ZNG89vJr/66qvq0qWLJH5bGfkV9FucBw4cUGxsrIE0pcMpMwvgFGYWcBanzuyDDz6okydPUvLB7zh1ZotixowZcrvdeuGFF0xHMaJy5crasWOH6RgADOIMPuD/JCQkSJL279+f7/b9+/d77ktISNCBAwfy3Z+bm6u0tDTPYwB4BzObX6dOneR2u+V2uzVjxgwFBAQoICCAS3T4mdPf979uW7du9bw3Tm8myj1mFnAe5hZwFmYWcBZmtmTMmjXL88uu/qRSpUo+e3YmgMKj4AP+z8UXX6yEhAQtXbrUc1tGRobWrFmjRo0aSZIaNWqkI0eO6LvvvvM85vPPP5fb7VZycrLXMwP+jJk9u0ceeUR5eXnKy8vThAkTFBgYqMDAQMo+HxMQEOD53p7evv/+e8/3/vR20UUXmY4qiZkFnIi5BZyFmQWchZktOf72y60JCQn6448/TMcAYANcohN+5ejRo9qyZYvn623btumHH35Q+fLlVbVqVfXt21dPPvmkatSooYsvvlgjRoxQUlKS7rzzTklSrVq1lJKSou7du2vWrFk6efKkevXqpfbt2yspKcnQqgDfxcwW36BBgzRo0CBJ0qhRozR27FjPfXl5eVzO0yFOn433V8uWLVOTJk0MJSoYMws4D3MLOAszCzgLM+sdL730ktxut1555RWf/zdufHy89u7dazoGALuwAD+ybNkyS9IZW6dOnSzLsiy3222NGDHCio+Pt0JDQ63mzZtbmzZtyrePQ4cOWR06dLAiIyOtqKgoq0uXLlZmZuYF5UhPT7ckWenp6SW1tCJbtGhRga8Jm/23QYMGmX77lKiC5oKZLV19+/a1goODreDgYMvlchl/T7PJCggI8HxP/rp98MEHpt8uZ2Bm7eOee+4x/t71xc0ffs5alj3m1t9m9mxuuOEG4+/70t5q1Khh+mV2DGa2ZMyaNcv4+56tcNuTTz5p+u1SLMysPdx///0+/W/bihUrmn6JfYY/zQV8m8uyfPzXGgAbysjIUHR0tNLT0xUVFWU0y6effqpWrVoZzYCiGTRokCZOnGg6Romx01z8nZ2zlZQePXro1VdflXTqMx3cbrfhRL7v9GU1/2r69Onq1q2boUQXxs5zYedspaFdu3Z65513TMfwOfyc9R47Z/OmG2+8UcuXLzcdo1TVqFFDv/32m+kYjmDnubBztr974YUX9PDDD5uOgUJ48skn9dhjj5mOUWR2ngs7ZysNvvp347i4uDM+jxFF529zAd/FZ/ABAADNnj1bOTk5ysnJUYcOHRQaGqrQ0NAzLguJogkMDPS8pqe3sWPHel7z05tTyj0AAAAAsKPg4GCf+3cs5R6As/Gt/9oBAIBie/3115Wdna3s7GzdeeedCg8PV3h4uM/9I6m0BAYGel6z01v//v09r+npbciQIaajAgAAAIBPef3119WuXTuf+fdrbGws5R6AswoyHQAAANjX/PnzPX++9dZb9cUXX0iSsrOzuYyn/v+ZeX/VsWNHzZ4921AiAAAAAPBvc+fOVV5enubPn6+8vDzTcYqMM/cAnA8FHwAAKJSFCxd6/nzTTTfpm2++kSRlZWX5RdkXEBCgiIiIfLelpKRo3rx5hhIBAADgXIKDgxUaGqqcnBzTUXAOISEhCgkJMR0DPubtt9/Wbbfdpk8++cR0lCIJDw+n3ANwXhR8AADggn3++eeeP1933XXasGGDJOno0aM+UfYFBAQoMjIy323XXnutFi9ebCgRAAAALtSDDz6o7Oxs9ezZ03QUnMNjjz2mQYMGmY4BHxQREaHAwEBHn8UHAOdCwQcAAIrl66+/9vy5QYMG2rJliyQpIyNDlmWZilVoLpdLUVFR+W6rVauWVq1aZSgRAAAAAKC43nnnHbVt21YffPCBcnNzTccBgBJHwQcAAErMt99+6/lz3bp19ccff0iSjhw5Ytuyr3Llytq5c6fpGAAAACgFYWFhioiIUFZWlukoKEBYWJjCw8NNx4APe/fdd9WiRQstXbrUdBQAKHEUfACMi46OVnBwsOkYReJ2u5WWlmY6BmBLP/30k+fP8fHxfH4AAAAAvO7BBx/U0aNH1adPH9NRUIBBgwZxeU4AAIqIgg+AcR9//LGaNGliOkaRpKWlqUKFCqZjACiigIAAxcbGmo4BAAAAAAAAXJAA0wEAAIDvq1ixolwul+kYZ0hISNC6detMxwAAAEApioiIUNmyZU3HwN+UKVNGkZGRpmMAAOBYFHwAAKDUrV+/XuXLlzcdAwAAAH6oW7duGj16tOkY+Js+ffpo8ODBpmMAAOBYFHwAAAAAABgWHx+v0NBQ0zFKTVBQkJKSkkzHAAAAAHwGBR8AAPCKqlWrKiDAPn/1CAwMVJUqVUzHAABAkvTWW2/pmmuuMR2j1FStWlXLly83HQMAAADwGfb5v2wAAMCnrVu3TtHR0aZjeMTFxWn16tWmYwAA4GHHz6sFfEV0dDSXjLeRmJgYvh8AABQTBR8AAAAAADZgWZbpCIDPevDBBzVkyBDTMfB/unfvrgEDBpiOAQCAo1HwAQAAr7nssstsdZlOAAAA+I/y5csrNjbWdAy/V65cOVWsWNF0DAAAHI//wwYAALxm9erVKlu2rOkYCgwMVM2aNU3HAAAAgBd169ZNffv2NR3D73Xq1EkDBw40HQMAAMej4AMAAH6nQoUKWrZsmekYAAAA8LL4+HglJCSYjuG3YmNjValSJdMxAADwCRR8AADAq+rVq8dlOgEAAGBEt27dNGbMGEo+A2JjYzV48GDO3gMAoITwf9cAAIBXffHFF4qMjDQdAwAAAH6qe/fu6t69u+kYfufuu+/WoEGDTMcAAMBnUPABAAC/EhQUpPr165uOAQDAGWrXrm2Lz6otaSEhIbrqqqtMxwDyqVy5spKSkkzH8BsVK1bUxRdfbDoGAAA+hYIPAAB43bXXXmvsMp3R0dFauHChkWMDAHAus2bNUt26dU3HKHGJiYmaP3++6RhAPj169FDnzp1Nx/Abd955J2fvAQBQwij4AACA1y1evFgRERGmYwAAAMCPXXTRRapcubLpGD4vPj5eNWrUMB0DAACfQ8EHAAAAAAAAv9O9e3d16NDBdAyfd+utt2rgwIGmYwAA4HMo+AAAgBHNmzf3+mU6g4KCdOONN3r1mAAAALCvyy67TNWqVTMdw2clJSXpyiuvNB0DAACfRMEHAACMeP/99xUWFubVY5YtW1bz5s3z6jEBALgQycnJio6ONh2jxISFhalZs2amYwBn1a1bNw0bNkxVq1Y1HcXnJCYmql+/furfv7/pKAAA+CQKPgAAAAAAbGLy5MmqWbOm6RglJi4uTq+++qrpGMA5PfTQQ3rsscc4k68EJSYmqn///lyaEwCAUkTBBwAAjLntttu8fplOAAAA4O969OihoUOHUvKVgNNn7lHuAQBQuvg/agAAwJi3335boaGhXjlWcHCwbr/9dq8cCwAAAM7z8MMPa9iwYZR8xXD6zL1BgwaZjgIAgM+j4AMAAH4hIiJCr7zyiukYAAAAsLGHHnpIN910k+kYjnXNNddw5h4AAF5CwQcAAIxq164dl+kEAOAvWrZsqfLly5uOUWzh4eG68847TccALti1116riy++2HQMx0lKSlKzZs1MxwAAwG/wf9MAAIBRc+bMUXBwsOkYAADYxujRo1W9enXTMYqtXLlyev75503HAC5Yjx49NGzYMEq+C5CUlKSBAweqf//+pqMAAOA3gkwHAAAAKG3BwcG67777TMcAAACAQ3Tv3l2WZWn16tX6/PPPtWPHDtORbCkxMVEpKSmqU6eO+vXrZzoOAAB+hTP4AACAcV27di3Vy3SGh4dr2rRppbZ/AAAA+J4ePXroP//5j4YNG6Zq1aqZjmM7iYmJGjRokP7zn/9Q7gEAYAAFHwAAMG769OkKCuLCAgAAALCfhx56SEOHDqXk+4uEhAQNHDiQYg8AAIMo+AAAAAAAsJl27dopLi7OdIwii4iIUNeuXU3HAErMww8/rOHDh6tq1aqmoxiXkJCgIUOG8Hl7AAAYRsEHAABsoU+fPqVymc7g4GD16tWrxPcLAEBpGjhwoCpXrmw6RpFFRUVpzJgxpmMAJapHjx56/PHH/brki4+P17Bhw9S3b1/TUQAA8HtcCwsAANjCxIkT9eyzz8rtdpfofkNDQzV27NgS3ScAAAD8U/fu3SVJmzdv1ptvvqk//vjDcCLviIuLU+fOnVW5cmX9+9//Nh0HAACIM/jgZ1asWKHWrVsrKSlJLpdL77//fr77O3fuLJfLlW9LSUnJ95i0tDR17NhRUVFRiomJUdeuXXX06FEvrgLwH8ws4CzMLOA8zK29Pfjgg6pYsaLpGBcsIiJCffr0MR3DJzGz9tC9e3dNnDhRI0aM0PDhw5WUlGQ6UqmpUKGChg8frhEjRmjixImUexeImQUAlCYKPviVY8eOqV69epo+ffpZH5OSkqK9e/d6tjfffDPf/R07dtSGDRu0ZMkSffzxx1qxYoV69OhR2tEBv8TM+p/hw4eXymU64R3MLOA8zK299erVS/Hx8aZjXLDIyEgNHTrUdAyfxMzaS48ePTR27FilpqYqMTHRdJwSV758eY0cOVJjx45V7969TcdxJGYWAFCauEQn/EqrVq3UqlWrcz4mNDRUCQkJBd73yy+/6NNPP9U333yjBg0aSJKmTp2qW2+9VU8//bRP/9YeYAIz639GjRqlsWPHlthlOoODg/XYY4+VyL5wfsws4DzMLeAszKw99ejRQwEBAdqzZ49mzJih/fv3m45ULDExMerXr58qVKignj17mo7jaMwsAKA08SvywN8sX75cFStW1OWXX65HHnlEhw4d8ty3atUqxcTEeP5SJUktWrRQQECA1qxZc9Z95uTkKCMjI98GoGQwsziX4OBgziCwGWYWcJ6SnltmFihdzKwZ3bp185zt9tRTTykuLs50pAsWFRWlp556SmPHjtXIkSMp97yEmQUAFBUFH/AXKSkp+u9//6ulS5dqwoQJ+uKLL9SqVSvl5eVJkvbt23fGZ2AEBQWpfPny2rdv31n3O27cOEVHR3u2KlWqlOo6AH/BzPqmcePGyeVymY6BUsDMAs5TGnPLzF6Yfv36OeoynRERERoxYoTpGH6LmTWva9euGjZsmJ566ilNmDBB5cuXNx3pvMqUKaMJEyZo3LhxGjZsmB599FHTkfwGMwsAKA4u0Qn8Rfv27T1/rlOnjurWratLLrlEy5cvV/PmzYu832HDhql///6erzMyMvgLFlACmFnfNHDgQA0dOtTzj1r4DmYWcJ7SmFtm9sJ06dJFkydPdswl/8LDw9WrVy/TMfwWM2sf3bp1kyTFxsYqPT1d0qnL0dvlbKqwsDA99dRTkk7N7cMPP2w4kX9iZgEAxUHBB5xD9erVFRsbqy1btqh58+ZKSEjQgQMH8j0mNzdXaWlpZ71eunTqeuqhoaGlHRfwe8ws/io4OFiTJk0yHQPnwMwCzlMSc8vMAt7DzJr34IMPev4cFRWlY8eOeb4eNmyYsrKyvJIjODhYTz/9tOfrkJAQSj0bYmYBABeCgg84hz/++EOHDh1SYmKiJKlRo0Y6cuSIvvvuO9WvX1+S9Pnnn8vtdis5OdlkVABiZn3J1KlT1bNnT1mWVeR9BAUFcXkhm2NmAedhbs14/PHH1bdvX9ufxRcREaGJEyeajoG/YGbtpWvXrvm+joyMVHZ2tiSpf//+ysnJKdHjBQQEaOrUqZJO/d24R48eJbp/lDxmFgBwISj44FeOHj2qLVu2eL7etm2bfvjhB5UvX17ly5fX6NGj1aZNGyUkJOj333/X4MGDdemll6ply5aSpFq1aiklJUXdu3fXrFmzdPLkSfXq1Uvt27dXUlKSqWUBPouZ9V+PPPKIevXqVayCD97HzALOw9w6Q/v27TV69GjbF3yhoaH5zlZCyWNmfctf5yU8PFy5ubkluv+AgIAzSkV4FzMLAChVFuBHli1bZkk6Y+vUqZOVlZVl3XLLLVZcXJwVHBxsVatWzerevbu1b9++fPs4dOiQ1aFDBysyMtKKioqyunTpYmVmZl5QjvT0dEuSlZ6eXpLLK5JFixYV+Jp4c1u5cqXpl6HIDh06ZOx1GzRokOnll6iC5oKZ9W8BAQHFmpHw8HDTS/BpzKx93HPPPcZ/lvvi5g8/Zy3LHnPrbzNbVO+++64VHx9vfDbOtZUrV870y+QzmFnAWZhZe2vevLnxn5EXuvHv2dLFXMBXcAYf/MoNN9xwzrNBFi9efN59lC9fXnPnzi3JWADOgpn1b6+88oo6depUpLP4goKC9OKLL5ZCKpwLMws4D3PrHG3atNGwYcNsexZfeHi4Zs6caTqGz2NmAWdhZgEApSnAdAAAAICC3H///UV+bmBgoDp27FiCaQAAwLmEhISoXbt2pmMAAAAAfoOCDwAAAAAAB3j22WcVHx9vOsYZwsPDNWfOHNMxAAAAAL9CwQcAAGxr3rx5piMAAGAbt956q8qUKWM6xhmCg4N11113mY4BAAAA+BUKPgAAYFtt2rS54OcEBQVRDAIAfNasWbMUFxdnOoZHWFgYnw0FAAAAGEDBBwAAfEpAQIBat25tOgYAAKXi5ptvVkREhOkYHkFBQfrnP/9pOgYAAADgdyj4AACArS1atMh0BAAAbOXVV1+1xVl8oaGheu+990zHAAAAAPwSBR8AALC1lJQU0xEAALCVZs2aKSwszHQMBQYG6uabbzYdAwAAAPBLFHwAAMBnBAYGavHixaZjAABQ6t566y1VqFDB2PFDQkK0cOFCY8cHAAAA/B0FHwAAsL0VK1YU6nEBAQG64YYbSjcMAAA2cN111yk0NNTY8QMDA9WsWTNjxwcAAAD8HQUfAACwvaZNm5qOAACA7bz//vtGzuILDg7W0qVLvX5cAAAAAP8fBR8AAAAAAA50zTXXaPHixSpXrpzXjhkUFKSVK1eqUaNGXjsmAAAAgDNR8AEAAEdYu3btOe8PDAzU119/7aU0AADYQ/369RUcHOy14wUEBCg5OdlrxwMAAABQsCDTAQAAAAqjQYMG57zf5XKd9zEAAPiiJUuW6Prrr1d6enqpHicoKEirV68u1WMAAFDSZs6cqczMTNMxLkhAAOflADg/Cj4AAADAwSZOnKjHHnvMdAyfExcXZzoCUGh169bVV199peuuu04ZGRmlcozAwEB99913qlu3bqnsHwCA0lKjRg3TEQCgVFDwAUAxREVFaf369UaOHRsba+S4gCkul0vr169XnTp1TEcBbKVatWqmIwCwgdq1ayswMLDU9u9yuSj3AAAAABuh4AP8XJMmTbRx40ajGZz8PyaDgoJ05ZVXmo4B+I3atWsXeHtAQICxsh0AALtYvXq18vLydM011+jYsWMlsk+Xy6UNGzbI5XKVyP4AAAAAlAwKPsDPRUZGqlatWqZjAECxuFwu1axZ03QMAACMuuyyyyRJP/74o+rWrausrKxi7c/lcmnTpk1c2gwAAACwIT6tEwAAOMrmzZtNRwAAwNYuueQSrV+/XuHh4cXaz+bNmyn3AAAAAJui4AMAAI7hcrl0ySWXmI4BAIDtVa9eXb/88otCQ0OL9Pxt27bxMxcAAACwMS7RCQAAHM3lcmnr1q2mYwAAYDvVqlXT5s2bZVmWpFNn9uXm5p718Tt27PD8uWrVqqWeDwAAAEDRUfABAADH2bVrl6pUqSLpVMHH/4QEAKBgp39eStL27dvP+dikpCS5XK5STgQAAACgJFDwAQAAR3G5XKpUqZLpGAAAOA4/PwEAAADfwWfwAQAAx3K5XNq7d6/pGAAAAAAAAIBXcQYfAABwpIMHD0qSYmNjDScBAAAAAAAAvIuCDwAAOI7L5aLYAwAAAAAAgN/iEp0AAAAAAAAAAACAg1DwAQAAAAAAAAAAAA5CwQcAAAAAAAAAAAA4CAUfAAAAAAAAAAAA4CAUfAAAAAAAAAAAAICDUPABAAAAAAAAAAAADkLBBwAAAAAAAAAAADgIBR8AAAAAAAAAAADgIBR8AAAAAAAAAAAAgINQ8AEAAAAAAAAAAAAOQsEHAAAAAAAAAAAAOAgFHwAAAAAAAAAAAOAgFHwAAAAAAAAAAACAg1DwAQAAAAAAAAAAAA5CwQcAAAAAAAAAAAA4SJDpAIA/sixLkpSRkWE4CWAfp+fh9HzYCTMLnImZBZyFmQWchZkFnIWZBZzFzjMLXAgKPsCAQ4cOSZKqVKliOAlgP5mZmYqOjjYdI5/MzExJzCxQEGYWcBZmFnAWZhZwFmYWcBY7zixwIVwWNTXgdUeOHFG5cuW0c+dOR/8QycjIUJUqVbRr1y5FRUWZjlMkvrAGyTfWYVmWMjMzlZSUpIAAe11B2u12a9OmTbriiisc/Rr7wvvEF9Yg+cY6mNnS5wvvE19Yg+Qb62BmS58vvE98YQ2Sb6yDmS19vvA+8YU1SL6xDma29PnC+8QX1iD5xjrsPLPAheAMPsCA0z84oqOjHfuD8K+ioqIcvw5fWIPk/HXYtfAOCAhQpUqVJDn/NZZYg504fR3MrHewBvtw+jqYWe9gDfbh9HUws97BGuzD6etgZr2DNdiH09dh15kFLgT1NAAAAAAAAAAAAOAgFHwAAAAAAAAAAACAg1DwAQaEhoYqNTVVoaGhpqMUiy+swxfWIPnOOuzMF15j1mAfvrIOO/OF15g12IevrMPOfOE1Zg324SvrsDNfeI1Zg334yjrszBdeY9ZgH76yDsAXuCzLskyHAAAAAAAAAAAAAFA4nMEHAAAAAAAAAAAAOAgFHwAAAAAAAAAAAOAgFHwAAAAAAAAAAACAg1DwAQAAAAAAAAAAAA5CwQcAAAAAAAAAAAA4CAUfYMD06dN10UUXKSwsTMnJyVq7dq3pSGc1atQouVyufFvNmjU992dnZ6tnz56qUKGCIiMj1aZNG+3fv99g4lNWrFih1q1bKykpSS6XS++//36++y3L0siRI5WYmKjw8HC1aNFCmzdvzveYtLQ0dezYUVFRUYqJiVHXrl119OhR26yhc+fOZ3xvUlJSbLUGX8HMlj5m1h5r8BXMbOljZu2xBl/BzJY+ZtYea/AVzGzpY2btsQZfwcyWPmbWHmsA/BEFH+Blb7/9tvr376/U1FStW7dO9erVU8uWLXXgwAHT0c6qdu3a2rt3r2f78ssvPff169dPH330kebNm6cvvvhCe/bs0b/+9S+DaU85duyY6tWrp+nTpxd4/8SJE/X8889r1qxZWrNmjcqUKaOWLVsqOzvb85iOHTtqw4YNWrJkiT7++GOtWLFCPXr08NYSzrsGSUpJScn3vXnzzTfz3W96Db6AmfUOZvYU02vwBcysdzCzp5hegy9gZr2DmT3F9Bp8ATPrHczsKabX4AuYWe9gZk8xvQbAL1kAvKphw4ZWz549PV/n5eVZSUlJ1rhx4wymOrvU1FSrXr16Bd535MgRKzg42Jo3b57ntl9++cWSZK1atcpLCc9PkrVgwQLP126320pISLAmTZrkue3IkSNWaGio9eabb1qWZVkbN260JFnffPON5zGLFi2yXC6XtXv3bq9lP+3va7Asy+rUqZN1xx13nPU5dluDUzGz3sfM2mMNTsXMeh8za481OBUz633MrD3W4FTMrPcxs/ZYg1Mxs97HzNpjDYC/4Aw+wItOnDih7777Ti1atPDcFhAQoBYtWmjVqlUGk53b5s2blZSUpOrVq6tjx47auXOnJOm7777TyZMn862nZs2aqlq1qq3Xs23bNu3bty9f7ujoaCUnJ3tyr1q1SjExMWrQoIHnMS1atFBAQIDWrFnj9cxns3z5clWsWFGXX365HnnkER06dMhzn1PWYGfMrD0ws/Zag50xs/bAzNprDXbGzNoDM2uvNdgZM2sPzKy91mBnzKw9MLP2WgPgayj4AC/6888/lZeXp/j4+Hy3x8fHa9++fYZSnVtycrJeeeUVffrpp5o5c6a2bdumpk2bKjMzU/v27VNISIhiYmLyPcfO65HkyXau78O+fftUsWLFfPcHBQWpfPnytllbSkqK/vvf/2rp0qWaMGGCvvjiC7Vq1Up5eXmSnLEGu2Nm7YGZtc8a7I6ZtQdm1j5rsDtm1h6YWfuswe6YWXtgZu2zBrtjZu2BmbXPGgBfFGQ6AAB7a9WqlefPdevWVXJysqpVq6Z33nlH4eHhBpOhffv2nj/XqVNHdevW1SWXXKLly5erefPmBpPBJGbWvphZFISZtS9mFgVhZu2LmUVBmFn7YmZREGbWvphZwJ44gw/wotjYWAUGBmr//v35bt+/f78SEhIMpbowMTExuuyyy7RlyxYlJCToxIkTOnLkSL7H2H09p7Od6/uQkJBwxodO5+bmKi0tzbZrq169umJjY7VlyxZJzlyD3TCz9sDM2ncNdsPM2gMza9812A0zaw/MrH3XYDfMrD0ws/Zdg90ws/bAzNp3DYAvoOADvCgkJET169fX0qVLPbe53W4tXbpUjRo1Mpis8I4eParff/9diYmJql+/voKDg/OtZ9OmTdq5c6et13PxxRcrISEhX+6MjAytWbPGk7tRo0Y6cuSIvvvuO89jPv/8c7ndbiUnJ3s9c2H88ccfOnTokBITEyU5cw12w8zaAzNr3zXYDTNrD8ysfddgN8ysPTCz9l2D3TCz9sDM2ncNdsPM2gMza981AD7BAuBVb731lhUaGmq98sor1saNG60ePXpYMTEx1r59+0xHK9CAAQOs5cuXW9u2bbO++uorq0WLFlZsbKx14MABy7Is6+GHH7aqVq1qff7559a3335rNWrUyGrUqJHh1JaVmZlpff/999b3339vSbKmTJliff/999aOHTssy7Ks8ePHWzExMdYHH3xg/fTTT9Ydd9xhXXzxxdbx48c9+0hJSbGuvvpqa82aNdaXX35p1ahRw+rQoYMt1pCZmWkNHDjQWrVqlbVt2zbrs88+s/7xj39YNWrUsLKzs22zBl/AzHoHM2uPNfgCZtY7mFl7rMEXMLPewczaYw2+gJn1DmbWHmvwBcysdzCz9lgD4I8o+AADpk6dalWtWtUKCQmxGjZsaK1evdp0pLNq166dlZiYaIWEhFiVKlWy2rVrZ23ZssVz//Hjx61HH33UKleunBUREWHddddd1t69ew0mPmXZsmWWpDO2Tp06WZZlWW632xoxYoQVHx9vhYaGWs2bN7c2bdqUbx+HDh2yOnToYEVGRlpRUVFWly5drMzMTFusISsry7rlllusuLg4Kzg42KpWrZrVvXv3M/6SbnoNvoKZLX3MrD3W4CuY2dLHzNpjDb6CmS19zKw91uArmNnSx8zaYw2+gpktfcysPdYA+COXZVlW0c//AwAAAAAAAAAAAOBNfAYfAAAAAAAAAAAA4CAUfAAAAAAAAAAAAICDUPABAAAAAAAAAAAADkLBBwAAAAAAAAAAADgIBR8AAAAAAAAAAADgIBR8AAAAAAAAAAAAgINQ8AEAAAAAAAAAAAAOQsEHAAAAAAAAAAAAOAgFHwAAAAAAAAAAAOAgFHwAAAAAAAAAAACAg1DwAQAAAAAAAAAAAA5CwQcAAAAAAAAAAAA4CAUfAAAAAAAAAAAA4CAUfAAAAAAAAAAAAICDUPABAAAAAAAAAAAADkLBBwAAAAAAAAAAADgIBR8AAAAAAAAAAADgIBR8AAAAAAAAAAAAgINQ8AEAAAAAAAAAAAAOQsEHAAAAAAAAAAAAOAgFHwAAAAAAAAAAAOAgFHwAAAAAAAAAAACAg1DwAQAAAAAAAAAAAA5CwQcAAAAAAAAAAAA4CAUfAAAAAAAAAAAA4CAUfAAAAAAAAAAAAICDUPABAAAAAAAAAAAADkLBBwAAAAAAAAAAADgIBR8AAAAAAAAAAADgIBR8AAAAAAAAAAAAgINQ8AEAAAAAAAAAAAAOQsEHAAAAAAAAAAAAOAgFHwAAAAAAAAAAAOAgFHwAAAAAAAAAAACAg1DwAQAAAAAAAAAAAA5CwQcAAAAAAAAAAAA4CAUfAAAAAAAAAAAA4CAUfAAAAAAAAAAAAICDUPABAAAAAAAAAAAADkLBBwAAAAAAAAAAADgIBR8AAAAAAAAAAADgIBR8AAAAAAAAAAAAgINQ8AEAAAAAAAAAAAAOQsEHAAAAAAAAAAAAOAgFHwAAAAAAAAAAAOAgFHwAAAAAAAAAAACAg1DwAQAAAAAAAAAAAA5CwQcAAAAAAAAAAAA4CAUfAAAAAAAAAAAA4CAUfAAAAAAAAAAAAICDUPABAAAAAAAAAAAADkLBBwAAAAAAAAAAADgIBR8AAAAAAAAAAADgIBR8AAAAAAAAAAAAgINQ8AEAAAAAAAAAAAAOQsEHAAAAAAAAAAAAOAgFHwAAAAAAAAAAAOAgFHwAAAAAAAAAAACAg1DwAQAAAAAAAAAAAA5CwQcAAAAAAAAAAAA4CAUfAAAAAAAAAAAA4CAUfAAAAAAAAAAAAICDUPABAAAAAAAAAAAADkLBBwAAAAAAAAAAADgIBR8AAAAAAAAAAADgIBR8AAAAAAAAAAAAgINQ8AEAAAAAAAAAAAAOQsEHAAAAAAAAAAAAOAgFHwAAAAAAAAAAAOAgFHwAAAAAAAAAAACAg1DwAQAAAAAAAAAAAA5CwQcAAAAAAAAAAAA4CAUfAAAAAAAAAAAA4CAUfAAAAAAAAAAAAICDUPABAAAAAAAAAAAADkLBBwAAAAAAAAAAADgIBR8AAAAAAAAAAADgIBR8AAAAAAAAAAAAgINQ8AEAAAAAAAAAAAAOQsEHAAAAAAAAAAAAOAgFHwAAAAAAAAAAAOAgFHwAAAAAAAAAAACAg1DwAQAAAAAAAAAAAA5CwQcAAAAAAAAAAAA4CAUfAAAAAAAAAAAA4CAUfAAAAAAAAAAAAICDUPABAAAAAAAAAAAADkLBBwAAAAAAAAAAADgIBR8AAAAAAAAAAADgIBR8AAAAAAAAAAAAgINQ8AEAAAAAAAAAAAAOQsEHAAAAAAAAAAAAOAgFHwAAAAAAAAAAAOAgFHwAAAAAAAAAAACAg/w/v41hPsNcrJ4AAAAASUVORK5CYII=;" vertex="1" parent="RVkiUUmXxSvIBv53PdkQ-1">
          <mxGeometry x="50" y="90" width="1484" height="361.02" as="geometry" />
        </mxCell>
        <mxCell id="xo6WSdMoPao4BwD4sp3l-1" value="" style="shape=image;verticalLabelPosition=bottom;labelBackgroundColor=#ffffff;verticalAlign=top;aspect=fixed;imageAspect=0;image=data:image/png,iVBORw0KGgoAAAANSUhEUgAAAysAAAMYCAIAAABE2+8IAAAACXBIWXMAAA7EAAAOxAGVKw4bAAAgAElEQVR4nOzdZ1wU19oA8JmdLfRepDelCooFFVGR2MAuothii6BGNEGNGI3GRrCgxt5FY2+x90ISFTVW7FIFpPcibJmZ98Pel8tFgdndmdldeP4f8gu7s2eeM8edefbMmXNQkiQRAAAAAADAIo6yAwAAAAAAaHEgAwMAAAAAYBtkYAAAAAAAbIMMDAAAAACAbZCBAQAAAACwDTIwAAAAAAC2QQYGAAAAAMA2yMAAAAAAANgGGRgAAAAAANsgAwMAAAAAYBtkYAAAAAAAbGs+Gdjjx49Xrlwp00fS0tK8vLwKCgqa3PLUqVM9e/YUi8XyRgdo8/PPP8v6kfnz548fP57Klm3atLl69arsQQH6QUO3EMw1dFlZmbOz89OnT+WKC9Dp0qVLJ06ckOkjL168cHV1LS0tbXLLefPmffvtt/KGpkxcZQegkI0bN+I47uLikpyc3LVr1+rqapk+fu3atVWrVpmamt67dy8pKamwsFAgEEREREjfjYqK6tChw6FDh44ePTpy5Miqqqqamhoej8dAPUBjXr16tWrVqpCQkLy8vF69esnaygiCiMXiQ4cO4Th+6dIlDodz8+bNjRs3St+6e/fu6dOnraysunbt6ufnd/v27fHjxw8YMIDuSoCm0dXQCILExsZeunRp165drVu3lr4FDa066GpoiUTi4OCwbds2IyOj7t27S9+6cuXKP//8w+fzR4wY4eXlde7cuY0bN+7cuZPuSoCmzZs3z97e3sbGJjU11cHBQSQSyfTxnTt3Hj161MDAoLy8PDIycuDAgdbW1p07d5a+O2fOnE6dOh05cuT8+fPr1q375ZdfGKgB49Q4A8vNzb169WrtD9kHDx5I/2fFihUFBQV+fn6DBw/+5ZdfjIyM+vfvn5SUlJSUhCBI3XbKy8tr164dgiDdu3fv3r17SkrKDz/8IM3AysrK3r17FxMT8+nTp+fPn3fv3t3c3Dw3N1dXV5fterZ469evX716ta2tbd0Xly9fjmFYbm7u5s2bZ8yYYWVlZWlp2bdv319++cXFxWXYsGFubm7SLauqqjAMQxAEw7AhQ4asWLHiw4cPteWcO3du+fLlPB5v9uzZfn5+2traBQUFJEmiKMpmHQFCX0MjCDJ37txPnz7VLQcaWnXQ2NAIgiQlJfXu3bv2z6tXr8bGxopEopUrV3p5eeno6NT7lwDYkZKSIhAIZs2aJf3z7NmzCILk5OTs27cvNTV14sSJ+vr6R48e1dPTGzdu3Llz5yorK8Vi8dKlS2tLyMrKkl5wr1692r1798zMTF9fX+lb+fn5Ojo6EyZMePHiRW5uro2Njba2dlFRkbGxMesVVYga34XMzc01NTX98vVBgwYNGzbswIEDBEFoaGgEBAR4eHgUFBQ4OzuHhobWbnby5Mlbt255e3tL/xSLxTt27Fi/fr30z/Lycn19fQRBbGxsqqqqEARp167dmDFj3r59y3jFwP+qqKiod7JGEGTixIn+/v6lpaUVFRWfPn3y9PTs379/TU0NhmH+/v729va1W4aEhHTs2LH2z6ioqNGjR0skEumfQqFQV1eXw+EUFxcjCGJgYODu7r5w4ULGawW+QG9D1wMNrTroamgMw+Lj48PDw2NjYwmCkL5LkiSXy61taAsLi6qqqg0bNrBUN/D/UlJSbGxs6r1obGzcr1+/0NDQS5cuff782cjIqF+/fpaWlmVlZR4eHpMmTardcvv27eXl5XZ2dgiCPH36tKioaOjQoUuWLJG+W1BQYGBggCCInZ2dtGvNx8cnODi4pqaGndrRRY0zMFdX148fP9Z78fjx49JMWSwWa2trr1y5srS0dNGiRREREaNHj16wYIG0JwxBkJCQkODg4Nqes9mzZw8fPrxNmzbSP1u1apWfn48gyIsXL6Rp9YMHD27fvl37OwywxsrKKiEhoe4rJSUlw4YN69Chg7W1dVVV1fnz5wcOHDh16tQ2bdrs3bvXwMBg06ZNtRtfvnz52bNntX/yeLyysrKUlBTpnwYGBjk5ORKJRHqKLywsTEtLi4mJYaNi4H/R29D1QEOrDroaGkVRJycnbW1tV1fXz58/S9/FMKympqa2oTMyMqysrH788Uf2qgcQBEEQX1/fL0fgbd68WVNTs1u3bjU1Nd26dfvpp5/evXt39uzZX375JSgoqHfv3oWFhdItZ8yYYWdnl5ycjCBIu3btRowYYWdnVzsKyMnJKTs7G0GQJ0+eaGlpIQhy7969+Ph4DQ0N9mpIBzXOwDQ0NDZs2BAYGBgQELB9+3bpi35+fmvXro2KikIQpLS0tHfv3uvWrQsJCVm3bp2vr6++vr40p5bicrnSwfUHDx48d+7cvHnzJk6ciCBIVFQUj8ebPHly165dSZJs3749giAwDF9ZVq5cefbs2W7duo0fP156Q0FHR8fR0XHw4MGvXr0iCCI0NNTf37979+7v378PCAiYOXNmQEBA3RJIkkQQ5PPnzyEhIT169MjLy3N2dt67d29SUtL3338/derUwYMH//DDDwiCEAQhEAiUUk1AV0MjCDJp0qRDhw4NHjy4oKAAGlrV0PiNHj58eM+ePTU0NHR0dFatWpWRkfHDDz8MGjQoODh46tSpCDS08ujo6AwdOrRv3779+/c/ffq09MVu3bqFhYVJh+E+ePDAz8/vjz/+6Nix44IFC3r16jVw4EBDQ8PaEgQCAY7jCIIMHTp0wYIFAQEBwcHBxcXFs2bN0tDQcHBw6Natm7e3d6tWrZA63331gqpp3LRISEjYvHnzrl27dHR0Gt/y2bNna9eu3bdvn9ql2ABBkNmzZ3fo0KFuF3cjW9rb20dGRjIfFKAfNHQLQbGhq6urIyMjAwICQkJCWIkL0OnMmTNXr17duHGjtJer8S0vX768Z88edgKjUYvOwAAAAAAAlIOUkbLjBf9D1uajKD4+Xtk1A//l4uICDd0SMNTK0NCqhrmGVnbNwH/5+/s32V5qPA4MgBbCwsJC2SEAAACgGWRgAAAAAABsgwwMAAAAAIBtkIEBAAAAALANMjAAAAAAALZBBgYAAAAAwDbIwAAAAAAA2AYZGAAAAAAA2yADAwAAAABgG2RgAAAAAABsgwwMAAAAAIBtkIEBAAAAALANMjAAAAAAALZBBgYAAKDlQlFU2SGAFoqr7AAAAAAAthkaGvr4+BgaGnbq1InL5b548eLhw4fv3r3z9/e/ffu2sqMDLQJkYAAAAFoEDMM6d+7cqlWrwMDAwYMHa2pqCgQCHo+HoqhYLBaLxYWFhSKR6NSpU69evUpNTc3JycnLyxOJRMoOHDRPkIEBAABo5lAU7dy5s729/a+//mpiYmJqalpvAwzDNDQ0dHV1EQRZtGiRSCRKT09PS0vbtWvX1atXq6urSZJURuBAURiGWVlZ4TheUlLy+fNnZYfzPyADAwAA0GyhKMrlctu2bXvx4sUvE6+G8Pl8Z2dnZ2fnHj16PHjwYPLkyZmZmZCEqSNzc/OtW7eWl5f/8MMPqpaBwUh8AAAAzVZMTExiYuLdu3epp191aWlpBQQE/P3332vXroUx+2rH2Nh49uzZgYGBpqamKng3GTIwAAAAzZCNjc2mTZvmzJnj4uKipaWlSFF2dnbTp0+/d++eq6srhmF0RQiYNmrUqEmTJnE4HKFQiOO4ssOpDzIwAAAAzU3Hjh03btwYEREhEAho6bvS1tbu0qXLgQMHOnXqxOHApVMNuLm5jRs3zszMjCRJsVisghkYjAMDAADQfKAo2rZt21OnTtnb28tdiHTIV73UjcPh+Pj4PHjwwNvb+/3799XV1QqGCpiDYdiqVau6dOmCoihJkiKRSCKRKDuo+iCRBwAA0ExoaWn9/PPPjx8/trOzY24vCQkJq1evZq58oCBNTc1p06b16dOHy/1PN5NIJFLBPjDIwAAAADQHrq6umzZtWrx4MZ/PV/DOI4qijZSgoaExderUMWPGwNh81eTl5bVs2TIdHZ3aV8RisQo+ygp3IQEAAKg9Ozu77du3+/r68vl8uQshSZJiUqWlpbVq1So3N7c1a9ZUVlbKvUdAOwzDpk+fbmZmVvdFyMAAAAAA+gkEgvT0dMXLkalPy8HBISoqSktLa+HChWKxWPG9A1r069dv4MCBdV8hCEIoFCornkbAXUgAAABqzNTUdM+ePUrZNY/Hmz179qRJk5Syd/AlQ0PDuLi4enO/4TheU1OjrJAaARkYAAAAdeXj43Po0KFRo0YpKwAejxcbG9u9e3dlBQBqcTicsLCwL6fexXFc1WbDl4IMDAAAgFrCMGzv3r19+vRRZOyX4nR1dTdt2qTI5BeAFo6Ojl99PIIgCNWcOgQyMAAAAOpHX19/5cqV7u7uNM6PKvdg7Q4dOuzatave6G/AJgMDg2+//dbDw+PLtyQSSVVVFfshNQkyMAAAAOoERVFnZ+crV6789NNP9E5Pr8jsEgEBAfv379fW1qYxHkDd3Llzp0+fXjsBWF0SiaSiooL9kJoEGRgAAAB14ufnd+7cuS5duqjU6kAYhvXv3z8yMlLZgbREdnZ248aNMzEx+eq7MA4MAAAAUBSXy50xY4arq6tKpV9SGIb98ssv9aZCAExDUTQoKMja2rqhLkzoAwMAAAAUYmFhcfLkydDQUIrbsz8JJ4/H27RpU48ePVjeb0tmbm4+b948Ho/X0AYSiaS0tJTNkCiCDAwA+QkEAmdnZz09PUNDQ2tr6z59+lhbW2toaMBaJepLU1PT2NhYW1vbwMAA2lF18Hi8oUOH3r17d8iQIdTbRSkt6OjouGXLFjc3N/Z33QJxOJyZM2c6ODg0so1YLFbNDAzmxAdANtIl5wwMDHR0dAYMGBAcHJyTk2NqasrhcKysrB4+fPjq1atr165lZWWVlJQoO1hAlY2NjZGRkZ6e3tChQ728vFJSUqytrfft2/fw4cPs7GxlRweQyZMnr1ixwtTUVC3SYk9Pz9jY2KCgIGUH0vw5OzsPHTq08X8VYrG4vLyctZCogwwMANmMGzfOxcWldevWpqam7du319HRwXGcy+WSJMnhcBwcHEQi0dChQxMTEy9cuHD16lVlxwuagKKolZXV/v37nZ2dNTU1DQ0NMQzr27cvSZIBAQEXL17cv3//tWvXEGXc0gJSAoFg3bp1urq6zO2iqKioqKjI3t7+r7/+6tOnj+ILe3fo0MHMzCw/P5+uCMGXOBzOiBEjGu9uJEmypqZGNecDQ0gZKTte8D9kbT6K4uPjlV0zVWRvbz9z5szs7Gwcx5s8hiKRKDs7e86cOY13j1Ph7+8PDc0QAwODs2fP5uTkNN6UR44cmT17NtPBMNTKat3QHA6nd+/eL168YO7gkCQpFot37dqFYZiZmZm1tfX06dM3btx448aNlJSUmpoa+cokCCIlJeWr07TSG3xdrLePkrm5uX369KnxYyKRSO7cucNo+v5VVM7bkIGpN1mbjyL1PV8zZ8KECRcuXCgpKaGSfkkRBFFeXv7nn3+6urrq6+vLvWvIwJiAYZi7u/uVK1coNuiDBw+cnJwYDYmhVlbfhtbQ0IiIiGjyEqu4oqKi+fPn1901l8s1NTV1cnLatGlTXl6eRCKRr+S9e/eam5vXqxe9wdfFYuMoH4ZhFy9eFIvFjR8TkUh0/vx59udpgwys+ZO1+ShS0/M1QzgcjpOTU3JyMvXcq56//vqL+tNbX4IMjAkjR45s8txdz6FDhxp53kpxDLUyqbYNHRgY+PnzZ+YOS6309PSQkJCvxqCtre3r6/vixQuhUChf4fVyOwQyMJq4ubmVlZU1eUxqamoOHTqkqanJcnhUztvwLCQAjTEzMxszZsylS5ccHR3lnn+oR48eixcvNjY2pjc2ILfQ0NBjx45hGCbrp+7cuaMWI8GbAQsLi9jYWHYunCUlJW/evPnqW1VVVffv3x8wYEBkZCSO43IUHhYWpoJTl6k7Ho83efJkKvcWCYKQ5vEsRCUr+GcBQIO0tbVXrFjx+++/Ozs7K3LdRVHU3d1927ZtHTp0gHOx0kVGRh48eBDDMFnbFMMwX1/f7du3a2lpMRQbQBCEw+FMmjTp0aNHCk7okJub+/HjRypbvnv3rvHZCnJycnbv3u3p6fn48WORSCRTGA4ODtevX2e097QFatu27ffff0/lK0wQREVFBUEQLEQlK7gYUAJXzRbI1tb2m2++CQ4ONjY2VrzbA0XRIUOGrF+/vnXr1rSEB+SAomhERMSiRYvkvhyiKDpt2rQlS5bo6OjQGxuoFR0dHRMTY21tLXcJBEHcvHkzMjKS4hwEb9++raysbHwbkUj07t27UaNG3blzR6bOMAzD/Pz8IiMj+Xw+9U+BRmhra0+dOpXiDyGSJCsrK6EPTF05OTm1b9++TZs2dnZ2st62AGpKOgR4zZo1NN461NDQ6N69+7x58+BErCza2tqRkZFGRkaKFMLhcGbPnj1q1Ci6ogJ1OTk5TZgw4cvR6xSRJCmRSK5evTp16tS0tDQDA4O6b331IwRBJCcnV1VVUSk8LS0tKCjo8uXLRUVF1KMSCAQxMTG9evWCW9i06NSpU9++fSluLL0LCX1gasnV1XXPnj379+8/cuTIyZMnJ0yYEBwc3L17d2XHBZg1cODA2bNnu7i40Fssl8sNDg729PSkt1hAUWJiop2dneLlaGpqhoeHK14OqMfPz+/Ro0cWFhZyl1BTUxMTEzNs2LCMjAwXFxdDQ8MmP5Kbm5ueni6RSCjugiCIkSNHLl++XNbYTp482bFjR1k/Bb7Uvn176r+NSZKUPkXBaEjygRlZG8PhcKKjo/38/Gq7vtavX4/j+KdPn65cuZKcnHz9+vXMzEzlBgnohWFYQEDA0qVLGeqpMjIyWrBgAfSgsMzExGTXrl2Kz81Wy8vLa8SIEWfOnKGrwBaOz+evXLlyypQpivRQPnz4cMWKFZcvX5Zebt3d3eveLG6o/ykpKSkvL0+mHYlEoq1btzo6OkZERFAfo6Kvrz98+PDHjx/LtC/wJQMDA+oDCUiSVNmR+JCBNcbMzMzPz4/L/e9Rkv6i0tfXb9WqVU5OTrt27fbt25ecnKyynZxAVq1bt46NjXV1dWVuF0FBQR07dnzy5AlzuwB1YRi2fPnywYMH01imQCCIiIg4f/489b4T0BBra+vNmzf36dNH7tF1JEn++++/06ZNe/v2rfRay+FwzMzMqHw2NTVVpluKUjiOr1q16unTpzExMdQ77b777rvk5GRZ9wXqEQgE1EcESSekgAxMzXC53LCwMBMTky/f4vF45ubmxsbGjo6OFhYWR48effPmzbt379gPEtBLIBCsX7++bdu2jA7X0NLS+u67716/fl1TU8PcXkAtPz+//v371/0ppTgURTt16mRjY5OWlkZjsS2Qs7NzTExMk0v7NULaydGlS5e6L5qZmVFJjEiS/PTpE5VBYF8qKCg4cuSIkZFRdHQ0xVkzzMzMJkyYIMe+QF0CgYB61yNJkmKxmNF45AbjwBrk5ua2bNmyRk4KXC5XT09v5MiRW7du3bFjB403OJoHtRtzqq2tvWDBgsDAQKYjR1F0wIABNjY2jO4F1Lpy5YqjoyPtxero6IwcOVJDQ0P6p9r9g1cFgYGBDx8+HD58uCJHr7CwcPLkyfVedHJysrW1bfKzOI6npqbKN9EXgiASiWTjxo1Hjhyh/hE9PT359gVq8fl86n1gOI5DBqZmtLW1v/xKN8Tc3Fw6S9DChQvh21VLNXt9GzF16tTIyEh2rqOWlpYUb5EARaAoWlpaWpsk0S4sLKw2k1a7f/BKJxAI5s+fr8iCXQiCXLhwoX///qdOnar3urW1tampaZMfF4lESUlJCo4hmT59+smTJxUpAciEIAjqd/8lEoncGTbTIAP7Ok9PzyFDhlDcGEVRHo/n7+8/Y8aMyZMns7/+FFBc165dw8PDFbwYUMfn8/v168fOvloyHR0dfX195rLq1q1bw5PRcrO3tzc1NVXk5mNVVVVERMTz58+/TH/Nzc2bfJiGJEmRSJSTkyNfALUkEsmSJUuePn2qYDmAouLiYqFQSHFjHMchA1MzY8eOlXUVXoFAYGNjExUVNWvWLOZ+cwMmcLnciIgIZ2dnNncKz6UzTVNT8/vvv2d6L15eXkzvorlydXX96kBbKkiSLC4uXrp0aUZGxpfpF4fDcXBwoJKBZWVlVVRUyBdDXe/evYuKisrOzla8KNAksVhMPXGXSCRwF1KddOnSZfTo0fJ9tlWrVkuWLJk9ezaPx4NxIepiypQpo0aNonekdpPc3d1hrQVGubm5RUdHM72XNm3awC8u+bRv316+XmeCIN6/f9+rV6/Y2Niv3vzlcrnu7u5NZmAEQTx9+vTz589yxPClGzdujBo1Sr5B/UAmWlpa1E/XQqFQ1oWkWAMXgPpQFF2wYIEiM6FrampGRkauWrUKxuarBWdn55UrV7K/2oFQKGzVqhXLO205fH19T548ycKvICcnJ0bnLmmuUBS1traW73t3/vz5fv36vX79uqENOByOpaVlk61PkuTLly+rq6vliOGr7t+/P2vWLJiZiGkyzUYhEokgA1MbfD6/Z8+eilyPURQ1MzObPHly3759Yf0ZFaejozN9+nRFBqPIB8fxa9euyToPJKAuJCSElunvmyQQCCjORADqEggEtra2cnQDFxYWxsXFNT4Vtr6+vq6ubpNf6rKyMkUehPwSSZKHDh06fPiwyt72ah5kmo1CJBKpbHNABvY/UBRt27atgsvGScsxMTH57rvvBg0aBEtJqrKePXtOmjSJ/f0KhcInT56o7PjQZmDWrFnsfPVsbGx8fHxY2FEzo6GhIetKu9JhW9999925c+ca39LLy4vK5K5ZWVmfPn2iHgAVEonk119/TUhIqPsiSZLwqCyNuFwu9d/MQqGQxm5OekEG9j+MjIyOHTtGV3eIt7f3mjVr+vfvD0mYamrbtm1MTAyVlePoVVFRER8fn5iYyPJ+WwgOh/P27VvWRvXxeDyY2k0OmpqaMvU919TUHDt2zMXFpcn0C0GQbt266erqNrlZampqeno6xQCoS01NHT9+/KtXr2pfQVEUhgXTiMvlUr+qamtr9+/fXzUHa0IG9l8cDicwMFDWRyAbL9De3v7XX3/t3Lkzy6O8ARULFy6kfe3txuE4np6efv/+/Tlz5rx584bNXbcc7du3t7a2ZnOPKvsLW5WZmJhQH6RBEMSiRYvCw8Mpjpr38PCgcsrNz88vLS2lGINMMjMz586dC/1eDJGpD8zd3X3WrFmhoaHsDEuQCWRg/2VjYzN69Ggaf6mgKIphmLe395w5czw9PekqFtDC29t7wIABbA7Uk0gkly9f3rJlS3R0dEpKisoOTVBrAoGgb9++ci8vCNiBYZibmxvFxZVJkszLy9uxYwfFaSM0NTUtLS2b3EwoFGZnZzM3EuDx48e1i1QCemEYRv1KzePxrKysFi9e/NNPP1lZWTEamKygY+a/hg8f3qdPH9qL5XK5w4cP53A4Y8aMgWdkVASKoqdPn2bt/mNFRUVOTs6bN2+WLFmSnp5Oy/xD4Kukd5ZZ3qmvry/Le1R3GIZ16tSJSgaG43h8fPyPP/5Ifc4IY2NjGxubJq/QFRUV7969Y+6cXFxcPGTIkOvXrzOxIlYLx+FwGmlfkiTrvcvhcJycnCZNmoRhWHR0dEZGBvMxUgIZ2H/Y2NhMnz6doVvF0t/lY8aMOXLkCPwkUgVeXl4szBUiEonS0tLy8vLu3bt38uTJ3NzcgoIC6otpAFnx+fwNGzawv1+G7mQ1Y3w+39PTs8nH2SorK2NjY2NiYmRaw75Vq1YWFhZNZmDl5eXJycmM/ipOSUmZN2/e5s2bVa3rpXlrqOm1tLTGjRunr68fHh5eXl7OclRfBRnYf4wcOdLe3p658vX19ZcsWZKZmfnPP/9AEqZcRkZGjE6VjuM4iqJZWVlXr179448/CgsL8/Pzi4uLmdsjkBoyZIiHhwfLOyVJksrYcFCXtbW1ubl5k5vdvn07Ojpa1smcDAwMqPSuZWdns/Ct/PPPP42NjXfv3s30jloUueey1tbWDgoK+vnnn3ft2pWVlaX0ecIgA0MQBOFwOF26dGF0SBCHw2nduvXmzZu7d+9eWVnJ3I5Ak0aNGvXtt98yUbJEIiEIIjU19c8//3z8+PGTJ09yc3NFIhHk3Ozw9PRUfCoZWanyqnMqy8LCovH1iHAcT0pKmjt3rqzXSAzDrKysqAwSevfuHTvz19+8ebO4uJj9f5nNFYqiBEHgOC7HJAMoiurq6oaHh1tZWS1dujQ1NZWJCKmDkfgIgiA2Njb+/v5MPy3M4XC8vLzCwsKoPCYNGNKhQ4dZs2YJBAImCn/8+PGKFStmzJixcuXKc+fOZWZmCoVCSL/YgaKo3IuJKUJ6MWB/v2rN1ta2kQUhcBzfs2ePv79/cnKyrCVramq2bduWypYvXrxg58dwRkbGyJEjld7d0pxIJBK5u8FQFDUwMBg1alRISIjSH9mBPjBEU1Nz6dKlZmZm7Oxu4cKFr169un79Oju7A/X8+uuvbm5u9JZJkmRVVdX58+e3bNny6NEjgiAg62If+2urS6WlpSUlJbG/X/XF4/EsLCwaulFIkuTUqVNPnDgh3xwfFDMwgiCSk5NlGl4mN4Ig/vrrr6ioqFWrVsHyCYojSVLxZZf5fP73339fU1OzdetWJY7NhT4wpGvXrkOGDGFtujwTE5Pp06cr5VIBeDyev78/vethSyQSoVD4559/zp0798GDBziOQ/rFPhMTk8jISKVMenn48GE5umpaMgMDg4amXcRx/P79++fPn5d7ijWBQGBhYdHkZqWlpfn5+fLtQg4EQWzYsOH06dPwII7i6Jre1srKas6cOQMHDlTilOktvQ9MR0cnNDSU5VnR+/fvn5KSMn/+fDZ3CjgcTkxMjLa2No1l4ji+d+/esj81GEcAACAASURBVLKyQ4cO5ebm0lgyoA5F0a5du7I8C2ut69evl5WVKWXXasrIyOirTyJLJJL4+Pjg4GBFnlMzNzfX19dvcrOMjIzCwkK59yKfWbNmubq6wuT4CkJRlJZf0RwOx87Obt26dampqa9evVLKL+eW3gfWs2fP0aNH09sp0iRNTc2RI0f6+PjAV5FN3t7eYWFhdLU1SZL5+fnR0dE///zz0qVLX758SUuxQA6Wlpbbt29X1g/Z7OxspexXfRkZGX25jpNEIpk1a9aIESMUnCbA3d3d2Ni4yc3S09Nr+8BY+5dTVlZ2+PBhdvbVjGEYRtdpXDpPWFxcXGBgIC0Fyqql94HNnz9fT0+P5Z2iKGpjY7Nhw4bAwEAVmZWk2bO3t1+3bh1dHWAEQeTl5f3++++bN2+mPlEkYMiiRYvY7wCTTtQeEhICGZisLCws6j6NRBDE27dvJ02a9Pz5c8Vv0jk6OjY5vBrH8aysrG+++cbT09PAwMDb2xvDsMTExOfPnycnJ7dv3/7gwYMMDdLfv39/bm7u0aNHmSi8JcAwbODAgZ07d6arQBRF27dvHxERcffuXfYvxy06AzMzM/Pw8FBKRxSGYZ07d+7YseOdO3fY33tLw+FwQkNDe/ToQUtbi8Xi+Pj4c+fOHTlyBNIvpXN2dlbK71ccx69du3b37l32d63unJycan8LSQd+RUVFPX78WPGSORwOlblYURT18/P79ttvMQyrjeSbb75BEOTTp08kSXbq1OnDhw8vX7788OFDZmYmjQP2y8rKzp8/T1dpLZD0t7StrS2NZXI4nA4dOowfP37Hjh1sr1tDyojV4BgmnWxG1iNAo23btik4SQxDgcXHx9N0jFVCQEBAVlYWXQcnJiaG5Rmu/f396Qq+nmbQ0MOGDauqqmLo+DSEIIjXr1/TXhfmAlapht6zZ4/0gRWJRHLixAkqNw0patWq1dmzZ2k8bjiOR0ZG0v4AI40R1kNvnKrG0NDwwIEDTBw3giA+fvwozcLpQuW83XIzMF1d3Xfv3snVWLQpLCxUcA07hgJTqfO14qKjo6VnfLlJJ5jIzMxct24dlSet6AUZWEM4HM7ly5cZOjh1Sf8B1Hrz5s2wYcNorw5z8atUQ1+/fp0kyYqKimHDhtE7D3bXrl1fvHhB76Grqan5+PFj3759aczD6I2wLroiVDVcLnfq1KkvX74Ui8WyHpN6X96G4Dh+9+5dAwMDumKGDKwx4eHhCl6VFUcQRFJSkru7u9y1YCgwlTpfK8jGxiY1NVXxY1JQUPDTTz/p6uqyf9saMrCGYBjGfgfY69eve/fuzeXSP4SDuZhVp6HNzMyOHTsWHh7ev39/2h+Bkg7LY+IAlpSUnD592tvbm5Y4mYhQipbwVND69es/ffrE9CW7vLx83rx5dE2ZDhlYg8zNzRMTE+VqIxpIJ9EuLCwsKyt78ODBhAkT5K4IQxGqzvlaQTweb9euXRR/AzVCJBJFRkayNm1vPZCBNURbW1vxxqWOIIj8/Pxu3box9PQ0c5GrTkN7eHh4eXkxVHhERERxcTFDx7C6uvrVq1fdunWjsuhk4xiKkGwuF+i6uFyut7d3dnY2C9906ZpyPj4+tERO5bzdEkfioygaEhLi4uLS5JbSf9D09nngOC4UClNSUo4dO6arq3vt2rW0tDQaywe1UBTt1KnTmDFjFGxBkUh0+PDhrVu3CoVCumIDtIiOjmazSzIvL69bt27p6ems7bH5YWL8XC0HBwcFFxwjSbKhf1EaGhoeHh73798PCAiIj49vlumOquHxeAMHDtywYQO9Yz8aamUURR0cHMLCwlJTU9mZLq4lZmC2trYzZ85kdB3uhrx58+bFixf//vvvjRs3pPNoi0Qith++aDHMzMy2b9+u4MpfQqHwxIkTs2bNgvRL1WAY5unpydruhg8f/uTJE5h7QpW5uroytORrXdevX9+4cePOnTthLQSm7d69OygoyNTUlM2djhkz5vnz51u2bGFhXy0xA5s8eTKVDjCE1t6v4uLizMzM2bNn5+Xl5eTkVFRUwE8oRmlpaa1evZriGr0NEQqFsbGxO3fuhFknVNCgQYO6d+/Owo5Ikrx27drt27dh9j4VZ2VlpeD0qlTO+VwuNyIiwt7efvz48fDDjCEcDic4OHjo0KFUVjigl6am5oQJE27fvv3mzRum99Xi5sQ3MzObPHkyy5Pg5+Tk7Ny5c/ny5ffu3fvw4UN5eTmkX0zr1q3boEGDFDkdEwSRnp4eFxeXkZFBY2CAFhiG2dvbM92TLRaLs7Kytm7dOnXqVEi/VJyenh5rV2uBQDB8+PDvvvtOQ0ODnT22HCiKWlhYfPvtt6tXr9bX12dimEHjZaIo6u3tPX36dDYWS5B1qBrjATFs8uTJcjzOKjeCICoqKsLCwuhdjrAWQ2Grzrhd+WAYpvhD6QkJCX5+fsquCoLASPyv0dXVffToEUOHRSolJWXx4sUK3sWWCXN1Ud+Gpm7q1KlsnttJkqyuro6Pj5djdkDmQmLiwLKsa9euZ8+eraysZO4oNYIgCIlEUlxcvGnTptatWytSEXgWsj6BQLBr1y652kVOJSUlEyZMUPzZmYYwFLa6n691dXUVfHCmsLCwV69eyq7Hf0AG9iV3d3ehUMjQYSFJUiQS9ezZk+VKMVcd9W1oivT09L76lWf6ATocx69cuSLrJFLMxcPQ4WXN9OnTMzMzJRIJc4eoIQRBFBcX37x5c9u2bT4+Ptra2grOOAPPQtbn6uo6ZMgQdvZVXFyckZHxxx9/nDlzRiwWs7NTIBUUFKRgCadOnbp//z4twQAmODg4MPQUJI7j586du3DhQkJCAhPlA9p16dIlKiqqoafbGN01h8P55ptv5s+fv2jRIkZ31BJYWVmFhIRYWlqyPEwIQZDKysqcnJy1a9e+ePEiMzMzLy+PpSfkZM0T2YiJGQKBYOvWrXIlxzIjCOLUqVOBgYFM38JgKH61/sXs4ODw4MEDuesuFotv3Ljh4eGh7Hr8F/SBfWn79u20T89IEIRQKFy9erWCdx/kRm916lLfhm7S4MGDnz59ytyhowLH8dDQUOrZHnORMHqomcPlcnv06HH8+PHq6mrmDs5XEQTx6dOnLVu2SEf10Zj8wV3I/zFw4ECGpkuuB8fx169f07vCVEMYqoL6nq/5fP66desUuTY/e/bMyspKKeu1NwQysHpoGef3pczMzODgYDaG3zaA9hrVUtOGbpKurq5y1/at9enTJ+rDRpkLg9GjzZzw8PDU1FTqt4wJgigqKsrJySkoKCguLi4rK6usrBQKhbLedJbOsTxx4kQjIyPaH+uBu5D/paWlNWPGjFatWjG9IxzHnz17Nm/evLt37zK9L/CliRMnzpgxQ+7fMdXV1aGhoZ8+faI3KkCvHj162Nvb01vm77//Hhsbm5mZSW+xgDl2dnYXLlxgYnkoOVhaWh48eDAoKOjdu3fKjkXNWFhYrF27Vqa1gC5duhQbG0uSpKGhoZ6enq6urqGhoaWl5dixY3V1damf/7Ozs6dNm3b79m1lzSqiEv92WdCzZ08/Pz+mOzaEQuFff/0VGxubkJCA4zij+wJfsrOzi4iIkHsBXaFQGBcXl5SURG9UgHampqY0PlxcVFSUnJwcFxcH6Ze6wDCsf//+K1as8PDwUJ3uajs7u7i4uEGDBrEznXozoK+v369fv5kzZ1L/OldVVa1bt+7AgQMZGRkcDgfDMC6Xi6Iol8vV1dVNTEzU0dHx9fX18fHR0dFpZHaS/Pz8T58+bdiw4datWyKRiKYKyU6mLjtSbTs5b9++3Xj/JP7/JBJJXl5eWVlZTU2NpA7pu40XcvHiRT8/P+aefPySrM1HkZreswgODlbklsSHDx8oTtXLMrgLWc/YsWPpOgLl5eUREREqMuyPrkp9SU0buiEjR4789OkTc4dLbgRBHD58uMkb2cwFwM7xp4WBgcGKFSvS09OpP/lIEMSTJ08aSdc0NDR0dXV9fHzCwsI2bdr0/v37hi7Za9as6dmzJ6MrKMBdyP+wsLDo0qWL9KeSWCyWSCRcLhfDMA6HI13vk8PhvHjxIi8vT1dXV1NT88yZMzo6OpqamhiGoSiKYRifz9fV1dXT0+vfv7+2tjaPx/tyIr6ysrIff/wxOTlZvb4GzYZAIJg5c6bc6W9paemCBQvev39Pb1RAZREEUVJSsmjRop07dyo7FiADOzu7GTNmWFpaKjuQr0BRdOzYsf/++++2bduU2bOiDgYNGjR//nzqOZBQKLx7925UVFRVVVVD29TU1NTU1Dx+/PjZs2empqaXLl2KjIzs1KmTvr5+bVoskUhevXoVFxfHwpT3TWr+GRiXyx0xYsS9e/e0tLQ0NDQyMzOTk5N1dXV1dXW5XO6uXbtqamq0tLRycnJKSkr4fD6GYR8/fpSma9L/cjgcLpfL5/M1NDQePHhgYmLi6Og4aNAgbW1tLS0tBEFIkiwqKlqxYgWkX0rk5OQk9wxeJEnu2bPn+vXr9IYEGKL4YHmRSHTv3r3w8PCPHz/SEhJgAZfL7dSp08GDB9u0aUNjsWTDq3HLZ9myZXl5eUePHqWxzGZm0KBBa9eupZ5+iUSiHTt2rF+/nspQAYIgCILIzs7Oy8v78OHD6NGje/ToMWDAAA6HU1NTc+/evYiICBUZrtf8MzAejyeRSJYvX66hoaGjo5Ofn5+eno5hmLR/KzMzkyAIDMMIgsBxXPo9bCSLOnbsGI/HMzc3f/XqlYuLS1BQkLW1tUgk2rJly4EDByD9UhZtbe3Zs2fLd2EmSTIjI2P79u2N/LQCqgNFUQVni/j8+fOOHTuWLFkCLa5GtLW1Q0NDV61aZWZmRkuBBEEUFBRIJyPgcDhmZmZmZmZ8Pr+goKCRpaCppGt6enq//fZbRkbGvXv3aAm1mTEyMgoLCzM3N6f+kd27d69du1bWZ6RwHE9LS9uxY0d8fLytrW2rVq3u3r27YcOGd+/eqcrFmuL911rKjldmHA7H0NCQy+VyuVwej0fLo+YoimpqalpaWvbv3//KlStXrlxhefH2WrI2H0VqN2okKCioqKhIvsqmpaUNHTpUdcbzfgnGgdXF4XB27twpd5UlEskPP/ygmsv50diy9ahjQ9eFoui2bds+f/6s+KGQSCSVlZVPnz6dPHlynz59PD09zc3Nzc3NPTw8/P39o6KiJk2a9PHjR7FY3OTA30YQBHHt2rWGqqN4LRrCZqPIbfjw4VVVVdSPZG5uro2NjSJ7xDDMz89vxIgRrq6urE33CvOBscHMzMzS0lJZ129Zm48i9Tpf29nZvXz5Ur6aFhcXT5kyRdk1aAJkYPXIPRK/oqIiKCiI/Rm3KaK3cetS04au1b17d8XXF8rLy3v//n1ISIiPj0/ju8MwzNbWduTIkcuXL09MTJRvd1VVVUOHDv1q+QpWpBEMHHuamZiYPHnyhGJ1Kioqbty44eTkpPh+URRl+TINGVjzJ2vzUaRe5+slS5bIN5MyjuObNm1i9HEYWkAGVo8cGZhYLH779m3Hjh1VubOTiSaWUtOGRhBES0tr4sSJmZmZctddutZyWlraoEGD5LiWd+nSZfXq1UVFRfLN9unt7f1lmXLXpUl0HHIGoSi6bNky6n2ZP/74I+0z/7EGMrDmT9bmo0i9ztePHj2SbxL8169ff/X8qGogA6tnzJgxMlWztLT08OHDyo66aQy1Mqm2Da2np7d8+XIF12lOTEw8cOBAk/1ejVuyZMnjx4/l2Pu5c+csLCzqlaZIdRqnSB1ZYGpqSv1+RVJSkpGRkbJDlh9kYM2frM1HkRqdr93c3OQeATZixAglLkFDHWRg9VhbW6emplKsI47jY8aMUc2BX/Uw1Mrq29AjRoxQcNGh+/fvW1tb0xJMmzZtYmJi5Ijh3Llz9YpSpEaNo6WmzJk+fbpYLG6yFgRBFBcXt2vXTpV7rJsEGVjzJ2vzUaQu52sej3f27Fk5KkgQxIkTJ6STiag+yMDq0dLSev36NZUKFhQU0Dh7PtMYamV1bGiBQBAaGpqfny93lYuKiqKjo2Va66ZJPB5vxowZeXl5Mt2RzM7O7tq1a91y5K5Uk2isLO2srKyKi4ubPHRisfjKlSvqe/OxFmRgzZ+szUeRupyvR44cWVNTI0cFhUKhoaGhssOnCjKwLy1YsKDxH9NpaWlbtmwZMmSIsiOVAUOtrHYNbWpqunLlypKSEvkqSxBERkbGqFGjGBri2aNHj9TUVOpnHhzHHz58WPeGmnz1ooKJ+tKCx+PNnz+/yfgLCwsXL15M73xvygIZWPMna/NRpBbna4FA8Mcff8hRu5qamhs3big7fBlABvYlXV3dx48f1/s9Tfw/iURiZGSkIms2U8dQK6tdQ8fFxcl981E6BVTnzp0ZvYHl7+9/7do16j1hBEHExsbWZoTyVY0K5qqsIHt7+3///bfxQ0QQxMyZM9Xl1kSTIANr/mRtPorU4nzdu3dv+daGu3r16pdjY1UZZGBfZWxs/OjRo7rVSUpKSkhIiIuLU5F1HmXFUCurV0P37NmzvLxc7ppeuHCBnW+3hYVFZWWlTLHNnDlT+lm5a9ckFioun6ioqMafqJD2FFpZWSk7UtpABtb8ydp8FKn++drCwiIxMVGOKYLevn3bpUsXZYcvG8jAGmJgYGBjY+Pm5ta7d+/hw4e7urpK17pQdlxyYqiV1aWhTUxMlixZQmWk9leJxeLp06fr6+uzFnCnTp2OHz9Ovbuuurpa+kimfBWkgrW6y8TX1zcpKamRsEtKSqKjo2WaJV/1QQbW/MnafBSp/vl6w4YN8o0A++GHH/h8vrLDlw1kYE3i8/lqd8/xSwy1slo0tKWlZVxcnNy9XxKJJDAwkOW5/TgcjpWV1cmTJ6nPl7Fjxw5tbW356kgFm9WniMvl7tu3r5HTNUEQS5cubdWqlbIjpRlkYM2frM1HkYqfrzU0ND58+CBrpaTLwKnj9xwysBaCoVZW8YZGUdTBweHZs2fyzepHkqRIJHr8+LGy4ndzc0tOTqYYallZ2ezZs+WrJhXKOgiNsLOzy8rKaihggiBSU1ONjY2VHSb9qJy3VXR1DgAawuFwRowYIcfc1jU1NRMnTszNzWUiKgCAfIYOHfr69et27dp9uVoUxZQiJibG19eXgdAoefv2befOnSmGqqenN378eKZDUh0oiq5Zs6ahkXkkSb59+zYgIKCoqIjlwFQEZGBAzWhqai5atEjWsT41NTX79u1Tr0cgAWjedHV1N27cuHfvXk1Nza9+o6l8zYcOHRodHS0SiRgIkKqSkpKQkJDi4mIqG6vssqS04/P5ffr0GTJkyFfbMTc3d+7cuYGBgenp6ayHpipayj8F0DxwOJxBgwa5uLjIlIHhOP7mzZvff/9dLBYzFxsAgCIDAwM7O7vjx4+Hh4fLvfKMSCS6c+fO5cuXa2pq6A1PDpcuXdq+fbtyE0FV4+TktGTJEg0NjS9P1yRJJiQk7Nq1KyMjQymxqQi1H7sKWhRbW9uwsDBZlxJ6//79okWLkpKSGIoKAEBdmzZtFixY4Ojo2Lt3b7kLqampOXfu3NSpUyUSCY2xya2mpiYmJsbR0TE0NFR9n8al17Bhw+otBiBFEMTbt2+joqKqqqrYj0qlQAYG1MmIESMCAgJk/dSZM2euXr3KRDwAAOo0NTUnT54cHR2t4JwRQqFwwoQJp06doiswWlRWVk6YMMHR0VHt5rthQrt27b777ruvPqF86dKlsLAwGJKLQAYG1IixsfG4ceNk/dTHjx+3bt3KRDwAACp8fX2dnJx69eoVGBhoZmYmax/2l3755ZfTp0/TEhu9cBwfPHjw7du327Ztq+xYlGzRokW2trb1XiwoKPj999/3798P6ZcUZGBAbURGRrq6ulLfniRJkUgUExOTl5fHXFQAgIZoaWnFxMT07t3bxMTEzMxM8UHoQqHw2LFjBw8eVM2ZFxAEKSgoiI6Ojo2NVa+FN2iEoujo0aN79epVtwOMIIi8vLyZM2fGx8eXlpYqMTzV0gymG2nJZG0+ilRw9iAtLa3GZ1X+UnV19R9//KGjo6Ps2BUF84G1EAy1shIbum3btu/fv6erFqWlpbGxsZqamkqpi0yioqIamt7s8ePHdB2QLym73giCIMbGxgUFBfUWLHn69OnIkSOVHRqrqJy3oQ8MqAd3d3d7e3vq25MkuWnTpuXLl8NgTwCUxd7e3sbGRvFySJJ88eJFSEhIcnKy4qWxYO3atampqcePH1d2IGzjcrmhoaEmJia1r4jF4ri4uNWrV6ekpCgxMNUEGRhQA25ubhMnTqQ+fIQkyatXr+7ZswfSLwCUBcMwW1tbHo+neFE4jgcHB6empipeFDtwHH/58mVFRYWurq70FZIkW8IzkoMGDZo2bZr0/4VCYW5u7sGDB3fs2JGTk6PcwFQTzAcGVB2Hwxk2bNjEiROpn78IgoiKilKj8zUAzY+urq6jo6OCaQdJkpWVlbGxsWr3dU5KSlq5cqVQKJT+2RLSLxMTkxkzZnh4eJAkWVZWtn379rCwsPXr1+fk5KjIHVJVA31gQNU5ODj06dOn9qfkl2p/XNZ+yRMSEhITE1mKDwDwNfr6+rJOnvylpKSkX3/99cSJE3RFxRqJRLJmzZr27duHhIQ0g2Xjqfj555+7du36+fPn06dPX7x48caNGxUVFcoOSqW1iH8WQK35+/v7+/s3skHtKR5FUYIgPnz4MHPmTDYiAwA0zMjIyNnZWZEM7N9//x02bFh2djaNUbFs4sSJfD4/ODi49pXm2hvk7OzcoUOH/fv3P3369NChQ6rzZIAqgwwMqDQul/vtt99Sf4g9PT19zpw57969YzQqAECTXF1ddXR05M7ARCLRtm3b1Dr9QhBELBYvWbKkbgaG47gS42GOWCyeOHFiaWlpdXU1QRDKDkc9wDgwoNIcHR09PDwobiyd/evOnTuw/iMASifNwOT4IEmSOTk506dPP3r0KO1RsS8zM/P333+v7RCqHRnWzHz8+PHjx49lZWWwOCZ1kIEB1cXj8TZu3GhgYEBlY5Ikb9y4cfjwYUi/AFAFHh4e2tracnzw1q1bo0aN2r9/f/NIVioqKlatWvX8+XOSJAmCKC8vV3ZEjIB+LzlABgZUFIqitra2AQEBFCehKCgoWLhw4efPn5kODADQJIFAYGVlJccCRKWlpTNmzLh79y4TUSlLQUGBn59fUlKSUCh8//69ssMBqgIyMKCiMAzz8/MTCARNbkmSZHFx8fr161++fMlCYACAJtnZ2dWdlpMK6c3HiIiItLQ0hqJSos+fP0dERKSkpKjLpLKABTASH6gobW3tuXPnUtmyurp6//79e/bsYTokAABFtra2xsbGMn3k1atXCxYsuHr1anN9hu7mzZt3796FqeFBLcjAgCpCUTQ4ONjT05PKxgsXLjx48CCs9gqAikBR1MXFhfowfIIgtm3btm7duo8fPzIamHIRBPHLL79oaGgoOxCgKiADA6rI3Nw8MDCwyc1Iknz79u2ZM2cg/QJAdfB4PCcnJ4qTyOTn52/bti0mJqZ5jLtvXGFhobJDACoEMjCgihwcHLp169b4NtLhXwsXLszNzWUnKgAAFXw+38nJqcmZwEiSTE9PX7NmzY4dO9gJDACVAhkYUEV8Pl9LS6vxbTIzM1evXn3hwoXmOmoEADXF5/ObXBGSIIicnJzhw4fDAmKgxYIMDKgiKyurxqcB+/Dhw7p16+Li4iD9AkDVuLi4mJiYNJSBkSQZHx+flpY2e/bsqqoqlmMDQHVABgZU0eDBgxs5fRcUFERGRt66dQsmXwVA1XA4HHd396/2YeM4npOTs3v37h07dlRWVsLsfaCFgwwMqCIbG5uvvk6S5MuXL/fs2XPz5s2WMG4XALWDoqirq6umpqb0T5IkJRKJSCSqqKg4derUtWvXrl+/DgvXAIBABgZU059//tm9e/cvXy8tLY2NjT148CD7IQEAqDAwMLCzs+PxeGKxmMPhlJeXnzx5MjExcf/+/dDpBUBdkIEBVZSYmJiYmOjl5SX9E8dxDMN27dq1c+fOV69eKTc2AEAjysvLf/nll9OnTz98+FBbWzspKYkgCIlEouy4AFA5kIEBVXT37t3Dhw8bGRkJBILy8vITJ06IRKL9+/dnZmbC+q8AqDKxWPz+/fvk5GQcx5UdCwAqDTIwoIqqq6tPnDhRUlLSoUOHf//99/z582KxuKKiAtIvANQCpF8ANEnmDAzDMC4X8jaVwGjHPpUlsRmVk5Nz8ODBCxculJaWSqec4PF4yg1JWRi9mCm9oYEU0/OqQEOrCEYbmsvlYhjGXPmAOiprQqCy/mvIzMyEDExFSCSShp4ZVJBQKCwuLmaiZCAHgiCsrKyYKBkaWnWQJGlpaclQ4dDQqoPRhs7KyoIMTEVgGGZmZtb4NjJnYAAAAAAAQEGUVk4FAAAAAAA0ggwMAAAAAIBtkIEBAAAAALANMjAAAAAAALZBBgYAAAAAwDbIwAAAAAAA2AYZGAAAAAAA2yADAwAAAABgG2RgAAAAAABsgwwMAAAAAIBtkIEBAAAAALANMjAAAAAAALZBBgYAAAAAwDbIwAAAAAAA2AYZGAAAAAAA2yADAwAAAABgm3pnYPn5+aNHj/7mm29OnDjx4MGDRYsWyfTxkydP/vbbbxKJRCKRjB07dv78+XXfffToka+v7x9//IEgSGlpaVRUVFVVFZ3RA8p27drl5+cXHh5eXFz8448/yvrxsLCw9PR0sVj8008/9e7d+/jx47VvCYXCyZMnDx8+vKKiAkGQixcvfvvtt3SGDmRBS0MjCBIdHd29e/fMzMzat6ChVQotDY3j+IABA3x9fadNm1b7VkVFxejRo8eMGfP582ccx0+cOLF8+XJaYwdUvX37dvjw4UFBQf/888/Zs2cPHTok08dXy92YLAAAIABJREFUrVp18OBBHMefPn0aEBAQGhpaVFRU++758+d79ep18+ZNBEGysrJmzpxJc/Ss4Co7APlJJJLw8PCNGzfa2Ng8f/5cJBJJX//tt99Ikpw5c6aent7OnTuzs7PHjRtnZGS0adMmfX39umlWXl6ej48Pl8slCGLlypXR0dG1b+E4Hh0dHR8fP3nyZF9fXycnp86dO+M4znYlAYJs2bJFJBLFx8fn5ORIJBLpi0eOHHn16lWfPn0CAgISExOPHz/etm3bkJCQ3bt3Z2VlTZkyxcnJqbYEPT09e3t7HMfDwsJWrVr1ww8/jB49WvrWrl27xo8fb2dnt3v37sjIyM6dO69cuVIJlQT0NTSCIEOHDv348aNQKKx9CxpaddDV0BKJ5PXr1xkZGSiK1r71+++/L1y4EEXRkydPTpw4sWPHjpcvX2a7hgBBRCLRihUrtm7damJi8uTJE+mLxcXFmzZt0tXVDQ8PJ0lyy5Yt1dXVM2fOLCgoOHr0qLm5+Zw5c2pLSE1NHTZsGIZhHh4eN2/evHXr1qZNm5YtW4YgiEQiuXjx4uXLlwcPHtyxY0dra2sLCwvl1FMxatwH9v79ez6fb2dnx+FwOnToUPv6lClT+vTp89NPP1VWVnI4nEWLFhkbG69fvz4iIiI0NLR2s5SUlISEBOm3msPhODo61i08Ly9PS0uLz+cPHDgwLS0NQZDWrVtv3769pKSErfqB/4iPj//xxx+5XK6NjY2ZmZn0RSsrq2XLlu3fvx/H8eDg4Hnz5vn7+ycmJiYnJy9btqx2MwRBjh07ZmxsjCAIhmGtW7fGcbz2pI8gyIcPH7755htbW9uHDx8iCKKvr4/j+P3799mtIkAQ+hoaQRAPDw9tbe26hUNDqw66GhpF0W7duk2aNGnVqlW17+bl5bVv397FxeXRo0cIghgbG6ekpDx//pzdKgIkISGhW7dulpaWfD6/W7du0hf5fP68efNat269e/fu+/fvd+rUKSoqSkdHZ9++fQsXLhwwYEDtx1+/fp2UlGRubo4giEAgiIyMXLZsWZ8+faTvpqSkODo6amtrDxw4UHpRtrW13b17t9r1kqhxBiYQCGpqauq9WFFRMXHixKlTp6anp+vo6Hz8+LF///6fPn2aM2fO2LFjV6xYUXv1dXJyMjIyqvsruS4ulyvdsqamBsMwBEGEQqGPj4+hoSGTdQJfgWFYvYYmCOLy5cudO3e+fv16QUHBkSNHgoKCDh065OXlpamp2aNHj9TU1NqNe/bsWVZWJv1/HMcjIiJmzZpV+y6Hw8FxnCRJPp+PIAhJkoWFhV26dGGlZuB/0NjQX4KGVh10NTSGYSdOnDhw4ABJkp8/f5a+i6IoSZK1DS2RSEQikZeXF4v1AwiCINra2l9eoLOzs4OCghYvXpyent6tW7ejR48OGTKkpKRk7NixAwcO3Lt3L0EQ0i09PDzEYrFYLJb+uXHjxn/++efUqVPSP/l8vvSt6upqDoeDIEh5ebmvr6/0Yq1G1DgDc3JyMjEx+fvvvyUSyd69e6Uvnjp1Kioqat26dQiCCIXCiIiI5cuXHzp0KCkp6caNG+Xl5dJhIlIuLi61I0VEIhFBELXtbWZmhqJoZWXl3r17PT09EQTJyMjo2LEjmxUEUhMnTpw0aVJNTc2DBw9evnyJIEhJScmdO3fu3bvn4uJCEER+fv69e/f++eefwsLCGTNmnDhx4vr167Uft7S0lCbTBEGMHDly6tSp0gaV6tq1686dOx8+fDho0CAEQcrLy83NzdXua9w80NXQCIKIxWIcx2tHJiDQ0KqEroYWiUQpKSlVVVUvXrzQ1NSUvuvm5nbixImrV68GBQUhCFJWVubu7i69SAM2dezY8Z9//nn69GlVVdWGDRukL548efLIkSMREREIgpSXl2/atOn777+Xdkvfvn377NmzxcXFtSV4eHhI/7x//75QKDx9+nRtK9vb279//z4/Pz8uLk7aP1paWurh4cFyHRWH/frrr8qOQU4oivbt2/fNmzeJiYk+Pj5WVlbW1tZ9+/Z9+vSpsbGxj4+Pg4PDjRs3pCNwq6urb9++PWDAgHbt2tWW8OrVq+rqaunPo2PHjtna2mZmZrq6uv799992dnZ+fn5Xr16dNm2adGTJ9evXO3ToIBAIlFXfFqtNmzbOzs5//fUXl8vt0KGDubl569atXVxcnj17NnDgwDZt2mRlZT169Gj8+PFGRkZ//fVXVlbW6NGj67bUmTNnBg0aJJFIUBQtLi5++fKll5fXy5cv+Xx+hw4dioqKKioqhgwZgmFYTk7OnTt3xo8fr8T6tlh0NTSCINevX9fT08vOznZxcXn37h00tEqhq6FJkkxISHj16tX48eNNTEwSEhL09fV9fHw+fvyIYVjfvn05HM7Hjx/fvn0bGBioxPq2TCiK9uvXLzEx8cOHDwMGDGjVqpWVlVWvXr1u3brl7e3t7u5uZGR07do1gUAQGBiYnZ199+7dmTNn1h3tFx8f7+joaGtrW11dfevWLR0dncmTJ+M4Hh8f7+Tk5OXldffu3cWLF5uamiIIcuHChX79+imvunJCSZJUdgxKU1paunPnzu+//15HR6fxLZ89e/bPP//MmjULfkupo4sXLxYWFk6aNKnJLZctWzZu3LjWrVszHxSgHzR0C0Gxoaurq9euXTtt2jQ1HabdwuXl5Umfm9HS0mp8yzNnztTU1IwdO5adwGgkcwb24sULhkIBcqjbpUejqqqq5ORkJkoGcuDz+W5ubkyUDA2tUhj6OiOq0dDo/1O74dK0Y66h4QKtOnR0dOp26X0dKSNWIgdUydp8FMXHxyu7ZuC/evbsCQ3dEjDUyirS0BiG8fn82qE8LRlzDa3smoH/8vf3b7K91Hg+MABaCLj3DZoBHMfVovdLIBBwuVyhUFh32hoAmAAZGAAAAPAfEydOdHJyunfv3qVLl9QiZQTqCzIwAAAAAEEQpGPHjsuWLTMxMQkLCxs1atTff//d0JyRACgO7m4AAABo6VAUdXFxkc4vxeVy9fX1Dx48OHz4cJiBCDAHMjAAAAAtGofD8fb23rZtm6urq3TYJYqi5ubmCxYs8PX1VXZ0oNmCDAwAAECL1qlTp5UrV/bq1YvL/e/IHBRFvby8Ro8e3eSEkQDIBzIwAAAALZevr+/27dv79ev35SpVHA5nwoQJixYt0tDQUEpsoHmDDAwAAEALxePx5s6d2759+4YWCdXS0po9e3bbtm1hUhhAO/gnBQAAoCXS0NAYNmxYr169Gs+uNDU1IyIimp7fHAAZQQYGAACgJQoKClq7dq2RkVHjm6EoOmbMmBkzZtQdJQaA4iADAwAA0OLY29tPmzbN1tYWRdEmN+bxeMOGDRsxYgQLgYGWAzIwAAAALQuHw1mzZo2/vz+V9EvKzs5uxYoVhoaGjAYGWhTIwAAAALQs3t7egYGBMj3hyOFwHBwcJk2axOPxmAsMtCiQgQEAAGhBjI2Nd+/era2tLesHuVzu0qVLYUg+oAtkYAAAAFoKHR2dKVOmtG/fnvr9x1ooiurr60dHR+vq6jIRG2hpIAMDAADQIqAoOnr06Llz58qRftUaNGjQN998w+fzaQwMtEyQgQEAAGgRDA0NR40aZW5urkghPB5vyZIlnp6edEUFWizIwAAAALQIPXv2DAgIULyc9u3bjxkzRvFyQAsHGRgAAIDmr2fPnhs3bqRlVlUURadMmWJnZ6d4UaAlgwwMAABAMycQCCZMmGBra0tXgfr6+uHh4TBLPlAEZGAAAACaOQcHh2HDhikyAL8eDoczePBgT09PGssELQ1kYAAAAJq5hQsXmpiY0Fumh4fHlClTtLS06C0WtBzQgwoAAKDZ4nK5o0eP7tevHy2llZaWPn36NDU19dKlSwiCPHr0SCKR0FIyaIEgAwMAANBs2djYREVFmZqaKlhOSUnJgwcP7t+/f/ny5bKysqysLJIkRSIRLUGClgkyMAAAAM3WpEmT3N3dORz5h9x8/vz5w4cP27dvT0hISEtLq6yspDE80JJBBgYAAKB5srCwiIqKkjv9kkgkFRUVixcvPnPmTH5+PkEQ9IYHWjjIwOSHYRiPx5NIJFwu19jYODs7G8MwGBMAAACqgMfjjR07lsfjyfdxHMd37dp1+vTphISE6upqemMDAIEMTD6Wlpbm5uZDhw41NDT88OFD+/btvb29b926lZeXFxcXV1xcrOwAAQCgpbO2tp40aZJ8s0VIJJJ9+/atX78+PT0dx3HaYwMAgQxMDt7e3gcOHDAxMWnVqhWCILVf744dOwqFQjc3t82bN6enp5eXlys1TAAAaNFGjBjRtm1bOT4oEolu3Ljx66+/5uTk0B4VALVgPjAZODs7BwcHHz9+3NPT08LCAkXRer+uBALB1KlT//3337Nnz3bs2FFHR0dZoQIAQEvm6uoaHh4uxwcLCgoOHz48YcIESL8A06APjBIMw+bPnz937lxNTc3G599DUZTP5/v7+8fFxU2bNu3BgwesBQkAAABBEBRFZ8yYYW9vL+sHJRLJlClTXrx4UVJSwkBcAPwPyMCapqenFxISsnjxYi0tLYpDClAUdXd3nzFjRlFRUXJyMkmSTAcJAABAysDAICgoSNYx+BKJZP/+/X///XdFRQVDgQFQF9yFbAKKoqtWrVqzZo22tjb1EZ0kSXI4nLFjx544ccLf3x9WbwUAANbMnTvXwcFBpo8IhcJz584tXbq0oqICfjMDdkAG1hgMw27evDlz5kwjIyM5Ps7lctu1a7dz505XV1dF5gMEAABAkaOj44IFCzAMo/6RsrKy3bt3f/fddzk5OZB+AdZAWtAgLpe7bNmy3r17y5E81faWoSjaunXr6dOn074oLFAWgUCg7BAAAF/H4/GGDh0q022H6urqbdu2/fbbb6WlpcwFBsCX/o+9+wxoIlsfBj4zqUBCCV269C5FiiI2QMUOKCqKbe2617Kua1l1dRXXvtYtdlF3xYJiXVwFG4pdUSwUESkivSYkmXk/zH25/pWSNgmS5/dJyeScMznJzDOnQu9Y8+h0+tixY7///nvZ1pL5FIqiMTExfD5/4cKF8HT11SEv5Vwu193d3cnJydLSUlNTU1NT8/Xr15cuXSouLvby8rp69SrULADtgYWFxdSpU6V6y5EjR7Zu3VpSUkJRkQBoCURgzYuKilq7dq3Miyl/RldXNyIiYtOmTTC9+SuCYRiHwxk/fjyHw4mIiDAxMeFwOBoaGgiCMBiM+vr6OXPm1NTU8Pn8Q4cOlZWV3bt3Ly8vTygUqrrgAKivsWPHOjk5SXgwQRAVFRV79uyB8AuoBERgzYiNjd2wYYORkZEC07SwsNi9e3d0dLRAIFBgsoAiZmZm06dPDwgICAgIYLFYdDr9s9ZQDodDrveG47inp6dQKHz58mVxcfGxY8cSExPr6upUVHAA1JePj8/o0aMlP/7t27crV658+PAhdUUCoBUQgX2OzWZv375dW1tbscnS6fQePXp06dIlPT0deqzaLRRFra2tg4ODBwwYEB4ezuVy23wLhmFMJpPJZPr4+CAI0rlzZzc3ty1btpSVlcFmJgAo0+TJkzt37izhwUKh8ODBgwkJCdBuDVQFIrD/A0VRd3d3hYdfJD09vT179nTt2pXP51ORPpAThmFeXl5r167t3r072e4lQyKOjo7z5893cHA4ffr0sWPHIAgDQDkYDMbAgQOZTKaEx6elpSUkJMCW20CFIAL7P/r373/u3DmKEkdR1M3NzczMLDs7m6IsgMw0NDRiY2MXL15saWkpz/QLskksIiLC3d3dxsZm9erVCiwkAKAlv/76q7m5uYQHNzQ0zJkzJzMzk9IiAdA6WI3if4YOHbpr1y6qF+4KDw9vfV8joHzOzs47d+6Mi4uzsrKSf/YrydbWdsmSJadOnXJ3d1dUmoA6GIaxWCwLC4tu3bqNGTOG7Ik2NjZWdbmARFgs1pQpUyS8evP5/PXr12dmZsKAEKBa0Ab2Xy4uLitWrJBhHzFpDRo0KCkp6e3bt1RnBCSkq6u7bdu2bt26KTYyxjCMzWYPHTpUJBLNmTPn48ePOI4rMH2gQHQ6vXfv3u7u7j4+Pl5eXlwut76+HsfxCxcu/P33369evaqqqlJ1GUFrXFxcJBw2QBDE27dvd+/eDcO/gMpBBPZfs2bN6tKlixIyMjU1NTQ0hAis/XB2du7Tpw9FzVQYhkVGRrJYrPXr19+6dYuKLICcjI2N7ezsdu/ebWVlhWEYiqIoipKtI9bW1n369Nm+ffvBgwcJgoAYun3icDiRkZESHlxRUbF582ZYfgK0B9ALiSAIYmtrO3LkSOV0Fbm7u48ZM0aSSXZAObhcLnnTpSh9DMN69OjRrVs3itIH8pg8eXJycnJSUpKtrS2dTicjMARByK8Em8329PTcsmXL77///u2336q6sKB5gYGB8+bNk/BgDQ2NoKCgyMhIMzMzSksFQJugDQxxcXE5e/asMncN8vPzs7Gxefr0qdJyBC1hMBj29vZUB9/v379/8uQJpVkAaRkaGv7888+DBg0yMTFpZfwQiqLa2toxMTEZGRl3795NS0tTZiFBm7S0tGbOnCn5EAINDY1Ro0YFBgY+efLkr7/+SklJKSsro7SEALRE3dvAdHR0Fi1aJPkSMgrh5uYmeZs5oBSHw1FC61RVVVVOTg7VuQDJ0Wi06dOnjxs3ztTUVJLh22w228XFZcqUKRQtVQNk1rt374CAAKnewmQy7e3tBw0aFBcXN23aNCsrK6m28QZAUdQ9AvPz84uNjVXyVDUulxsYGAjz49oDDQ0Ne3t7qnN5/vx5RUUF1bkACdFotKioqJUrV2poaEj+M9TU1AwPDx8zZgzcrduV8ePHm5iYyPBGNpttb2+/YsWKffv2eXt7wwUZKJ+6R2AHDx5UfqYoikq+bCCglKampq6uLtW5JCcnV1ZWUp0LkNDChQv37Nkjw7ozRkZGa9eujYqKUtSOsUB+4eHh8rydyWT26dNn7969w4cPV1SRAJCQWkdgU6ZM4fF4KslaS0sLVgVrD7y9vTt16kRpFg8fPiwpKYHF8dsDFEXHjh07e/Zsck9PGd6uq6s7atQoGMTdTkyaNInFYsmfjqur66pVq4YNGybbThgAyEZ9IzBdXd1x48Yp5NcrAw6HA9Mh2wN3d3dKQ2GCIFJSUgoKCqjLAkjOwsJi5syZsnVakVAUDQ4O9vf3h04rldPV1Z0/f75C1tDGMMzZ2Xnt2rVdu3Y1NDSUP0GgciiKfjq1WdXFaZ6aRmA0Gm3Dhg09evRQVQG0tbV1dXXb7ddCfVBdC/X19VlZWUVFRdRlASTE4XDi4+P9/f3lHMjF4/H69u1ramqqqIIBGaAoGhQU5ODgoKjfLxmEbdu2bfbs2VTvjAKow2QydXV1LS0tu3fv3qdPHx8fH1dX18DAQA0NDR0dnfZ2z1XTFteoqKjo6GgVFsDIyGjs2LGrVq1qbGxUYTHUnImJiZOTE6VZFBcXP3jwQCAQUJoLaBOHw1mzZk1QUJBCLsGDBw++ePHi6dOn5U8KyMbExOTnn39W+IA8X19ffX39p0+fnjx5UrEpA0oZGBgMGDDg48eP0dHRjo6OPB7PwMCATqfz+XyhUMhms+/evcvlcs+cOXP27NmsrCxVl/e/1DEC8/X1XbRokWwDQRSFRqPduHEDnrRUy9PT09bWlrr0CYKorq7OycmBtdRVrlevXqNHj1bUE7CBgUFoaChEYCoUERHh5uZGRcqWlpbLli3j8/kXL16EX247h2GYqalpYGDgyJEj/fz86uvrraysmEwm2QWJIIi2tjZBECiKhoWFoSjq4OAQHh5+/Pjxy5cvFxYWqnxnKrWLwLhc7po1a7y8vFRbDHKZR2gAUy0jIyNKA3Ecxx8+fFhbW0tdFkASzs7O8+fPV+D4HjqdbmNjQ6PRYIKFSpiYmIwePZqiZUFoNJqHh0dcXNy7d++eP38OQVi7paur27Nnz0GDBvXu3dvCwqKlFQbI5y6yudTExMTQ0NDV1dXR0XHHjh25ublKLfEX1K4NZvDgwX369GnzMHJXOEp5e3urah4AIBkbG7PZbHlSaOV7QhCEQCBISkri8/nyZAHkt2zZsqCgIMWmaWRkZG1trdg0gYQiIyN9fHyoSx/DMHd39z///LNbt24wO7IdotPpAQEBe/bs2bt37+TJk21tbSVf4IlGo5mYmMyaNevnn3/u27evaqfEqVcERqfTu3TpIskvSgnj9bp06QIRmGr17NlTS0tLnhRa+Z6gKJqdnV1aWipP+kB+33zzTWRkpMIHDLm4uMi5EhWQmbe3t5zPTpLw9/fftWsX7Oja3tDp9MjIyEOHDg0bNkxfX1+2mzWLxYqOjj527Nj+/fv79eunqlFJ6hXdOzs7T5w4UdWl+C9XV1eIwFTLwsKC0lD7yZMn79+/py590CY6nb5ixQoqFkDGMAzWZVUJQ0NDpcW+Li4ukZGR9+7da2hoUE6OoHX6+vo//PDDwIEDO3fuLGc3NI1GMzAwGDx4MJfL5fP5qampiiqk5NQoAmOz2UuWLFHmDtytMzY2hpXxVUtLS4u6CEwkEhUXF0MEplpubm7m5uYUJQ79Uyrx/fffGxsbKycvGo02cuTIjIyM/fv3i0Qi5WQKmoVhGDn+b8aMGZqamgq5dJP70/Ts2bOuri4zM/Pjx49KGID0KTXqhZw5c+bQoUOpS//TmpOkFteuXQsj8VXIx8dHX1+fut/bhw8fHj16BCO1VcjGxmbTpk0UJU6j0by8vGBnCyXr3LnzuHHjlLmqk4mJyaZNm5SweyxoBZvNnjBhwpEjR3788UeFPzmzWKz+/fsfOXKE0sGFzVKXCExbWzsiIoLSoQOffifa/H7gOK6hoQEt2yo0evRobW1t6i7l7969e/jwIUWJgzahKDpu3LiePXtSlwWXy4UFZZRJQ0MjJiZG+WvWc7ncJUuW2NnZKTlf0GT58uUbN24MDg7W0dGhIn0NDY0+ffosWLBAyc9U6nL5GDhwoJ+fX/tZD1csFl+4cAHawFQFRVErKytKvw8vXryAdShUyN7efvDgwRQtWIAgCI7jz549g4coZbK1tZ06dapKot7o6OgJEyZAv7PyMZlMZ2fn6OhoXV1dSqsew7CQkJCJEydqa2tTl8vnmSotJ9XavHlzu/rx0Ol0FosFS6WrkKWlJaURWFpaWlVVFXXpg9ZFR0e7uLhQmoVQKFTyqBE1N336dElG9RHNkTNrBoMxdOhQf39/OdMBUjE0NJw6deqff/5J9eWaxOPxVq9eHRUVpbSWsHYUlFDH19dXT0+v/TSAIQiSn5+fnZ2t6lKoL11dXQ8PD+q+EtXV1Xl5eTU1NRSlD9o0a9Ysqvdcr6yshOU6lSYoKCgyMrLNwwQCQVpaWl5eHoqiNBqN/I27u7tbWloiCCLPwAM3N7ddu3YFBgbW19fLlgKQ1pIlS6ZMmSLnmkGSwzBMT09v6dKlL1++vH37thJy7PgRmJ6e3vr169vVug8EQTQ2NuI4Dg/QqmJmZkbpoMBr1669ffuWuvRB64KCgqie9YzjOEyOUxpyVJ+RkVGbR968eXPcuHF8Ph9F0aZgy9/fnxxKP3nyZCaTSW5cI0OXlpOT04wZM7Zv3940gARFUfIy3vQPoBCampohISGxsbFUhF/kPkUtvWptbT1nzpwPHz4ooZWk40dgvr6+lI7GlQGfz7906dK7d+9UXRD1RelDFY7j6enpxcXF1GUBWsFms1evXk3pkBGCIIqKip4/f05dFuBTGIZFRES0WacNDQ2//fZbUVHRZ3+/ePHipUuXEAR5/fo1jUabPHmyp6dnp06dpH0yZzAYixYtOn36dG5uLlkYe3t7cqwhQRBisZh8ribjMz6fX1JSIlX6gGRmZjZz5syRI0fq6upSkX7r7aAYhg0cOJAgiKlTp1I9lreDR2BWVlbr169vb/OVCgsLk5KSoP9CVTAMMzAwaP0xSB7V1dVv376FaRYqgaJocHBwQEAApaMOxGJxbm4uRGBKQ64d0+ZhCQkJKSkpX/69aSjYxYsXEQRJS0vr1atXaGjo4MGDjY2NJZ+ugaKooaHh0qVL9+7d261bN4IgIiMjeTweeTEngzCCIMg4LC8vLyEhgSCI2trapKQkyU9WzdnY2KxatSoqKorFYqlq7BCXyx04cGBYWFhiYiKld+oOHoGNGjXK2dlZ1aX4Pz58+HDjxo0nT56ouiDqS1tbe8CAAdT9tquqqu7fvw9dVCqhq6s7ceJEqresKSgouHTpEjRzKgeHw1m+fLkkP9i9e/dKsg9YWVnZyZMnk5OTjx07NnPmzAEDBnA4HMkvCBMnTgwNDSUjQjab/ekT/qfPde7u7r169UIQpK6uLioqilwa8K+//oIRwK2YPHnynDlzHBwclLDrVOu4XO6wYcNycnIeP35MXS4dOQJjsVjDhw9vVyPAEAR5/vz5vn37Pn78qOqCqC9NTU1XV1eKEsdxvKCgoKioCNo4VcLT07N///6UZkEQxJMnT8heLaAEfn5+gYGBrR9DEMS9e/fu3bsnebLV1dWpqanv3r3LyMiYOHGilZWVhL0lKIpaWFi09FLTv+l0OtmJpqOjEx0dTTbC+fj43L9/X/JCqg8URTt37jx79mx3d/f20G2FomhERISWltbYsWOpW3RG9edJHXIdEVWX4v8gCOLmzZuZmZlwe1YhBoPB5XIpSlwsFl+9epXP51OUPmgFhmH9+/enaOwIiSCI0tLShISEV69eUZcLaKKhoTF+/Hgej9f6YQRBTJ48WYY7ZW5u7urVqzdt2vTu3TuKhtKjKMpisdhsNpvN9vDw8PT0pCKXrxqdTnd1dd2wYUM7Cb9IWlpaXbt2pW5bM6RjR2BTpkzR0NBQdSn+B8fxrVu3JiYmlpeXq7osas3BwcHGxoZOiLymAAAgAElEQVSixMVicVpamlAopCh90AobGxuq92wWi8U7d+5MTEyEcX7K0bNnz6ioqJZebYqZqqurMzIyZM7ljz/+WLRokSQ9mIAK4eHhR44coXQJZdmYmZnNnTuXuqCww0ZgOjo633//fftZhVUsFt++fTsuLu7p06fQAKZa3bt319PToyjx4uJimAClKv369aN06xixWJyenn727FlYEUo5dHV1V65c2eaDtFAoPH/+vDwZCYXCkydPRkdH5+TkQOUqmYmJybZt29zd3dvP/boJhmGxsbHDhw+naFxax4zAaDTa8OHDDQ0N28kqrARBZGZmbt68+ePHj7BVs8rp6+tT9MUgCCIjIyMnJ4eKxEGbPDw8qBvASxBEbm7uli1bMjIy4CFKOXx9fV1dXVv5tZIvvX//fufOnXLmJRaLU1JS1qxZc+bMGahf5cAwrHv37uvWrTM3N28nN+svcTichQsXUrQ1e8eMwIyNjaleEEhyBEG8e/fu8OHDL1++VHVZAMJisYyNjSlKnM/n5+TkQC+zSrBYLH9/f+qu40VFRZcvXz5//jx0MSuNg4MDh8Np/RiCIJKTk9PS0uTPjiCIffv27du3D2a5KgGdTvf09Fy3bl1MTEx763z8jIeHx8CBAxkMhsJTbneNfgoxevRoMzOzpv9St/JTm8hVYYYNG/b8+XNYnqA98PLy6tKli1Rvkfz7k5ubq5y9LMCXevbs6e7uTlHilZWVkyZNevnyJWzFrTRMJnPRokVtHlZQUCB/A9inYmJi6urqFJKUCm897Z+Hh0diYqKZmVk7aStphYaGxqJFi27evHnz5k3Fptzez1wGBgYGwcHBn37vVRh+lZeXL1iw4MWLFxB+tROmpqbSzpWT/PtTVVX14sUL6QsF5KWhobF48WIqLuXk5Mdvv/02JSUlPz9f4emDlsyYMaOlRR8+9ccffyiqewFF0VGjRg0fPtzW1lYhCYKWGBsbr1+/3tzcvP2HXyQOhzNu3DiFt9V9HScvFWtra2tra1WXAqmsrHz//n18fPyVK1eg26L90NPTYzKZFCWenZ0NXZAqYW1t7eLiovBnLZFI9OzZs6VLlyYlJQkEAhgepDTm5uYjR46UpEJPnz6tkHmpdDrd399/2bJlXC5XUWEBNIA1y8PD48cffwwKCvqKPh8ajTZkyBA3NzfFJtsBeyEHDhzo4OCg2jIQBHHx4sXExMSUlJTq6mrVFgZ8ysvLi7o1Sq5fv15WVkZR4qAlDAbDz89P4cuAVVVV3b59e9euXefPn4dNl5UJRdG+fft6e3u3fhhBEBUVFZmZmfLnSKfTu3XrtnPnTiriePApW1vbTZs29ejRo70tlt46FEVNTExGjBjx4sULBTapdMAIbPTo0ard0EAoFN66dWvhwoUFBQUqLAZolr+/P3VtYO/fv4e1WJWPzWZ7e3srvFpXr17922+/KWpIEJAci8X64Ycf2ryMEwQxadIkhcwuHz58+MaNGy0tLeVPCrTCwsIiMTHR2dm5nQ+9b8nYsWN//fVXBW5p09F6IaOiolT7KyovLz99+vTYsWMh/GqftLS0KEo5PT0dxgmpBIvFUuzuF/fu3Zs+ffqePXsg/FKJ1atXS7JmcmZmZmpqqvzZRURErF+/XpIxZ0Ae3t7ef//9t4uLy2edvF9RA7OlpeXo0aMVGD52qDYwFou1YMGCL9s2lTYhJS8v79dffz158mRhYaESsgPSotFo1K3Fmp6e/v79e4oSB63w9vYOCgpSSFJisTg5OfnPP/+8ePEiTHtUCTqdPmDAgDZbNOvr60+fPl1VVSVndhoaGpMnT7aysoLOR0q5ubmtWrXKz8/vyzF2qv3kpQoPUBQdNGhQUlJSbm6uQnLvUBGYjY2Np6enqipYLBZPmjTp+vXrMO2x3XJzc9PX11dggk2/XhzHCwsL4Z6tEp6engoZ28fn8//555+FCxe+e/cOepNVxcnJqVOnTm1etLOysnbs2CFn8wmXy42JienRoweEX5RydnbeuHFjnz592mHno7RV7+3tHRgYqKgIrOP0QqIoam5uTt0Qn1bU19dPnjxZW1v76tWrEH61WyiKRkVFKXbji6ZfL5/PT09Ph9pXPi6XK/8EJYIgioqKdu7cGRkZ+fr1awi/VIVOp8+ePbvNhmqRSLRu3boPHz7IkxeKotOmTdu6dSuXy5UnHdAKFEXd3d1PnDgREhJCxYqmyqevrz9x4kRFhZIdpw1MS0urb9++yl9cpLi4+MCBA3///TfsJtb+GRkZUZSyUCh8+fIlbDmlfFpaWp07d5YnBYIg3rx589133926dQtiaNVycHCIiYlp87CUlBT5R4B5eXlFRUWp5KFdTRgYGAwYMGDevHlOTk4dqZWxS5cufn5+CtmGoeNEYDo6OqGhoUrOtL6+PjU1NS4uDkbstn9sNtvGxoaKCwF0QaqQtrZ2p06dZH67WCw+derUkSNHLl++rJBlpYDM6HT6qFGj2tyGCEGQu3fvyrlxEI1GW7FihZeXV0eKDNoVBoMRExPz3XffderU6WtZdlVCOjo6c+bMuXfvnvwPbB0nAgsJCfH09Gz250TRSHyBQLB58+Y9e/bAil9fBTMzs5a+IXISiUQnT56sra1VeMqgTUwmU55mjLNnz86ePbukpESBRQKy8fHxGTVqVJuHEQTx77//yrM6LoZhgwYNCg0NhQYwivB4vOjo6Pnz55ubm6u6LIrHYDAGDhxoYWEh/2iwjhOZ+vn5tTTEh4qbLp/P//nnn3ft2pWXl6fwxAEV9PT0KFqKQigU3r9/H1pQviI4jt+5cycqKuqbb76B8KudmDJlip2dXZuHXb58Wc4uSDMzs927d1O3MrM6wzDMwMDg77//7tgLfHA4nPDwcPlHg3WQNjALCwvFLgjUOpFItHr16s2bN8OI3a8FiqLa2toUzcQpKSmBu7gKSTshDsfxBw8ejBs3Ljs7+ytai6hjc3d3Dw8Pb/Npub6+ftWqVfI0gOnp6c2YMcPExETmFEAr/P39Y2Ji+vTpg6JoB+7hxTBs/Pjxf/31l5yboHSQCMzS0lJp4XZpaWlwcHBubi6EX18RNpvt7+9P0WScZ8+evX79moqUgSQEAoGERxIEIRAILly4sHHjxqysLEpLBSSHYdjKlSsNDQ1bP4wgiMePHz99+lTmjMi9t6dPn96BgwMV0tPTW7hwYVhYWAcb+NUsLy8vMzMzOSOwDvIxeXl5mZqaKiGj/Pz86OjozMxMCL++LlpaWj169KCiDYwchg/bQaoKn8+vqKiQ8ODKysq4uLj58+crZB4TUBRLS8u+ffu2uVJMRUXFli1b5Jn2ZGJiMnHiROqWZVZbNBrNyMjo2LFj/fv3p27fERk0NDRUV1e/ffsWx/HU1NSma0VNTY2c4+jpdPrgwYPlfKrvIG1g3t7eVG/zieP4jh07zp07d+3aNUozAlRgMBiKXYu1SXl5+fPnz6lIGUiorq6uzdk2AoHg5s2b69atu3XrFsxabVeYTOa8efO0tbXbPPLixYunTp2SJ6OoqCgfHx+ZUwDNotFoISEhCxYsUMmCUF8iCKK8vPzRo0elpaUFBQXXr18vLS3t0aNHfHy8n59ft27daDRaUVFRz549AwMDGQyGhoYGiqIyPJ/37dv377//lqc1vYNEYFTvKUEQxIsXL1asWFFZWUldLoA6ZmZm8qxZgCAI8f8JBAImk4miKHmtKSwsTE9PV1AxgdSqqqquXr3q4+PT7LqaZJW9f//+7NmzGzZsePfunfJLCFrn7Ow8efLkNi/g5eXlu3btkmcEWO/evZcsWdIeQoQOxtXVdeHChb1791bhZ0sQhFAoxDDs3bt3eXl5//7779GjRwUCgVgsJgfpPn78uL6+/uzZs1evXkVRVCQSnTp1qnfv3lwu19vbW0dHJyQkhE6n0+l0yWMJV1dXb29vdY/AMAwzNTWltO7LysrCwsIg/Pp6BQQEGBsby/BGcpHVhoaGR48evXnz5u3btw0NDXV1dXZ2duHh4Z06dTp16lR5ebmiywskVVpa+ubNm/fv3ze76qNYLN6zZ8+///6bkpJSWlqqkhKCVtBotNGjR0vSb3Xx4kV5RoCx2ewxY8bIdhEArfD09Jw7d26zGz5SoaXW7pKSkkOHDunr6ycmJubk5BQUFHx2vyaXTBeLxU17idbW1r579w5FUR6Pp6enFx4ebmFhMXXqVBaLJeG5GBgYhIaGHj9+XObT6QgRWOfOnTU1NalrA8vMzJwwYUJRURFF6QMlsLa2lnY/IrFYXFdXt2/fPnIP4MLCwtraWrIDSyQSaWhobNu2jcPhFBQUwDoUKkS2T1+8eFFDQ8Pa2rrp7/n5+dnZ2Q8fPly5cmVdXZ08bSeAOv7+/tHR0W0eJhaLd+/eLc+Sex4eHhERETAAX+FiYmJGjhyptKU9vqxBHMffv3+/dOnSU6dOMRiM6upqySc4C4VCBEGKi4s/fPiQlZXF4/EePHgwadIkR0dHSUaWYxjm4eHBZrNlHhfeESKw4uJi6vb7fPv2bWxs7P379ylKHygBk8mUfKIG+evNy8v7/fffHzx4kJaWJhAIyB/qp+rr62EpuHbi1atX+/btIwjCw8OjtrZWW1vb1tZ20qRJOTk5paWlsF9FezZlyhQrK6s2D6uqqpJn8oSGhsYPP/wgyWr7QHIMBsPY2Dg8PFxTU1MlBRAIBG/fvr18+fKZM2euX78uz8h6shPzw4cPR48eTU9PDwoKCgoKGjVqFJvNbv2N+vr6xsbGMt8LOkIE1rNnTyq2ViVH/MydO/fx48cKTxwok42NjZOTkyRH4jj+7t27O3funD179vz587DbwVdBIBBkZWWdP38+OTm5vLzcyMiIxWJdv34dtuls5zw9PcPCwtpslyII4tixYzK3YjIYjBEjRnTr1k22t7dUJPIfNTU1OI6Tp9DUEIBhGDmyu2miXIdse+NyubNmzZJzV1YZEAQhEok+fPhw9erVI0eOPH78uLS0VFGN3GKx+NWrVwUFBampqZqamm5ubs7Ozq1UH4/Hk7Z35VMdIQIzMzOjYp0noVD422+/nT17FtZs/NrZ2dlJsjkGuVDnwoULb9++LRKJoN6/IgKBICUlhfw3hmEEQUC3Y/u3Zs0aSQZmFRcX79mzR+ZcLCws4uLijIyMZE7hU+Rloaam5uPHjxiG/f777yUlJeTuRiiKklPyMQxjMBg2NjbR0dF0Oh3DMErHyagKg8Ho2rVrm61EikUQRFVV1fnz548fP56amipVn6Pkamtrs7KyFixYYGdn99tvvzk4OLRUfUwm08fHJzs7W7aMvvoIjMFghISEKPxL8Pbt2x9//DE+Pl6xyQKV4HA4bcbotbW1e/bsWb9+PQz4+0o1XYih6eurYGFhERwc3OYAEpFIdOLEiYyMDJkzWrt2rampqUICoMrKyvz8/HPnzuXk5Fy7do1Op+fn5wsEgk8Tb/o3l8vdt28fjUbj8XixsbEMBgPDsODgYPmL0U6YmZlZWloqM7IkCCIrK2v8+PEvXrwgWx8pze79+/eFhYUjRoyYNGlSWFiYk5PTlyP0WSxWbGzsyZMnZbvsfPURGIIgTCZTgVEwQRC3b9+eM2eOPPNuQLtiZmbWykgFgiCeP3++ZcuWM2fOwMKqACiBkZHRkiVLJBmYVVRUtGPHDpmH+Dg7Ow8ZMkS29zYRi8UCgeDu3bvnz5+/d+/eo0ePRCJRQ0MDiqKt3HrKy8srKirI7sgnT54gCIKiaFhYGEEQ+/btk7NIKoeiqI6OjtIWX8VxvKSk5P79+wcPHrx7967SWrhxHM/IyFixYsXp06cnTJgwZswYcimipgMwDDMzM2OxWORcS2l99RGYUCgsKSkRCAQKGQxIEERDQ8P48eNzc3OhF6PDcHd3J7sJviQUCp8/fz516tSnT59KvrkNAEBmKIpGRUXFxsa22XyC4/jevXtlXm+JyWQOHz6czWbL3E5Ddmc/f/78n3/+OXr0aG5ublVVVVPU1eaTP7kcHY7jBQUF5F+OHj2KomgHiMAwDDM2NpZ5ckObSyh/dnBqaurx48evXbum/FszQRDV1dU3btzIz8/ncDiBgYEmJiZNY7/IO4jMK3F89REYgiCZmZmKisBEItGRI0dk7tMF7ZOrq2uzv3axWHzmzJmffvpJnj4OAIBUHB0dY2JiJLliv3///sCBAzLfcTt16iTnFpCVlZVv3rz59ttv7927p5Abf4fZzk4sFr98+bKoqEiSzQy+JHml4DheVlY2f/78J0+eqHBsLkEQubm5c+fODQwMnDBhQnh4OIIgKIrm5eXV1dXJ/PTeESKwjIyMhoYG+bf6evr06cyZM2/duqWQUoH2o9kHtdra2m+++YacPaf8IgGgtsaMGePn5yfJkXfu3JFnG4P58+dbWFjI/PaCgoJFixYlJyeTi6qDz+Tl5b1586aVUeryS0tLI6elP3/+vD1MjSosLDx9+nRKSsrw4cOdnZ11dHSuX7+enZ0t89jTjhCBPX/+nM/nS9Wq+aUXL15MnDjx4cOHCiwYaA8cHBwMDQ0/+2NDQ0NUVNTVq1e/XOgLAECdTp06jRkzRpIJ/CKR6Ny5czLfd4OCggYNGiTbewmCKC0tnTVr1uXLlztMq5XC1dbWvnz5MjQ0VOGbMhMEIRaLs7Ozv/3225cvX5Ibvyo2C5mRbXKHDx82MTEhhy3x+XyZ20c7QgRWXFxcXV2N4/in02okD8jIpdi2bt0K6351SMHBwZ+2jxIEUVlZeerUqcuXL6uwVACoIRqNtnz5ckmWhkEQJCcnJzExUbaMMAwbM2aMhBl9Bsfxjx8/btmy5cKFC/CE1gocx3Nzc8vLy42NjRW4JZFIJCopKblz587hw4cfPXrUPqc2CwSCptZZuaJDQkqKKb6iJSUlkc1g0hKLxZWVlRs2bJBnUTUVkuGUJdG0tFIHsHHjRhzHm06tsrJy6tSpqlrEWTa9evWCilYHFNVy+6loIyOjxsZGSQosFounTZsmc0a6urpFRUWyfVY3b96cN2+eAs/6S7IVTBKUFvtLTCbz9OnT9fX1iip/bW3tsWPHBg0apKurq+RzUThJrttfZdjxpZycHJFIJENb6OzZs8+ePds0UQV0MAwG47M9T0JDQ8nJ5KoqEgDqSUtL659//pFw9exbt26dPn1a5rwOHTok+RKsixcvTk1NJf9NEMSTJ0/g+iChxsbGhQsXikSiYcOGydOKgeM4ueXu7NmzExISyJBOccVsvzpIBFZQUCBtWyWfzz916tSxY8c+20EddCQGBgYeHh7ksj3l5eWbN2+G8AsA5dPU1BwzZoybm5skBwuFwqNHj378+FG2vFxcXCTZ7Ojy5cvx8fEpKSllZWXk7R/IIDc398aNGy4uLg4ODrIFYTiOHz58uL6+/tmzZ0lJSWq1kWsHicAKCwsLCgpYLNZnq6V9iSAIsVicl5e3bds2CL86PH19fUNDQxzHs7Kyfvvttz///BPCLwCUz8PDY9GiRW2ugE968uRJYmKibK0gLBZr6NChrfSHNDY2lpaWxsXF/fHHH42NjTJkAT4lFotPnjxZV1e3ePFiU1NTDQ0NCUdgk4NDGhoa7ty5s2rVKnL4l9rNe5C2m1bV5W0eg8H4/vvv09PTxWJxK4UXi8W5ubmbN292c3PrGLt0SVt9Emono0bk5+PjU11dfeXKFcXuy6tkMA5MTVBUyyqvaB6Pd/To0U/L8+nQzC/16dNH5pHdLi4uxcXFLaVcV1c3atQoxZ6dDBRWr19QyemQG1/Gxsamp6dXVFS0fhcmCEIsFpMzCpOTk6dNm9apUyeVFJtqajQOTCgUHj58mMfjGRoaWllZNRtd1dXVXbhw4ffff09NTYWGEHXAYrG6du1Kp9N/+eWXtLQ0VRcHADW1bNmyiIiIT//SygNwaWnpq1evZJ7eP2fOnJZGgO3atWvXrl3Pnz+XLWXQEhzH6+vrjx07Vlxc7OnpOXz4cEtLy06dOn1Wy0KhkEajZWdnMxiMhw8fPnr06I8//igvL1fn23EHicAQBCkrK0tMTDQ1Ne3Zs6eBgQE52Y3cz4vP5ycnJyckJFy9erW2tlad61utsNlsCwuLyZMnp6SkqOrpEAB1hqKop6fn4MGDW9oW7DMEQaSmpso8Aqxnz54hISHNhncJCQkLFy6UbfM+IAmhUHjnzp3Hjx9nZmaS23HW1tbiOO7t7Y2iaHZ2dkFBQX5+/qNHj+rr6x8/fiwQCGCp244TgTU2Nt6/f3/58uXh4eFDhw7V19c3MTG5ePHigwcPGhsbT506VVVVpeoyAqXi8/knT558+vQpxNwAqASbzd64caONjY2Eoz4EAsGOHTtkHp41btw4a2vrz/747t27tWvXkjPsZEsWSKi6urqmpubKlSvXr19/8OBBSUmJjY2NhYUFi8VKS0urra0tKCjg8/lisRhG4P3XV9HNLANdXd2lS5dKOPDz6yVt9UkIhge1KzAOTE1QVMuqqmgOhzNnzhwJFwAjnTlzRubseDzex48fP0uwoKCgHa71qNC6/T9UfWafwzCMwWB0+Btxs9RoHNiXKisr16xZo+pSAACAmlq2bNmUKVMkD4AKCgp27dolW14oih49epTH4336x1evXoWEhEATuArhOK6QHc07KoXtJAAAAACQzM3Nx44dq6enJ/ms85SUFJlnzLBYrL59+36aV2Zm5ujRo9+/fy9bggAoQYdtAwMAAKASurq6q1atMjExkTz8IgjiwIED1dXVsuXo4eHxaWNbTU3NiBEjYNojaOcgAgMAAKAYKIo6ODisWLEiKipKqtE/O3bsuHnzpmyZGhgYzJ8/v+m/WVlZjo6O0PkF2j+IwAAAACiGg4PDxo0bQ0NDJdz/kVRVVbV9+3aZ10Pv1avXsGHDyH9nZmYOGTIEwi/wVYAIDAAAgAKYmprGxcWFhYVJFX7hOP748eO3b9/KlqmWltakSZPIbYhev349evTorKws2ZICQMkgAgMAACAvDoczfvz4QYMGSRV+IQjS0NCwdOlSoVAoW75Dhgzx9/dHEATH8f79++fm5sqWDgDKBxEYAAAA2aEo6urqunTpUj8/P2nDLwRBTp8+fevWLZlznzZtGo/Hw3GcwWBA5yP4ukAEBgAAQHYYhgUGBvbo0cPU1FTa9+bn58fHx8ucNZvN9vPzEwqFSUlJEH6Brw6sBwYAAEB2YrE4ISHh5MmTkq890eTmzZsyT4FEUXT8+PEsFuvSpUuRkZGyJQKACkEEBgAAQC6VlZXbt2+/e/eutAvQ79q1q66uTrZMjYyMFi9evHfv3piYGNlSAEC1IAIDAAAgr9zc3IiIiE2bNlVVVUm4QWFcXNyDBw9ky47BYAwePNjc3Hz27Nk1NTWyJQKAakEEBgAAQF5isbioqGjLli379++XZGn76urqQ4cONTQ0yJadmZnZhAkTYmJiZJ5ECYDKQQQGAABAMT58+PDLL78cP368sbGxlZYwHMczMzOzs7NlzigkJCQ1NfXvv/+WsL0NgHYI5kICAABQmOLi4nnz5olEot69ezs5OTV7THp6+uTJk2VuvnJwcPj3339h6S/wtYM2MAAAAIpUV1e3dOnSCRMmXLp0qbCw8LNXKyoq9u7d++LFC5nTf/PmDYRfoAOACAwAAICCVVRU3L9//8cff1y0aFFqamptba1YLCZfSktLu3DhgjyJQ88j6BigFxIAAIDiicXi+/fvP3r06P79+7Nnzw4MDOzcuTOHw4mPj/+yYQwANSR1BKavr29hYUFFUYC08vPzKUqZTqd36dKFosSBtAoKCihKGSq6/RAIBNQlrvKK3r9/f3x8PJ1Op9FoNTU16vyto7SizczMDA0NqUsfSE5bW7vNY1BozgUAAAAAUDIYBwYAAAAAoGwQgQEAAAAAKBtEYAAAAAAAygYRGAAAAACAskEEBgAAAACgbBCBAQAAAAAoG0RgAAAAAADKBhEYAAAAAICyQQQGAAAAAKBsEIEBAAAAACgbRGAAAAAAAMoGERgAAAAAgLJBBAYAAAAAoGwQgQEAAAAAKBtEYAAAAAAAygYRGAAAAACAskEEBgAAAACgbF93BFZRUbF8+fL//Oc/V69evXPnztKlS6V6+4ULF/7zn//w+fyKioopU6ZMnz49NTW16dUHDx5Mnz791q1bCIK8fPly7NixfD5fwScAJHP27NkZM2asX7++urp63rx50r592rRp165dI//96NGjHTt2NL1UX1+/fPnyFStWCASCxsbGdevWbdiwQWHlBlJSSEWLxeLNmzfPmjUrKSmp6SWhULhmzZrFixfX19cjCLJ169b58+crsuhAGor6RQuFwp9++mnRokVNL31Z0cuWLVNgyYHk8vLyFi9e/N133z158iQxMTE+Pl6qt+/cuXP16tWNjY3Pnj2bO3duXFzcp7fgmzdvzpo16/79+wiC3Llz55tvvlFw6ZWCruoCyE4sFs+cOXPJkiUuLi7Jycmamprk30+fPo0gSFhYmKamZnJyckVFRVBQEIfDuXjxoqam5pAhQ5pSyMnJGTx4MJvNLi0tDQwMnDRpUtNLAoHgp59+On78+IABA06cOOHk5BQYGCgSiZR8jgBBkEOHDmVkZPz6669ZWVnl5eXkH2/evJmfn+/u7u7m5paXl3f79m1LS8vAwMArV66UlZX16dPH2Ni4KQUul9u7d2/y3ydOnCguLm56adeuXb169aLT6UlJSVFRUSNGjPjhhx+UeXagiaIqmiCICRMm6OrqTp48efDgweRLBw4ccHR0tLOzi4+Pnzp16ujRo4cNG6aCkwQKreiYmJjFixd37ty56aUvKzo2NlbZZwgQRCQSfffdd2vXrrWwsLhw4QKGYQiC1NbWXrx4kc1mh4aGIghy6dKlxsbGsLCw6urqW7du6ejohIeHN6Xw6NGjefPmMZlMgiBWrfgOHQgAACAASURBVFp148aNnTt3LliwAEEQsVi8d+/eLVu2hIaG/vvvvwEBAcnJyao6U3l8xW1gr169EolE7u7uNBqtf//+TX/38/PT19f//vvva2pq8vPzhwwZgmFYXFxcaGioq6tr02EfP3589OiRlZUVgiB0On3Pnj1Dhw7NzMwkX83JybGxsWGz2eHh4W/evEEQxMbGJjk5GZrBlO/s2bPr1q1jMpkuLi7W1tbkH6urqyMjI3/++WeCIEJCQsLDwy0sLB4/fnzlypURI0awWKymt1+/fl1LS4v894EDBwYPHkxeC0h5eXl9+vTp2rVrSkoKgiC6urrZ2dn5+flKOzvQRFEVjaIoj8cLCAhoursjCPL06dOoqChnZ+erV68iCMLlcmtqarKyspR6hgBBEMVVdF1dXU5Ozs8//7xo0aLGxkby1S8rury8HCpa+dLS0nr06GFvb89msyMiIsg/4jjer1+/6urqP//8MzU1VVdXd+DAgSiKbt26ddiwYebm5k1vLywsfPnypb6+PoIgHh4e2traNTU1PB6PfDU7O9vBwUFXV3fkyJGlpaUIghgZGZ07dw7HcaWfqFy+4ggMRdEvP24cxydMmDB27NisrCwtLa179+6FhITw+fwpU6aEhobu3Lmz6UhtbW0URel0OoIgJiYmt27dOnTo0NixY5sSJwgCQRCCIFAURRCERqPp6ekxmUwlnR74/8iK+MyzZ8+cnZ0vXbpUUlKyc+fOgICAy5cvu7q61tTU+Pr6lpWVNR1pYGBAfk8qKyuzs7MDAgKazYWsZQzD6uvrm37nQJkUVdGk9PT0AQMGVFZWfpZg08+5oaHByMiImlMBrVFUReM4np+f//fff4eFhSUmJn6WYFNF8/l8qGjlwzDsy4qura0NCQlZvHhxdna2r6/vr7/+OmTIEKFQOGjQIH9//0uXLjUdyePxBAIBjUYj/5ufn5+WljZ+/Hjyv1/eoAmC0NHR+fTp+qvwlRX3U46OjmSMJRKJEhISyD8eOnRo8eLF8fHxBEEIhcLVq1evWbNm586d5eXl9+/fLygoaHoYYrFYXbp0ycnJQRAkKyurvr7+4cOH9vb25Kt2dna5ubkNDQ1nzpxxcnIij/H19f3qKrgDGD169IwZMwQCwePHj1+/fo0gSFlZ2YkTJ54+ferv7y8Wi5lMZkZGxtmzZ6urq1euXHn27NlTp041vd3FxaWhoQFBEDabHRAQcO7cuXfv3uXl5ZGv2tvbnzt37vr16/369UMQpLy83NXVtanNDCiToiq6sbHx9evXAoHg5s2bTT9YX1/fgwcPPn78mGwvr6ysNDAw0NbWVsWJqjtFVTSHw7G2ts7NzX3x4gV5lUaaq2hTU1OoaOULCAhITU19/vx5fX39/v37yT8eOHDgxIkTv/zyC3mDPnLkyMyZM1NSUgwNDR8+fPjnn3+SDVoIgrDZbA8Pj5KSEgRBXr16tWHDhnXr1jX9nG1tbV+9elVWVnb48GFDQ0MEQT5+/NijRw9VnKhcaCtXrlR1GWSEomjfvn3/+eef69eve3l5derUSUdHZ9CgQUlJSRoaGk5OTq6urnv37i0rK5s5c2ZBQcFff/3Vt2/fwMDAphSePn0qEonc3NxKS0sPHz7M5/N//PFHBoNx7tw5JycnLy+v/fv3z5s3j+ypPHfuXFBQELSBKZ+Li4u2tvbx48f5fH5AQACTyXRzc9PX1//333979uzp5uaWnp5+6dKl2NhYHo935MiRFy9eTJw4sWlcIIIgZ86cGThwIJ1Od3BwINuu/fz8zp07p6+vHxgYeP369aqqqqioKBqN9v79+0ePHsEIIZVQVEXjOJ6UlHT16tWIiAh7e/sbN25oaGj4+/s/fvw4Ly8vNjaWTqeXlJQkJyfDCCGVUFRFoygaGRmZkJDg4uISHBzcUkWnpqZGR0er8HzVE4ZhwcHBFy5cuHfvXmhoKI/HMzAw6Nmz5+HDh52dna2trXk83t69e0UiUVRU1KNHjxITE2fMmPHpSKFr1645ODiYm5s/ePCgpqbmzp07AoHA2Ng4ISHB09PTxsYmISFh6dKlZmZmCIKcP3+eHFv2lSHUWElJyYQJE8rLy9s88syZM999951YLFZCqYDC/f777ytWrGjzsJqamujo6Ddv3lBfIkAJCSuaIIgRI0Y8fPiQ4uIAqkhV0U+fPqW4OIASb9++HT16dHV1dZtH/vrrr3FxcUooksL9tzNVclVVVRTFgkAGOjo6VCQrFotra2upSBnIAMMwLpdLRcpQ0e0KRT9nBCq6naGuouEG3X7Q6fS2B7RIG7IppeRAUhQE5QRBEOTEQNBOdO/eHSpaHVBUy1DR7Q11Fa3qMwP/06tXrzbrC8aVA9DeMRgMVRcBAACAgkEEBgAAAACgbBCBAQAAAAAoG0RgAAAAAADKBhEYAAAAAICyQQQGAAAAAKBsEIEBAAAAACgbRGAAAAAAAMoGERgAAAAAgLJBBAYAAAAAoGwQgQEAAAAAKBtEYAAAAAAAygYRGAAAANA8Go1ma2uro6Oj6oKADggiMAAAAKAZxsbGY8eOjY+PHzduHIfDUXVxQEdDV3UBAAAAgHanc+fO06dPHzZsmK2tbWFh4YULF2pra1VdKNChQBsYAAAA8H9oampOnTr1m2++sbe3xzDM1dXV0NBQ1YUCHQ20gQEAAAD/w+FwYmJixo8fr6urS/6lc+fOTf8GQFEgAgMAAAD+KzAw0NfXd/ny5QYGBk1/ZDAYMBgfKBxEYAAAAACCIAiPx1u8eLGDg4O+vv5nL9na2jKZzMbGRpUUDHRIEIEBAAAAiJaWVmRkZFBQkI6ODoqin71qb2+voaEBERhQIBiJDwAAQN0xGIwRI0asWrVKV1cXw5q5M3bu3FlLS0v5BQMdGLSBAQAAUGs6OjojRoxYsmSJsbHxl61fJE1NTQ0NDSUXDHRs0AYmFyaTqampqa+v7+Xlpaen16VLFxitCQAAXxEMw0aOHLlkyRIrK6uWwi8EQTQ1NY2MjJRZMNDhQRuYLNhsto6OTr9+/Xg8nr6+vpGRUWBg4I0bN7p3756SkvLs2bOUlBSCIKqqqsrKylRdWAAAAC3y8fGJjY21sLBotvOxia6ubufOndPS0pRWMCAzFEVpNBqCIARBkP8ViUSqLlQzIAKTAo1GQ1HU2dl5/fr1urq6Hh4eNBqNwWCQv1t3d3cEQTw8PBobG9+9e8fn83/99dekpKSKigqhUKjqsgMAAPgcm83+6aefunfvTrZ+EQTRUjMYj8ezs7NTbumAFDAMIwhCS0vL0NDQzMzMy8tLV1f348ePdXV1JiYmhw8f1tHRycvL4/P5qi7p/0AEJikul7tp0yYOh9OrVy9yrECzP1QURVkslr29PUEQ27dv/+mnn9LT0+/cuXPmzJlXr14pv9gAAACapaOjExUVFRAQ0ErnYxM2mw29kO2Wvb19ZGRkeXn58OHD7e3ttbW1ORwOhmE4juM4TqPRpkyZwmazb968mZSUdOrUKRzHRSIR2UKmSoSUVFxcVeByuf369bt9+3Z9fb1AIMBxXMLPCsdxsVgsFArLy8tv3rzZtWtXhU+lkbb6JJSSkqLYcgJ59OrVCypaHVBUy1DRzaLRaLGxsa9evSLvxJI4fvw4g8GQP2vqKlr+sn1daDSavb39zJkzU1JSysrKCgsLGxsbxWLxl7dp8o98Pj8vL+/o0aPbt2/38vJqvd9ZTpJct6ENrA3GxsYzZswYNWqUg4ODJM9JnyLbyTAM09PT8/f337dv34ULF1auXMnn89XwpwIAAO2Hubl5VFSUnZ2d5Ldhc3NzHR2d0tJSSgsGJIRh2IgRIyIjI7t162ZiYtJ6PZKvslgsS0tLExMToVCoq6t76tSpq1evVldXq+yODCF2S1gsVmBg4L179wQCgbSfUisSEhKcnJwUVUgFFuxT8MTcrkAbmJqgqJahor/EYDB2795dWVkp1cdYXFzs4uIif+4U1TKhTjdoBEHc3d0/fvwoea/UZ8RicXl5+blz54YNG2Zqaqrw4kly3YbVKJpnZWW1devWf/75x8fHh8lkKjDl4cOH//HHH9OmTVNgmgAAACSEYdigQYNiYmKkXTxIR0fny92KgErQ6fQhQ4bo6+tL2zfVhOyeGjBgwMGDB7dv366S5XYhAmtGeHj4wYMHY2JiOByOzLXbEhqNFhgYOGvWrIiICEo7oQEAAHyJy+VOnTpVhjsuiqJ6enpUFAlIi81mN81glQeGYVwut0+fPjt37gwODlZI2aTIXcn5tX/a2tq///57UFAQl8ulKAs6ne7i4rJnzx6FfIEAAABIiMPh9OzZs1evXjI8AGMYZm9vT6fD+GnVs7GxCQwMVEhSKIrq6uqOHj1606ZNbm5uyqxfiMD+R1NTMyQk5NatW+bm5uRibtSh0Wh6enpxcXHR0dGUZgQAAKBJSEjIjh072Gy2DO/FMMzb2xsiMJVDUbR79+66uroKTJDJZHbp0iUhIcHPz08hM14lARHYfxkbG+/atSs+Pt7NzU1pmQYEBGzfvn3UqFFKyxEAANSWlpbW8OHDO3XqJNvbaTSao6Oj0m7PoCWGhob9+vVTeLJ0Ot3JyWn37t39+vVTTvcURGAIgiAYhi1evHjUqFFKXnCPRqPp6+svWLCAuh5PAAAAJA8Pj379+skzAJfD4VDdQwLaZGdn5+joSFHibm5uS5YsCQkJoSj9T0EEhhgYGCxfvnzMmDEsFkv5o7JQFO3SpcuGDRuUPwYQAADUh5mZ2aJFi8gdTWROhMPhwGB8levevbuVlRVFiWMY1rVr17i4OGtra4qy+F9eVGfQzo0YMSIpKWnp0qWGhoaqKgOdTp86der69evt7e1VVQYAAOjAMAwbOXJkeHi4PImIxWI2m21paQnT2FWIRqMFBwdrampSlwWdTu/SpcvChQtdXV2pywVR530hURTt3Lnzpk2bzMzMVP5zQlHU19c3Li5u3LhxDQ0Nqi0MkBmdTscwjMFgiMViDMOYTKZIJBKLxeResOq2XiIA7YeVldXYsWNlG8JFEIRIJKqtrc3MzHz69GlJSYnCiwck5+7u7uPjQ3UuNBpt4sSJrq6uI0aM+PjxI0W5qGkExmAwunbtunbtWlNTU5WHXyQajTZw4MA5c+Zs2LABbtVfHRqNZmZm1rVrV0NDQwcHh+LiYiMjIxqNVlhY2NDQcPPmTQRBXrx4Qfz/7clUXV4A1MvgwYM9PT2lfRe5cHlJSUl6evrt27efP39+//79Dx8+wCVahUJDQ5XTEayhoeHv7x8VFfXbb79RVOPqGIHp6urOmzfvm2++MTY2VviYSrKeZBtnwGKx5syZc+zYsfz8fMWWClDH1ta2qqpq2LBhERERvr6+DAaDzWY3NjaST9vkpr+5ubk0Gu348eMoit65cyc5ORmu4AAojbm5eXR0tAxX+9LS0uLi4u3bt9+9e/fNmzfkrs9UlBBIiMVixcTEKHajmlaw2eylS5devnw5JyeHkgyk3UqJkkIo15YtW/h8vsybSbWyTaRIJPrll1/8/PzWrl27cePGe/fuyZD+w4cP7ezsJDwX2U6hTbCLnCQMDQ3DwsLu3LmTnp5eVVXV5jdKIBAIhcKHDx9Ku7Uc7AupJiiqZTWvaENDwz179tTU1Ej1ieE4/uLFi6VLlwYEBCh8vxqKapnoEDfo1pmbm9fX11P3ATbr6dOnUVFR0naXSXLdVrs2MAzDunTpwmKxpH0jjuOvX7/GcbyxsbFLly7NHlNcXHznzp179+49e/aMwWD4+vr6+flFRkba2tpqaWlJGLa7u7svW7Zs/vz55eXl0hYSKAGGYTo6Oi4uLhEREb169XJ3d6fRaJL8OJlMZm1t7bNnz5RQSAAAqX///pGRkVJFUSKR6N27d9u2bUtMTCwpKYFhA+1Hp06dZLh9y8nNze0///nP3bt3Fd89JW0wqODslc7Gxqa4uFiqU8ZxvKGh4d9//+3SpUtISMjdu3dbOjIlJcXCwuLT7JhMpqWlZURExF9//YXjuIQNb3V1dZMmTZLkdKQ6Ecmp8xNzm1xdXVesWHHv3j1pn6rFYvHRo0fDw8M5HI5UOUIbmJqgqJbVuaLpdHpKSopUPR41NTWPHz+eNm0aj8ejqFTUVTRFBW4nyHUDqPv0WiEUCvft2yfVTA5JrttqF4GFhYXx+XypTjk3N/fbb78l75re3t5v375t6ch169Y1u7YqhmE8Hm/JkiX5+fkSXgsqKyv79+/f5ulIdSKSU9vrdeswDAsODr5y5UpDQ4NYLJbqI8Vx/MmTJwMHDpRh9V2IwNQERbWszhUdFBQkEAgkj8DEYvG6deuGDBlC6cL31FU0dWVuDzgczpkzZ6j79FqB43htbW1QUJDkpYUIrBkTJkwgB0dLQiAQ7N27183NrakDcerUqXV1dc0ejON4jx49WhmDz2KxzMzMLly4UFVV1WbWOI4/ePCgzVXKpKg5aajt9boVbDZ77ty5GRkZjY2N0n6eDQ0Nly5dmj17tmwbmUEEpiYoqmW1rWgej3fixAnJPyWhUJiYmGhqakp1Pxd1FU1psVUuICCgpfuvcjx58sTS0lLC0kpy3W4XCzEoDYPBIEfttHlkY2Pjq1evZs6cuWjRoufPnzc2NiIIQqPRunXrpqGh0exbKisr8/PziZZ/AwKBoKCgYPbs2ZcvX25zjBeKoh4eHsuWLZO2xwpQgU6nz549e8aMGU5OTtI+HIvF4oyMjIMHD546daqmpoaiEgIAPuPj49O3b19JjiQIgs/nX7t2bdWqVR8+fBAIBFSXDUgLRVE/Pz9KF2Jtk5ub24wZMxQ5M0PaGFBhGauCtrZ2ampqm+dYX19/5syZ4ODgzxq0HB0db9y40dK7Ll68SKdLNLPB3Nx8zpw59fX1bbaNV1dXL1iwoJVR3tJWn4TU84m5JTQaLTQ0tLi4WNqeR4IgRCJRUVHRxo0bTUxMZC4AtIGpCYpqWT0rmkaj7dq1S8LPp6Gh4cKFC35+fspZHpK6ilZC4VXFwMDg9OnT1H10EiosLIyKipKkwNAL+TlDQ8Pc3NzWT1AoFI4aNYrL5X7Zn7hw4cKysrKW3rV8+XLJS8LhcEJCQlpZ2IKE43hRUZGBgUFL6UhbfRJSw+t1S2g0mq+vb1FRkWzLlxQUFKxcudLX11eeMkAEpiYoqmX1rOhevXq1Mmb3U0KhcP/+/U5OTkorG3UVrbRTUL7AwMDXr19T99FJCMfxR48eaWtrt1lg6IX8XP/+/Tt16tTKAdXV1bt37z5x4gQ5ze3Tl1AUdXd3b6lPsKioKDk5WfKS1NbWXrlyZeXKlUVFRa0chqKokZHRjBkzJE8ZKBCHw9m6devx48dl282Xz+cnJibu2rULVqAAQJmYTOaSJUs+m5neLBzHN2zY8P333798+VIJBQMyCwsLU8JW2W1qbGysq6vr1auXQlJTr/XA3N3dW1qUSyQSkYN1Dhw4IBKJvjxAQ0PD09Oz2X5GHMfz8vJkWDP30KFDBQUF27Zt09HRaekYFEXnzp1748YNsv9U2iyAzFgsVteuXUeOHGlkZCTD2wmCSEtLO3Xq1MePH6Hi2j8ajUYQBJPJ1NLSIrui6urq6uvrVV0uIAtbW1tPT882uxRFIlFJSUlCQgJ1G/8BhSD7IiidoCoJkUj07Nmz8+fPP3r0SCEJqlEEpqmpaW9v39KrDx48mD59+osXL8hB982+vVOnTs3+pIVC4dWrV6urq6UtUkFBwV9//WVpablq1aqWmlhQFOXxeD/88ENGRkZpaam0WQCZhYWFLVu2TLbwC0GQ4uLi69evk/siKLZgQLE0NDQIgvD390dR1NHRMTQ0VCgU6uvrJycnX716taSkBHYJ+7qgKDpr1ix9ff02jywuLj527FhRURGGYbDsanvm6Ogo51gO+REEkZ2dnZiYeOLECYVdE6TtBFVMrqrQv3//goKCZk+qtra29b3WyVkYDQ0Nzb69pqYmJCRE5oJpamrm5OS0Oczo0KFDX75X2uqTkBqOGvmMoaHhkydP5PkMZ8+eLck9QBIwDow6+vr6J06cSEpKanarE6FQ+Pr16z/++ANBEFNTU6oLQ1Etq1tFu7q6SjhpRiwWZ2VlnThxYsSIEQrfeqgV1FW00k5ByVasWNHS/Vc5yK/K4sWL21wiqgnsSvR/mJmZffkbq6ioSEhI2LZt26tXr1p5L4ZhY8aMaWmRmMzMzNevX8tcsPr6+uDg4NjY2MWLF7ey9sTw4cNnzJixe/dumTMCrWCxWDQazdra2sjIqLS0dPLkydLu3tikoaHh8OHDFy9erKysVGwhgaLo6+sPGzasT58+dnZ2Xl5eLe0rRaPR7OzsrK2t7ezssrKyvv32Wz6fr/zSAslxudxp06ZJOKURRVEbGxtra+uuXbsGBQXt3bv39evXKIo2NDRQXEwgBQzDwsPDlbYb95dEItGrV6/Onj179OhRxXZYq0sERu7S+NlSIiKRaOHChefPny8uLm7z7V5eXs2+RBBEampqSUmJPMV7//79/v37g4KCBgwY0NIxWlpaISEh+/fvh3uAorBYLDabTX43eDyejo7O4MGDdXR0qqqqfHx8JFxb5DMEQRQVFZ05c6awsFAsFiu8zEBObDbb0dFxwYIF4eHhWlpaDAajlQUCybEBDAYjODjYzs5uw4YN165dO3v2bLNDRUF74OrqOnToUAkPRlGUrGILC4vx48fb2NhcuXKloqLi2LFjUMXtB5fLbWkIkHKUlpZeuHAhISEB9oWUkba2dnp6+qc9fY2NjadPn5ZkTimCIPb29uR46i9VV1fHxsZKssprm5ycnN68edPKh19dXT1hwoRP3yJt9Umow/dZoChqYWHxzTff/Pjjj9u3b8/JyXn//v2HDx/k/+jKy8uXLl0q29r3LYFeSEVhMBhz5sxpZWvX1onF4pycnFGjRlG0Y6BiK/dTalLR5ubmx44dk+eDqq2tffz4cWhoaEsrbyuEoqr1S9SVWYUcHR2rq6slOX3Z1gxqnVAoPH/+vK+vr7R3eVgP7H9MTU3JBesJghCLxfn5+cOGDZN8dd2RI0e29IFkZGRIMudZQmFhYc2OR2nS2NjYp0+fpuOlrT4JdeDrNZPJ7Nat26BBg9LT04VCoeTbpUuipKTk2LFjkm9bISGIwBSCwWAcOnRIKBTK84nhOC4Wi1NSUvr166fwEiqqWr+kDhXNYDCuXbsm/88Zx/H8/Pwff/yRx+PJsAaNJBRSp82iorSqxWAw5s+fT0VoJQmhUPjw4cOYmBgZGlkgAvuf//znP+TypzU1NWvXrnV3d5e8j4nJZC5evLilD+TatWsy7LXcEgaD8csvv7ReBWlpaWZmZuTx0lafhDrk9ZrNZpOPyHl5eYWFhVT8pK9duzZs2DDZui9bARGY/Hr37r1//36pNmluhVgs3rdvn8JXJ5K/YC3p8BWNomhSUpLke/62Dsfxqqqq3bt3+/n5UTH8SCGFbJbCi6pyBgYGrWxFQ7WMjIxFixYZGxvLUHKIwP4nPj5eLBaLxeL4+HgdHR2pnmzMzc1b2gwBx/HVq1crtn/a2Ng4MTGxlUuJUChcs2YNebC01SehjnS9xjDMzMysZ8+emzdvPnToEHUbu5L7IrS+5K9sIAKT08yZM+/fv99667K0KisrDxw4oNgJdAos3mc6dkWjKGplZdXsNVPmgBvH8ZqamosXL/bo0UPhLWHyVWZrFFvO9iAwMFAlu3HjOF5fX79161ZXV1fZvgAQgf3PkydPamtrT58+LcMEN29v78zMzGY/jYaGhk/7BBXF19e39QFh9+/ft7W1RSACaxmTydTR0TE0NBwwYMD27dtfvXolFAoV9Yj8JbFY/M8//3h7e1MxXBQiMHn07du3vLycik9PIBBERUUpsMmTikKSOnZFm5iYbNu2jaKP7vjx446OjooNwigqKvHV3qBbQqPR5s6dS93H1QqBQHDr1q3AwECZB3lDBPZf5ubmd+7cGTTo/7F3n3FRXGsDwGe2siyw9N6LgqigIEpsIPZyjSU2jIWrRo1dYzSJJfaCUaOxxhhNUYwVRAUrAipKUbGh9Cq97cKyZeb9sPfycpEys+zMLvD8P+QXYXbmmT3s7DNzznnOWOVuWL/88suKioom342YmBhra2uVB4wgiI+PT2VlZXOtIJPJrl69ikAG1hQ2m83hcPbv3//nn3+GhoaWlpaKxWKK3igFDMNEIlFgYCBFJZshA1MOk8ns2bOnRCKh6N3DcbyiomLhwoWqCpi6ODtwQ+vo6Bw8eJBgATAlSKXSZ8+e2draqjAJoyhUvH1+QbfA1tY2IiKCurerBVFRUUFBQc2VoCIC6oH9h62t7fTp03NycpSbYNy/f//mpky+fPkyPz+/bdE1LSEhYceOHVu2bGlyFAKTyRw6dKhyndMdm4+Pj4uLC4/HmzdvHovFYjAYNCxkgWFYcnJyVFSUVCql+liAOH9//8OHD1P6B6CnpxcYGHjv3r22VAQEbbFq1arZs2dTV6qAyWT26tXrq6++OnXqlBJLz4G26NKli7OzM/3HFQqFly5dunHjRl1dHaUH6hQZWGpqaklJiXKLTjAYDAcHhybvfsRicWpqKkVrWcjl8jNnzsyYMaNnz55NbqBYJYmKQ7dfdnZ227dvt7Gx4XA4LdS2VbnKysqLFy+2sSYcUK1JkyatXLmyS5culB4FRdE+ffoEBwePHz8e73BPIDQfj8dbvnx5C+vqth2Kokwmc+HChVKpdNeuXVCOkU6fffZZ/bQz2tTV1T19+vTq1auFhYVUH0ttJc7oVFRUpHSe1KtXr+Yu4vn5+Q8fPmxDXK34+PFjUFDQy5cvm/wtiqJqrFCnmWxsbGxsbBwcHBwcHGg7KIZhT58+PX/+fHMrigL6cbncX375pX///hRVE2h0rOHDh48ePZrqA4FGlFDXSgAAIABJREFUdHV1jxw5otrae80xNDQMCgpatGgRDccC9QYOHNiWfkDl5Ofnnzp1Kjs7m4Z7KvgKb8XgwYObWwcqNTVVKpXa2Ni4u7v/+9//7tq166xZs1xcXPT19dH/auPRk5KS1q5dKxQKP/0VjuOwlGxDKIqyWKzLly+/e/dOMfSHnuMWFxeHhoZS1BkNyGIwGDY2NqdOnSK+fFvbcbncX3/9VYV1AUGrFKsPzZgxg7YbUWtr661bt65YsYJgHW/QRoaGhh4eHjQfNC8v79q1a2FhYfQcrlP0QioNRVFXV9fmxpEYGBjs3buXyWTa2dkZGhqWlZUZGRl9/Pjx6dOnMTExFRUVCQkJGRkZbUkFMAyLiorKz8//9DkchmGw7GBDOI4nJiYWFRWJRKLJkyfb2NhQV1CxIQMDg88//zw+Pj4+Ph76odQLRVF/f/9169YNHjyY5ifE5ubmX375ZXBwMDwKpQGDwRg/fvyaNWvoXCsQRVE+n79ly5asrKzQ0FBYc4xq/fv3p3O5dARBZDJZTEzMlStXqquraTok2QkCNIWlGTgcTkJCQnMVZWT/hf2X4rmURCKprKzMy8u7cuXKlClTDA0N2zgWeMSIEYpysg3l5uYaGRmRbT6C2u/MKUX1r927d0dGRgqFQnoqKdfV1UVGRlI3MQLmQhLk4+Pz5MkT6mqOtEwkEpmbm7clfupi62AN7evr21yFIKphGJaYmGhnZ9eWuzvqwlPhm6x2R44coXQi86dSUlImTZqkpaWlkviJXLehF7IlHA7H0tKyuU8a878a9jmiKMpms/X09CwtLceOHXvy5MnHjx8fOHAgMDBQ6TAiIyP379/f8N5aLBbHxsaKRCKl99lRYRiWn5//yy+/HD58+MGDB0rPwCCFw+EMGDCgb9++9A9ZAA3Nnz9fieXbVEVbW3v58uUGBgZqOXqnMnfuXFdXV7UcGkXRXr16bdmyRS1z9DoPLS2tgIAAla8v0gKJRPLPP//ExsbSOtmCbJJIX2TqhqKon59fbW2tUsn0/8MwTCqV5ufnL168uHv37srdORkaGjYsi3Lz5s2ZM2ciUA+sGUwmk8fjjRkz5tSpU1lZWXV1dVQ/F8Ew7P3791988QUVC/rCM7BW8fn8zZs3E1y+lzrl5eXjxo1T+iyoC6zDNDSbzV62bFnbL8ttJJVKDxw4oPRjMOoCU+27rS4oijo7O9P5ccYw7PXr187OziocuALPwNqExWKNHz++7U81FCPEzczMtm7deu7cOVdXVyXy+rKysh9++CE5ORlBkPLy8nv37r148aKNgXVgcrm8trY2Ojr6n3/+iYqKSklJKS4uViRhFB0RRVEXF5egoCD6504DHR2dhQsXrlixQoUrtCpHX19/+PDh6o2hA2OxWP3791+/fr2q+onaEsmUKVPc3NzUG0ZHxWKx/Pz86geBKZIVSo9YUVERFRWVnp5O9YEagQysWTweb/LkyarKiBkMhqGhobu7+59//qlcR0liYuK1a9dwHI+JiXny5ElmZqZKAuvAqqqqHj58GBYWFh4eHhMTIxQKqf50eXt7e3t7U3oI0AiTyfzhhx82btxIaVEo4r788kt1h9Bhubq6bt26leyAy/rvb9UOSDA3N1+xYgUMPKCCjo7OpEmTaJtMg+N4QkLC9evX1VBegOzDOrrjU5MpU6Y8ePCAonHcWVlZW7ZsUSIqV1fX3Nzc+fPn10+HpiI8vAP1WSAIwuPxdHR0Ro0aFRISUlxcTPUirw8fPnRxcVHtKUAvZHNQFA0ODlZ7n1RDdXV1Sj8HpS6q9t7QCIJ06dIlNjZWiXN/+vRpfHx8QkLCmTNnnj9/HhYWlpaWlpubW1JSIpFI2nKRr6io2LdvnxLz9ZQ+YquoeOfp5+/vT+cY/MzMzNmzZ6v8CTqsSqQMBoPx888/jx8/3sLCorkHYDiOt+XZmI2NzaJFi7p37x4UFESqosT79+8nTJggFAqbrBAGmlRbW4sgyIMHDxQfaTMzM09PT+qqOPr4+CxbtmzNmjVUL2cBEARxcHCYP3++2vukGmKxWHPnzt22bZu6A+lQUBQ9ePBg3759Sb1KJpPdvn173bp1fD4fw7CcnJwuXbpkZWV17drV0NDQzMysR48evXv3tre35/P5SgwO0dPTmzJlypkzZ5qrmw2UwGazBwwYQMNqcgqKkk/379+nrwJFA5CB/Q8WizV48OCgoCAtLa0Wcqw2dk2iKGpsbDxu3LhRo0ZdvnyZ+Fc1hmHPnj1jMplQi5Ws2tra2NhYFoulKJffu3dvXV1dKqqFcTic4cOH6+vr07CiRSdnaWm5e/du2spjErzvUqxjRkM8nUq3bt1GjBhB6gOL4/jz5883bNjQMD1SVE7OyMjgcDhaWlqGhoY9evTo27fvoEGDevXqxefzSR0CRVGBQEBn7d/OwNTU9LPPPqPtcGKxOCwsTF2Xa8jA/h+fz583b973339PxXS2T7FYrH379o0ePXrWrFk4mafHUAlQOWKx+P79+69evcIwTEtLy9ra2srKSuVJmGJIvr+//6VLl2Chburo6en98ccfgwcPpmLnGIahKCqXyxVZF5PJxHFcLBZra2srNpDL5S0sC0ZDHeBOxdra+tdffyX7rmZlZX3//fcJCQlN/lYikUgkkqqqqszMzLCwsG7dui1btiwwMJDserIMBoPOJWg7A2dn565du9JzLBzH4+LiYmJi1NVlARnYf4wZM2bjxo09e/bU0tJqYycjcRYWFhMnTnzx4kVwcDANhwMSiaSgoCA0NLSqqmrVqlUtFHtrhNSfBIqiP//8s0gkom1pi86Gz+cfOHBg8ODBzc1oactHOCkpKSEhobi4ODIyUiwWGxgY2NnZ1dXVpaWl+fv7oyjK5XKTkpIUi05OmzattrbW1ta2/uUymez+/fvKHRp8ysLC4qeffiI7wUUkEi1fvvzevXsEt3/z5s26deuioqJ++OEHHR2dhg3aAhzHWSxW9+7db9y4AbdbqjJ69GiC73/bVVRU/P7770VFRfQc7lOQgSEIgjg6Oi5cuNDLy0txQafzFpbH461evTo6Ovrt27dVVVW0HbfTwjCsqKjo4cOHp0+fJtjQMpksKytLKBSamZnx+XwiAzaNjY1HjBhx584dxSg0oFqjRo1qeaoUqY+wogBjYmKiWCw+ceLE+/fvKyoqCgoKpFJpw2dgcrn86dOnip/IZLLo6GihUHjjxg1DQ0MnJydPT0+JRGJhYXHnzp2rV6+q4CQBgujp6W3cuHHcuHGkBmlVVVWtWbPm1q1bMpmM+KsqKiouXrxYVFTk4uKyadMmIssbKCoNubu7c7lcyMBUgsvlDhgwgJ6iynK5/PXr12FhYWoc1dPZMzAul9uvX7/ly5cHBASopZQ2iqLm5uZHjx4NDg4OCQmBHkYaYBhmYGBAcPi2TCb7+PHj2rVrFQskuLm59erVy8bGxsTEpOWRgv379/f29o6OjlZd4ABBEMTAwKDhdOA2ksvlivufs2fPVlRUZGRkfHo5rv9UNiyWXVBQgCBIZGQkl8tls9kGBgYYhhkbG6enp6tlSG+H5OvrO3PmTFIzLUQi0dmzZ0+ePKnE4aRS6d27d5OTk52dnRctWsTj8VpN5RUrwXO5XJgdpRJubm7u7u70HEsoFN66dau8vJyewzWN7LxNdcZKgW3bthUUFNCzemDLPn786OXlRTZ+ioLpAHPXWzZmzBgijY5hWHh4+Pjx4xEEYTAYbDZbMZXym2++yc3NVYwTao5UKn348KFKStpANYp6LBZr9+7dKjl3sVhcXV198+bNT5e9VxeVnFeT2l1DIwjC4/HOnz9P6jTlcvnff/9dP1xPac7Ozr/88kt1dTWRq0RCQoJyJcqo0MYTV7uVK1cqnj1TTSaTPXz40MPDg7pzIXLd7rwZGIqi06dPr6ysVKr5/geGYYqVs9tYwiQlJYXsl0Hbg29Se7xeE2dubn7jxg0i19bi4uJPS5yjKMrn8/v06fPjjz+2vPi3UCj08fFpe8CQgSkwmczt27d/ukq9EuLi4kaNGmVlZaUhdVwV2n5ezWlfDY0giJGR0V9//UX23viPP/6ws7NTSQDa2tpBQUHPnj1r9aqekpJCtgRgG1qyFSo5d3VhMpnh4eH0PBBJSEiYP38+pUVfoR5Y01AUtbOzmz9//syZM5UrwiaXy6urq9+8eVNYWFhVVZWXlxcTE+Pn5xcVFTV06FBvb29nZ2c2m83lcknt38HBYfXq1V9//TWp4QuALHt7ew8Pj1b7F/Lz8yMiIh49etTo5ziOi0SixMTE9PR0bW1tHMeXLVvWZGlsLpc7d+7cV69e1dTUqCz6TmzGjBmzZs3icDhK7wHH8ezs7MuXL//555/JyckwdkczaWtrL1iwYPTo0cTH8+E4/v79+z179uTk5Kgkhpqamr///jsvL2/dunV+fn4tbCkQCGxtbT98+KCS43Zm2tra1tbW9IzDjo2NjYiIUH9dJ7KZo5rDbTMmkzlmzJjLly8rseqnXC6Xy+U5OTmHDh1at25dly5d7OzsjIyMdHV1GQyGQCBQ/Nfe3j4oKGjx4sWhoaEikUgmkxFP6oVC4dSpU0ldd6jQ7u6YSfnuu+9aXahbLpcfPXrUxsam5V2ZmJh069btxo0btbW1n7YyhmElJSXe3t5tvKbAMzAEQRgMxuPHj1vu+W2Zot9h+vTpxsbG6j6bpqmwZRtpRw2NIMjUqVMzMjJInaBMJhs8eLDKv7yZTGZQUFBGRkYLf3g1NTVBQUGkdtvW5myeak+fZt26dSspKaHuzamHYdiECROoXvUIeiGbMHPmzLKysuZapYUGq6uru3z58vnz5729vRkMBpGPurm5uY+Pz7Fjx969e0e8uzM/P594PTqyzUdQ+7pek2JqahoZGdnqO5Cenu7q6kpwn/b29p9//vmHDx+aTOxu3rzZxq4uyMBQFFWsBqH0mX78+PHnn38mMsFNjVTYso20l4ZGEITH46WlpZE6O5lMFhsbS1E8DAZjyJAhubm5Td5iKf5n48aNpPapmkZtCkVvAg1YLNbatWupe2fqYRj26tUrJycnqs8IMrDGJk+e/OLFCyW6mTMyMiZPnqyrq6vE+idcLtfU1HTixIkEx69gGJaUlNTq0xcFsidCUDu6XpP1r3/9q6CgoOXTr6io+PLLL8neTw8aNOinn37Ky8trtLfKyso2LtcNGZhAIMjJyVF6gMhff/3Vv39/jVq8qEmqbdyG2ktDM5nMH3/8kexY7MjISErXIUBR9JtvvmkhL9yzZw+pHba5PZtF0TtAA1NT08TEROremXoikWjNmjU0LPsNGdj/c3Fx2blzZ1paWqvdT41UVlaeO3duyJAhbVymSltbe8SIEadOnSJycZHJZOfPnycy3oVs8xHUXq7XStixY0dNTU0L515TU7N9+3YlVhphsVimpqZHjhxp9DeGYdiuXbvasnRJJ8/AeDze999/r1z/I4ZhixYtsre3V0utGbJU3r712kVDc7ncmTNnVldXkzq1V69eDR8+nOrBQ4aGhuvWrWtu7EpISAip4YmqaNKmUfcOUC0gIKAtD7kJUtQAs7e3p+GMIAP7DwaDERkZKRKJSN1Dy+Xy4uLiFStWmJubqyRfVowSO3DgQKvPYHAcj46OJvJXQrb5CGoX12vlPHjwoIXvcgzDfvvtNwMDA6Uv6J999tn169fFYnHD3RYUFEyePFnpmDt5BjZo0KD09HQlzq6mpiYqKqrJSRKaSeXtW69dNPTo0aPfvHlD9tRmz55NTxM7OjqeOHGiyS+RpKQkUrdYqmjSplF3+pRis9mbN28m+3xECdXV1YcPH6bnpCADQxAEsba23rRpE6kbaAzDqqurr1696uLiovJnlWw2e9OmTSkpKS0EUFpaumrVKgMDg1b3Rrb5CGoX12sl8Pn8wsLCFk48OzubyNveMhMTk7t37zbqdI6MjFT6MWonz8BiY2OJnAuGYQ2/HbOysr766isrKyt1h08CRa2Mt4eG9vT0TEpKInVSGIZlZ2fT+XTT2Nj45cuXnyYK1dXVxIeNIpCBfcLa2vrhw4dtqUNB8LXPnj3z9/en56Q6ewaGoujs2bPj4+NJFRDCMOz58+eTJ09u+zdxczgcTu/evZ89e9ZkXiiTyS5fvuzr60tkV2SbjyDNv14rZ9iwYS30AotEoi1btqjkQF5eXrdv3254UcjLy1P60XdnzsDGjBlDatoyhmEymSwxMbF79+6klrLRBBS1suY3tJmZ2atXr8jeJ6enp9NWP72ei4vL+/fvFR/t+g+4TCYjNdaTkjbGcbxdfUE3NGrUqKKiIureFgWhULhx40baHop39gzMzc0tIyOD7INNoVDo7e1NdSOx2WxXV9fU1NRPAygtLV2xYoWhoSGR/ZBtPoI0/HqtHDabffTo0Rau8uHh4apaEZbBYEydOvXDhw/1O5dKpQsWLFCuc7PTZmBMJvPu3bukPsJ5eXm//fZbnz59aBhpq3IUtbKGN7SpqemZM2fIjvPLysoKDAykcw1fBRRFFy1apJjb3jADGzJkCPGdqL6B/4u6E6fUjh07aOiCfPbsWf/+/Wk7qc6bgTGZzP79+z98+JDsTVVOTs6aNWto+1TPmjXr+fPnjcK4efOmt7c3wUfrZJuPIE2+XivN3Nz81atXzT2sLi4uHjVqlAoPx+fzR44cWT+sGMOw+/fv29nZKfHX1WkzMGtr69LSUuKn8+zZsy+++MLIyEjdgSuJolbW5IbW19ffvXs32e6n8vLyVatWqesZJ4/HCwkJaThjQC6Xf/XVV8T7Q1XdvP+P0hOnTnR0NHXvSb0dO3ZQ17X1qU6agXXp0uXAgQNkH2lWVFQcP368Z8+edIbKZrO7du368uXL+jBKSkpmzZpFvHwU2eYjSGOv10pDUTQgIKC5WZByuXzTpk18Pl+1B2WxWJs3bxaJRIqjiMXiPXv2KHGUTpuB9erVi8h3s0QiSUlJuXz5smpzaPpR1Mqa3NCrV68mO/kRx/Hjx4/r6OioMWwLC4u//vqrPh4Mw44ePUp8PUqVtu3/oPSsKWJubq7E3wApioqevXr1ovOhaWfMwMzNzWNjYxvNRGu1beRy+Z49ewQCAf3PtBEE8fPzq6mpUYQRHh7u6elJ/LVkm48gjb1eK01HR2fXrl1NPhPFMCwqKopgATayBALBqVOn6v8gExISlKgE2DkzMCaTuWDBgpYzMAzDnjx58uOPP/r4+BgbG7exZIzaUdTKGtvQDAbj8uXLZLufRCLRsGHD1B074uvr23CEYnh4uNrvnHGN/4Ju0rhx49q4pHKrMAxLSEho+5LtpBC5bre/oRItmzlzJtlRXDU1NdHR0SdOnFB07VMXW3MePXp04cKFnJwcoVD48OFDWF+MCvr6+n5+fk1m2BKJZNu2bXl5eVQct7KycuvWre/evZPL5QiCuLq60lC7qGNAUbTVGqrZ2dlLliwJDg5+9uxZSUkJrPPYvmAYVl5eXltbS/wldXV1e/fuvX//PnVRERQfHx8WFlb/laGlpdXuZn5oAhaLNWTIEKontIrF4sjISA1cn7ejZWCfffYZqY9BZmbmt99+O2nSpLS0NOqiaplEIvn6669Xr15969at+/fvi0QidUXSgQ0aNMjT07PJ1OfRo0f37t2jbonWzMzMnTt3ZmVlIQjC4/HmzJljZmZG0bE6GB6P1+TPCwsLL168uGvXrpkzZ8bHxyu6MGiODajE27dviV/xampqjh07tnPnTplMRmlUREil0oMHDyqmtCMIoqenR/Mjlo5BR0fns88+o3TeDI7jGRkZf/zxB3WHUB7Zp3nqjrcl5ubm+fn5xAd1lpeX9+jRQ0OKZbPZbGdnZ7ILCJJtPoI0s89CaQwG47fffmvyTF++fOnh4UF1ABwOJzAwUNEXKRaLZ8+eTerlnbMXEkEQOzu7hw8f1hcQqaqqys7Ovn///rJly9pSNVdjUdTKmtzQY8eOJbgKZG1t7d69e5tLytXFw8Pj9evXOI7n5OQMHDiQ4Kuoa2hKT5YK/fv3r6iooO4NwXG8urp6586dpBYtUIlO1wtpYmJiaGhI5Losk8kyMjJWr16dkpKiuINRO6lUmpaWVllZqe5AOqAePXo0WV9NKpWeOXMmOTmZ6gAkEsmVK1fu3LmD4ziXy/X399eQvF/D5efnL1++/NChQw8ePIiLi9u6deuSJUumTZv266+/lpeXt8fvG9BIYWFhaWlpq5vhOH7z5s1Dhw6R6rKkwevXrw8fPiwWi42MjCgaS9qBMZnMQYMG6enpUXqUsrKyGzduSCQSSo+inI7Tb42iqJmZGZEuyJqamgcPHmzYsOHFixcakn4pwDcKRdzd3c3NzT/9+Z07d65evUpd/2NDNTU1p0+fVgwYHzlypJmZWX5+Pg3HbdekUmlSUtKHDx8sLS1ZLFZqaqpmXkaB0srLyzMyMvr06dPyZnK5fMuWLdnZ2fRERZxMJgsLCwsKCvL29jY2NlZ3OO2MgYHB0KFDqX6Y/fz582fPnlF6CKV1nGdgenp6kydPbrU7OTc3d968eV9++WVSUpJGpV+AOk5OTk3eZv34448ZGRm0hXH37t0VK1ZUVFSYmpoGBQXBYzCChELh+/fv37x5A+lXx1NSUkJk7tG9e/eeP39OQzxKyM3N3blzp0QiUW+BjPaod+/eRCpAKTrsmvtVy68tKyuLjIwUi8XKxEe9jpOB8Xi8nj17tpxNi0SiAwcOnD9/vqysDB44dRIMBiMgIKBRao7j+I8//piQkEDPAzCFioqKixcv7tu3TyaTTZ061dHRkbZDA6CZqqqq8vLyqqurm9tALpdfu3Zt7ty5dEZFVmho6LVr1+zt7WEwPnFcLnfMmDFEuiBRFG3um73V52fJycnh4eHKxEeLjpOBOTs7u7i4NPdbmUyWlJS0du3a06dPQ+7VqfD5fGdn50Y/lEgkhw4don9GlUQiuXTpUkZGhrOzM6mF5ADokDAMy8vLKyoqau63UVFR69at0/Aue5lMtm/fvvfv35OdStWZGRkZ9e3bl9IafjiO37t3T5P/eDpOBubr69vcaiQ4jj948GDevHknTpwoKyujOTCgXhMmTGg0CEwmk8XExBAZ/0uF1NTUsLAwLpfbv3//jjebDwCysrOzi4uLm7wxLigo+PHHH1NSUuiPiqy4uLgzZ85ALSHiLCwsHBwcKL0GisXiuLg4TR690HEyMCcnp+baMjc3d+LEiYmJiZpQRQbQbNy4cY26IHNzc5ctW6aueGQy2YYNGyIiIqZOnUp8+joAHVVWVlZFRcWnP1fMf1SsGEh/VEooLi6uqqpSdxTthqenp4mJCaWHuH//flxcHKWHaKMOkoF169atydk0JSUlJ06cGD16dAvjDEAH5uDg8NlnnzVKzX/99de3b9+qKyQEQWpra/fv3y+Xy9euXQujd0EnV1NTk5mZ+el6Bq9evdq3b197Sb8AKSiK+vv7U/oATCKRnDt3rsnkXnN0kGoU9vb2n5YbqK2t3bBhw7Vr1z5+/KiWqIB6MRgMR0dHfX39hj+8fft2SEiI2i/rT548efr0qaenp729/atXr9QbDABqJJfLX758KZVK62tm4jj+4cOHdevWvXv3Tr2xAYqYmJhQ2gOA43hBQUFsbCx1h1CJDvIMzMHBodGUitra2oiIiN9//72goEDtX7dALfh8/oQJExoV0d6xY0dqaqq6QqpXVVW1b98+qVQK4/FBJyeXy5OTkxUrHyh+UlRUtHHjxhs3bqg3MEAdV1dXKysr6vYvkUhiYmKKi4upO4RKdJAMbPTo0Xw+v/6f2dnZM2bMmDx5ssZWAQE0cHBwGD16dKMH3Y8ePVJXPI1ER0cvX7580aJFpBaSB6CDwXE8Jyfn48eP9RnY8uXLL126pN6oAHW4XO748eMpWgtSsQzRu3fvtm3bJhQKqTiECnWQXkhra2vFF21tbe3Ro0fPnj375s0bKLjayQ0dOtTa2rr+n2KxeOXKlZ8ON1EXDMMePnwoEonGjh0L3zegMxMKhYoSLSiKpqSkPHjwAGZNdWD6+vp9+vRR7SCw4uLix48f6+johIeHv3nzJj8/v11Moe0IGViPHj2srKxkMll6evquXbvCwsLKysrorLQJNJCent7gwYPri83I5fLY2Njz589rVJd0VVXVL7/8MnLkyDt37sCSoKDTEolEubm5crlcKBTu2bNH8zuPQFu4ubm5u7urZFc4jldVVSUlJYWEhNy9e1dHR+fDhw9isVgul2vUpb45HSEDmzBhAoPBCA8P3759e3x8fLt43wHVbGxsunXrVv/P4uLiXbt2aeC8mNDQUAzDtLW1IQMDnVZdXV1paWlJScnff/99+vRpdYcDqDVo0CBDQ8O276euri45Ofmff/4JCwv78OFDe3xu2u4zMBRF3dzcpk+fHh0dXVNTo+5wgKYYMWJEw5Ge+/btu3PnjhrjaY5UKr169SqUZgWdGY7jKSkpq1atunjxorpjAdQyMzObNGlS2/fz5s2bffv2Xb16tV1XWW/3GRiHw1m5cmVJSUl7zH8BRVAU7devX/0I9ytXrpw9e1a9IbWghXVnAegk7ty5U1xcDKNHOjxfX9+Gw3PJkkgk0dHRV69evXfvXmpqqibXuyei3WdgdXV1UO4LNMJms729vevn2jx9+hRGlgCgyfLy8uA+pMNjsVjDhg1Tugy1TCZ7+/btypUrMzIyRCJRB/iDafcZGACf6tatW30XpEgkCgsL6wCfVQA6MPiEdgZ6enq+vr71pXdJycnJiYqKOnnyZHJyssoDUxfIwEBHg6LoqFGjFB9ysVi8bNmyN2/eqDsoAADo7Hr27Oni4kL2VTiOHzp06M8//3z16lVtbS0VgakLZGCgozEyMhoyZAiCIBiGPX369OLFi3B7DQAAajdy5EhtbW1SL6n8tsa1AAAgAElEQVSurn706NHBgwczMjI63pUcMjDQ0djb27u6uiIIUlJScvTo0aqqKnVHBAAAnZ1AIBg3bhyped8xMTFXrly5fv16h0y/EMjAQAfDYrGGDh1qZmYmFot/++23y5cvqzsiAAAAiJubW9euXQlmYIoCJQsXLvzw4UN7n/DYAsjAQIeira09ZswYNpsdHR39008/deCPLgAAtBdsNtvf35/JZLa6pUQiycrKCg0NPXPmzNu3bzt2gRLIwECH0q9fP09PTwzDTp06VVJSou5wAAAAIAKBoH///q1ulp2dfeXKlatXryYlJXWGZUIgAwMdB4qiY8aM4fF4tbW1V69e7ZDjBgAAoN2xs7Pr0aNHCxvgOC4Wi3/++efTp09XVlbK5XLaYlMjyMBAx2FiYjJ48GCJRLJt2zZYogoAADTEwIEDWyiFX11dHRcXd+XKlb///lsDV++lDmRgoOPo0qWLjY3N06dPf//9d3XHAgAAAEEQxMDAYMSIEfWLlDRSW1u7aNGihw8f5ufnd5JHX/UgAwMdh4WFhUwmO3HiRFFRkbpjAQAAgCAI4uHh0a1bt0Y/xHEcw7Ds7Ozr169funRJLBarJTb1ggwMdBAMBmPw4MFHjx69ePFix54+AwAA7QWKogEBAUZGRo1+XlVV9ddff128ePHp06edM/1CIAMDHQaTydTR0dm6dStUoAAAAA3B4/ECAgIalcKvrKw8evTotm3bRCKRugLTBJCBgQ7Cz88vLy8P+h8BAEBz2NjYODo6KgqxYhhWXFz8+PHjkJCQyMjITp5+IZCBgY4BRVEul3v06FGoQAEAAJpD0QWJYZhQKIyNjb1w4cKDBw9yc3NlMpm6Q1M/yMBAR4Dj+M2bNzvbPBoAANBkbDZ74sSJCIK8evXq2LFjly5dKi4uhvvkepCBgQ4C0i8AANAoTk5OIpFozpw5MTExeXl58NyrEcjAAAAAAKB6JSUlK1euzM3NhQlSTYIMDAAAAACqV1paCuvztqDpGrUAAAAAAG0BQ75aRvoZWHJyMofDoSIUQBZ1z3W9vb1TUlIo2jkgi7ohbtDQmoPS7ypoaM1BaUO/fv2axYKuLY3AZrNb3QaFFBUAAAAAgGbQCwkAAAAAQDfIwAAAAAAA6AYZGAAAAAAA3SADAwAAAACgG2RgAAAAAAB0gwwMAAAAAIBukIEBAAAAANANMjAAAAAAALpBBgYAAAAAQDfIwAAAAAAA6AYZGAAAAAAA3SADAwAAAACgG2RgAAAAAAB0gwwMAAAAAIBukIEBAAAAANANMjAAAAAAALp1nAzs/fv3f/31F6mXfPz4ccGCBZWVla1uGR0dvWrVKrlcrmx0QGV+++03si85ceLErl27Wt1MJBLNmTMnJSVFqbiAilHX0AiCzJkzJz4+nnxQQPWobuikpCTyQQEVi4uLi4qKIvWStLS0oKAgoVDY6pYnTpzYvXu3sqGpE0vdAbTJuXPn4uPjTU1NeTyej4/PmzdvSL08NDR0xIgRAoGgoKDg7NmzVVVVdnZ2CxYsUPx27969QqEwMzPz+PHjAwcOfPv2bU1Nja6uLgXnAVqSmZm5bds2W1tbDMMCAwOTk5PJ7iE5OfnQoUMymczBwWHRokVWVlazZ89W/Orx48enT59ms9krVqxwcXFZs2bN9u3bz549q+qTAK1TVUMjCLJ169arV6+GhIQ4OzsrfvXy5csDBw4IBILZs2d7enpu3rw5KCjo3r17Kj4HQIAKG/r69etRUVEGBgbfffed4lefNvSKFSuuXr2q4nMABAQHBxcVFRkZGenr65uZmRHJpRo6cODAokWLdHR0ampq1qxZY2lp2a9fv6FDhyp++8MPPyAI8vHjx2PHji1YsGD9+vWqPwHqteMMrKKi4tdff717967in0+ePFH8zxdffCESiTZs2NC7d+9///vfVVVVa9aswTAsODhYV1f33LlzDffg6uqKIIiFhcXEiROjoqLCw8MVGVhNTU1UVNT169d37Njx4sWLvn37WlhYVFdXQwZGv927d69YsaJ79+4Nf7hy5cr379/36tVr27Zte/fuffDgQZ8+fZYtWzZv3jypVLp582YvLy/FllKplMvl1r/Qz8/P0dGx/p8hISGHDx+WSqXBwcGbNm3S0dEpLi6m57xAIyps6A0bNpSXlzfcz/nz5/fu3autrb127dpDhw7p6OiUlZXRc16gEVU1tEQiWb9+/alTp/T19ev3Aw2tIQoLC3Nzcw8cOKD4pyIJzs3NXbp0qUQi2bt3L5fLXb16NY7jwcHBjx49unDhgpGRUcO73+LiYj09PQRB7t27N2HCBD09vfq/mcrKSolEsmfPnsWLFxcWFlpZWenq6tbW1vJ4PNpPtE3acS9kWlqara3tpz//559/Ll++vH379rq6ui5duly6dGnQoEERERG7du1qmH7t37//77//HjRokOKfLi4unp6eq1evVvyzpKTExMQEQRBXV1fFpXzAgAFOTk5xcXGUnxj4X6WlpY0u1giC7N+/Pzw8XC6X19TUnDx58ujRo5s3b87OzhYIBNeuXau/WCMIYm1t7e/vjyAIk8m8fv26u7v7V199Vf9bDMM4HA6TyczLy0MQxN7ensFgLF68mJYzA/9DVQ3dJKFQaGRkVN/QxsbGPj4+Y8eOpehcQAtU1dC1tbV5eXlMJvPYsWMZGRmK337a0A4ODtDQ9EtMTHR3d2/0Q2tr6ytXroSEhPzxxx9paWnjx4+/cuWKi4tLfHz8kSNHGqZfa9asKSkp6dq1K4IgDx8+vHHjhp6e3ooVKxS/zc7ONjU1RRCke/futbW1CIIMHz7cwsJCJBLRdHoq0o4zMBcXl6ysrEY/jIiIOHny5KtXryQSiZ6eXlBQ0B9//LFz584tW7awWKwpU6ZkZ2crtly5cuX06dNjY2PrX+vl5bV06VLF/5uYmCiehbx588bQ0BBBkEePHqWnp/ft25eOcwMNmJiYvHjxouFPqqqq/Pz8EhISiouLq6qqkpKSKisrp06d6unpuXXr1ps3bx4/frx+49zc3AcPHiAIgqKoh4eHQCDo06dP/QeVyWTW1dXJ5XIbGxsEQbKysmQy2ZEjR+g7PfBfqmroJunq6paUlNQ3dGlpaVxc3PXr1yk7G9AsVTU0h8PR1tbu3bu3v7//48ePFb/9tKHT09OhoenXp0+fT/uXT506df369devX9fU1AQEBAwePPjgwYM3b97ctWtXZWWlt7d3/aPr4OBgIyOjDx8+IAji5ua2dOlSNze3+ofc9vb2hYWFCIK8fPlS8dzr9u3bBQUFfD6fvjNUhXbcC6mnp7dkyZIlS5YIBAILCwtvb28EQUxNTS9duqRom6qqqv3794vF4oCAgNOnT6empvJ4PIFAUL8HRQczgiB37ty5detWTU3NwoULEQQ5e/bsrFmzhg0btnLlSqFQ6OHhgSBITU1Nu2vdjmH9+vXbtm3j8/laWlr//ve/EQRhs9l8Pv/SpUvZ2dkYhv3www8cDsfa2jo1NfXo0aMoigYEBNS/nM1m4ziOIEhtbe22bdukUimTyeTz+f/884+fn19gYOBXX33FYrEU40ikUmnDvxBAJ1U1NIIgBw4cuH//fklJyeHDh58+feru7j5z5sxVq1bxeDzFXZZUKoWPs7qoqqF5PN7333+/ZMkSFEV37Nhx584daGjNYWxs3KVLl6VLlwoEAkdHR8WDDBMTk9u3b5ubmyMIkpyc/Oeff1ZXV/v5+Z04caKgoMDJyalhN6Kenl5dXR2CIBMmTFixYoWBgUHfvn2FQuHff/+9YMECHR2d5cuXs9lsxd6kUmm764JEEAStv2Z1Qjdv3rx37962bdsajhNqUl5e3o4dOxTDC+iJDajQwoULg4KCfHx8Wt5MKpUeO3ZMLBZ/88039AQGVItgQyMIcvLkybdv3/700080RAVUjlRDZ2dnb926lYaogGodPXpUJBIp0qyWt0xOTj58+HDDB6XtRafOwAAAAAAA1IJ0L6SDgwMVcQDl1I8/Va24uLhp06ZRsedWoSiq6JJQDJDncDg4jiu6Eurq6iQSiVgsrqioUEts6mJnZ9fCCKe2UGNDg09R9HFGoKE1DHUNDV/QmqNfv34NJ/81iXQGlpmZqWQ4oP0Qi8VqbGgGg8Hlcg0NDVEUNTMzk0gkVVVVXbp0KSkpKSsrq6ysVEx+6Tzs7e0p2rN6GxrQBhq6k4BW1hxErtvteCQ+6KgwDFPMM0cQJDc3V/HDT+e9AgAAAO1XO65GAQAAAADQTkEGBgAAAABAN8jAAAAAAADoBhkYAEQxGAwGAz4yAAAAVABG4gNAlL+/v6Oj49OnT1NTU9vdAmQAAAA0CmRgABCip6f35Zdf/utf/8rMzLxw4cK5c+dgeiYAAAClQQYGACFjxowZNGiQvr5+z549LS0tbW1tf/755/fv3+M4DgtLAAAAIAsGtQDQOsUqsLa2tiiKMplMMzOzWbNmHThwwMfHx8XFRd3RAQAAaH/gGRgArWCxWDNmzPD09GQymfU/5PP5w4cPt7W1TUpKWr169cePH9UYIQAAgHYHMjAAWmFoaLhkyRIOh9Po5yiKurm5mZmZlZWVHTly5P3793K5XC0RAgAAaHegFxKAlrBYLH9//65du6Io2uQGBgYGc+bM2bVrV8+ePdlsNs3hAQAAaKcgAwOgJT4+PqtWrfr0AVg9FEV1dHTGjh37888/jxo1is/n0xkeAACAdgoyMACapa2tPXfuXC8vr1a3ZDAYAwYMOHTo0JQpUxoOFwMAAACaBBkYAM1ycHAYMmQI8YzKxsbm3//+N6mXAAAA6JwgAwOgaSwWa+TIkXZ2dsRfgqKor6/v1q1bzc3NqQsMAABABwAZGABN69+//5IlS4g8zWpYkZXBYPTp02f58uWOjo5URgcAAKB9gwwMgCZoaWkFBgYSfADWaJokg8FYtmzZ0qVLYVQ+AACA5kAGBkATrKysAgICmqtA0TKZTFZYWJibm6urq6vywAAAAHQMUJEVgCYMGTLE1tZWiRfiOJ6bm3vkyJFz586VlpaqPDAAAAAdA2RgADRmZmY2Z84cFov0p6Ourq6wsHDLli2XLl2qrq6GFbsBAAA0BzIwAP6HlpbWunXrevToocRr79+/f/bs2dDQUJFIpPLAAAAAdCSQgQHwP+zt7SdOnEh2ED2O45mZmb///vutW7cg/QIAANAqGIkPwP+YNm2alZUVg8Eg3oeI43hdXd3JkycjIiIqKyspDQ8AAEDHAM/AAPh/pqamS5YsYTDI3ZnI5fJr164dOnRIKBRSFBgAAIAOBjIwAP6DwWAMHz7cwMBAUYSCYCmKmpqamJiYHTt2QOcjAAAA4iADA+A/DA0NJ0yYQPYBWERExPnz59+8eQMzHwEAABAHGRgA/+Hl5TVs2DBSL6msrPzpp5+SkpJkMhlFUQEAAOiQYCS+amhra2tpadnZ2bHZbHXHApTB4XDmz59PvIo9juMymezgwYPx8fHQ/wgAAIAsyMDaisvljhw5MjExMSoqKjEx8e+///b19VV3UIC0gQMHent7E99eLpffuXPn9OnTYrGYuqgAAAB0VNAL2SZMJtPPz+/EiROK+gUIgowfPx7DsLdv31ZUVKg7OkAUg8EYP368ubk5we0xDHv//v2+ffuys7MpDQwAQB0URXEc19LSkkgkGIapOxzQ6UAGpjwGg/H5559/9913NjY29T9ks9kjRowYMWLEhQsXYGh2e2FgYDBixAgul0tw+5ycnOPHjz98+BCu2gC0OwwGg8fjDRs2TFtbW1dX18XFJT8/Pzs7OzY2tqCgwNnZOTU1Vd0xgk4BMjDlubu7f/fdd7179270c4FAMH369GvXrkH/VHvx9ddfOzo6Ety4urp6//79v//+u0QioTQqoC5sNlsqlao7CqBi2trabDY7ODjYycmpT58+PB4PQRAmk4njOIqiGIbV1tbW1tY+f/48KCgoNzcXbqEB1SADUxKKoocOHerVq1eTv/X09PTw8IiLi6M5KqAEIyOj+fPnM5lMgtuHhYVduHChqqqK0qgA/ZhMpq6u7tKlS21tbV+/fp2WlvbixQvoaO4YLC0tf/vtNx0dHV9fXxRFG1b7U/w/g8Hg8/na2toBAQHr1q1bsWIFZOGAapCBKQNF0W+//dbHx6e5op22traOjo7Pnj2DXirN16tXL0tLSyL1V3Ecl0gkV69eLSwspCEwQA8URZlM5ty5c+3s7MaNG+fm5sZgMMRicVVV1fPnz69duxYSEgLDOtsvU1PT+fPnjxo1qn///q1ujKKoXC6vqKiA9Ktj4/F4EolELperNwzIwJRhY2OzYMECxUPsJqEoOnDgwJiYmJycHDoDA2QJBILAwECCVVjr6urCw8MfPHgAiXWHwWazZ8yYMWDAgHnz5jX8OZ/P5/P5FhYWw4cPnzBhQnBwcFJSUmlpqbriBErT1tZevny5iYkJwe0/fPgQGRlJaUiAZoob7MDAQCaTWV5erqurO3jw4NTU1MzMzMrKSjabXV5eHhsbS39gkIGRxmQyN2/ebGdn1/Jmvr6+LaRoQEP07t37888/J7IljuOPHz/esmVLcXEx1VEBGrBYLGdn56+++mrx4sUcDqe5zZhM5ogRI3x8fMLCwhYtWlRTU0NnkKDtRo4cKRAIiG//9u3blJQU6uIBdDI0NHRxcdmyZUtJSYliyZOamhoul8tgMJhMZl1dnVgsZjKZQqEwJSXl+vXrFy5cKC4upq3CNmRgpLm6us6dO7fVzcgubgPox2KxJk6cqK+vT2Tjurq6mzdvvn37luqoAD127Ngxf/58Pp9PpIqygYHBmDFjNmzYsH79ehpiAyo0adIkUoWyQ0NDa2trqYsH0ABFUQ6HExAQMH36dF9fX0dHR5lMpvgzaDjnnc1m6+joIAhiYGBgbW3dvXv3f/3rX6dOnYqJiaFnAChkYOSw2ewlS5YQ2VJRJZ/qeEBbeHp6DhkyhODGjx8/vnXrFowO6QAYDMaYMWNWrVpFfPoFgiBGRkYrV6708vL6/PPP4UlYO2JoaEhq+5SUFJhn0965urpu3brVy8vLysqKxWKhKNpqFo6iqJmZmYmJiZubW1JSUnJy8nfffUf1gBPIwMjp1avXqFGjiGwpl8shA9NwU6dOJViEQiwWb9++HR6AdQwzZsw4fPgwqfRLgcvlDh06NCgo6Pjx45CLtwtmZmYODg7Ety8rKyspKYE6FO2Ror4uk8lcuHDh4sWLXV1dG016JbIHJpNpYWFhamrat2/ft2/fpqamUjo+DDIwErhc7tixYxvWX22BXC5nseDt1VxcLnf06NFEsmS5XB4REfH48WNYfru9Q1HUz89v48aNpAYGNdrDrl27srKy7ty5A31Vms/Hx0cgEBD/Gr548WJeXh6lIQFVYTAYLBaLz+ebmppaWVnZ29snJiYuW7Zs+vTpHA6nLQOBmEymoaHhrl27KioqVqxYERERocKwG4IUgQQ/Pz/FUD4iG7NYLJgxp8kmTZrk5OREZEuhUHjixAn4uu0ABALByZMnCbZ7k3Ac19bW3rdv35o1a0JDQ1UYG6CCtrY28fQLx/HXr19DpWUNp6WlxePxjIyMunbt2r17dwcHhy5duri4uHA4nJycHHd3d5X0PqEoam5ubmpqumXLFi6X+/Lly8zMzLbvthHIwIhiMBhTp051cXEhuD2LxYJHJhoLRdGNGze2MAOuHo7jL168iIqKgo6J9o7L5b5+/drCwqItO1F8nTs7OwcEBEAGpuHYbLatrS3x7WUyWXp6Otw5azJFAW0vLy8HBwczMzNTU1MGg8FgMBQfTOI1RwhiMBje3t7Hjx8/derU9u3bVX4fDhkYUbq6ukOHDiW+dKBYLIbvbI1lbm7etWtXIls+f/58y5YtIpGI6pAApSwtLa9evWppaUn2hYolaxr9EEXR2bNnr127tq6uTkUBAtUzMTGZNm0a8WdgdXV1T58+hQxMA1lYWHTv3t3d3d3Ly2vy5MlsNluJcZzKYTAY5ubmy5cvt7CwWL9+fVFRkQp3DhkYISiK9u3b18zMjPhL5HI5jNXVTCwWa8CAAUS2rKurCwkJiYmJoTokQCk+n79///4+ffoo8drmvr/5fH5wcPCqVavgY66xOByOsbExwY0xDMvIyIBZrhqFz+fr6+tbWVlt2bLF1dXVwMBAW1tbLQOs+Xx+YGCgjo7OkiVLVFgSEjIwQlgs1hdffEGqqAyO47Ayt2bS19cnWIW1uLj43r178JyjvZs7d66fn59q98lisWbNmhUcHJyVlaXaPQNVsbS0JD7lQiaTHT58GIZ7agLFHEZtbe1ly5Z16dLF1dW1d+/epL5/qQiJy+WOHz/+zZs3x48f//jxo0p2CxkYIQ4ODo0WLWkVjuPQC6mZPDw8xo0bR2TLR48eJScnUx0PoBSbzf7pp5+ouHzr6em5ubnl5uaqfXU50KTx48cTz8DkcnliYiI0pdrp6OhYWVl5enqOGDEiMDCQyGhd2nC53G+//dbd3X3atGkq6a2GDIyQgQMHkn1JaWkpfJg1kLa29ldffaWrq9vqltXV1U+fPl28eHF8fHxBQUFxcXF1dTW0afuComhaWhp13Ra//PLLwIED8/PzKdo/aItW145rKD4+Pjc3l7pgABEsFis0NLRHjx7a2tocDoe2wV7E8Xg8Rd38JUuWtH18MGRgrTMzMxsxYgTZVwmFQqFQSEU8oC0GDBjQr18/Ilvy+fyFCxcaGRmlpqampaXl5eW9fPkyISEhIyOjtrYWHnC2C3Z2dgQL+CnHxsbGyckJMjANpKura25uTnz7Fy9eqHaQNVDC/PnzfX19NbyYOYfDmTZtWmVl5Z49e9r42YcMrHUCgcDKyorsq2JjY0tLS6mIB7TF6NGjCV6XGQyGs7MzgiB9+vTp0aOHTCYrLS198uRJVFTU/fv3U1NTodqIhjMzM9u4cSOlh2Cz2bNnz46Ojqb0KEAJfn5+Xbp0IbixUCjMy8uDWZBqN3DgQOIFB9QFRVEtLa358+cLhcK9e/dWVlYqvStYPbp1Pj4+n332GamX4DiemZkJPVYaaPTo0UoMCdLS0tLR0bGzs5syZcrBgwd379792WefweLrmozBYBw9enTu3LlUH8jBwcHIyIjqowCyXFxc9PT0CG6clpZ269YtSuMBrdLT0+vevTupdYSU1vaB2oqJAhMmTGjLTuArpHVKTGInuxwVoIejoyOpoSGfUqzwOnr06F9//fXbb781MjLS8AfmndbChQuHDRtGw4GcnZ27detGw4EAKSYmJsTvtYRCYWFhIaXxgJYpSj4Rf2yphBMnTiQmJr579y4zM/P48eN5eXlKJ2GKhyx3795tYw1Y6IVshZWVFcF5cw0JhcLq6moq4gFKY7FYq1evVsmgbBaL5eTk9O233xoaGiYnJ//111/wvFPTbNiwQUdHh4YDWVlZ+fj4QEekRuFyuYMHDyaegV27dq0tfUmg7bS1tdeuXavamY9isTg7OzslJeXKlSt8Pv/ChQtGRkYsFovFYuXl5Z05c8bU1NTDw6O8vNzd3X3SpEl8Pp/H4zX39ATDsLKyssLCwnfv3r18+fL58+dZWVmFhYWGhoZlZWXKRQgZWCuGDRumRBdDQkJCUlISFfEApVlaWo4dO1ZVXYcMBkMgEMybN+/Vq1fv379PTEyE5eQ0h5GREfFSnG3EZDK9vLzoORYgiMVi2djYEO+IYDKZ0GuhXn379vX19VVhK1RWVp4+ffr27dvx8fEVFRUMBkMsFjecbFFUVMRgMO7duyeXy42MjF6+fOno6Pjll1+amJg0+pqora1NT0/PzMx89uxZUlJSenp6SUlJeXm5TCbDMKxN3yk4ScofqR1iMBgXLlyQSqWk3iIMw86dO0fPICGyzUfQgwcPaAieTiwWa+bMmWSbkgiZTPb8+fPAwEDquiP9/PxUHrZCx2toBEG4XG5OTg5F71iTLl68qJLIqYuwQzZ0CwwMDIqKioi/P48fP27j+ARSqGto2k5BtVgs1vHjxzEMI36mrW78+PFjUsvYIAjCZrO7d+8eHx8vFAoVO5HJZCKRKDIycsCAAQ4ODqQq8hO5bsM4sJaw2Wx3d3ey/VZCofD27dvt98PQIZmZmS1ZsoSK6jJMJrNnz56HDh1at26dra0t3Emr3ZAhQ9q4/DZZStQLBJRasWKFgYEB8e09PT1pmLQBmuPl5UV2tE+rV1otLS19fX1S+5RKpa9evRoxYsSoUaOuX7+OIMhPP/0UFBT09ddfP3r0SLFolWqnwEMvZEt0dXWV6IIUiUSxsbGQgWmUgQMH9ujRg6L0CEVRfX39r7/+2srK6sCBA69fv6biKIAIb2/vvXv30lzIEYYQaRp/f39SvRBaWlpeXl4GBgbl5eXURQWaM3HiRFNTU9Ven/X19ZWbpFxaWvro0aPvv//+8ePHFy5cKCwsrK2tpahSCWRgzWIwGCNHjjQ1NSX1KgzDCgoKYBi+RtHR0fniiy+0tbWpOwSKosbGxoGBgUVFRTt37oRivGrBYDDWrVvn7u5O83EtLS2ZTCbMxtAQKIoaGRmR/Tr39/d3cnKKj4+nKCrQgilTpqj8rsnQ0JDUc9CG5HJ5cnJyZmamUCiktEocZGDNYrPZgwYNIvsqiUQSGhoKtZU1ir+//4ABA2g4EI/Hmzdvnlwu3717N/EFK5hMJpvNZjAYMplMR0fHwMDg48ePVlZWFhYWRUVFUPeVuO+++27SpEmNfojjONVdwyiKmpqaFhQUUHoUtUNRtF082u/atauTkxPZRlcUOk9OTq6rq6MoMNAkNzc3KoYN6OrqOjg4KH1rhON4VVWVyqNqBDKwZtna2k6fPp3sxxjDsIqKCvjW1Ch9+/albWacqanpmjVrEhISIiMja2trW95YT09PIBAoCkrx+fzi4mJ3d9CHZ9UAACAASURBVHdra+vk5GQPDw8nJ6fs7GwtLa3du3fTE3x75+Li8ukPaRiZx2Qye/To0eEzsHaRfiEI4uLiokRddTabPX/+/K1bt0IGRrP58+dTsfw2iqJLly4NCQkpLi5W+c5VBTKwZllYWChRT+jFixf379+nIh6gHCaTOWDAADrr12tpaW3YsIHD4Vy8eLHRl5aioKu2traVlZWlpaWrq6ubm5uLi4udnZ1isrSxsbGWllb//v11dXX5fL6LiwuHw4EMjAgmk/nFF1+o5dAymSwuLk4thwafUnq8AZ/PHz169JUrV8RisWpDAs0xNTUdPnw4RbdJ1tbWijtbKnauEpCBNYvsNAqFDx8+vHz5UuXBAKV17969d+/edB4RRVEvL6/58+e/ePHi/fv3DX/VtWtXNzc3Z2dnDw8Pe3t7MzMzU1NTLperKB2J47hiMIRAIFBsr6urS2fk7drGjRvVtT5BTk4ODMbXEHp6ekOGDFGu61lxtxYXF5eenk5FbKARFEX79OmjWH6XChwOx8DAIDs7W2NX/IQMrGm6urpKLGlSXV394cOH9vKsvjNgMpmrV6+mpzZ6IwMHDjx48OCkSZNqampYLJapqamDg8OSJUt69eplbGzM5/O5XC6UrlCVLl26LF68WF3v55MnT9RyXPCpIUOGLFiwQOmXL168OCIiAjIweujo6HzzzTfULcWNoqiNjc2rV68gA2tnBAJBk2NKWpaZmRkaGkpFPEA5jo6OQ4cOJfXFrEigFYOO2/KNrqWlNWTIkPXr1588edLR0XHatGk9evTo0aMHn8+HJb1VSyAQrF+/nrahfp+CDExDeHt779ixo407CQoKun//Psxnp8HkyZN79eqlkl01eblmMBj29vaafL2FDKxpHA6Hz+eTfdXFixdTU1OpiAcogcPh+Pn5EfxixjAMwzC5XF5VVcXhcLhcbnV1tUAgwDCMzWajKKrEx5jNZi9dulQgEFhaWvr5+enq6ip2Rf5UQEt8fX0DAwPVdXQMw4jPewWUWrZsWduXdlaM0UxJSVFJSKA5PB5v1KhRVHdQWFlZ0VwdkBTIwJrWq1cvDw+P5n7bZLqN4/j79+9ramooDg0QZWFhsWDBglZX55XL5ZWVlfn5+bm5uZmZmYrVwfh8/osXL4YOHZqbm9u7d29zc3MjIyM9PT0Wi0U8hUJRVLF2JIIgPB6vrecDmrF582biazCrXElJCVSf0QQ9e/acPHly279ubW1tfX19IQOjmpub2+DBg1V1R9rkflAUNTc353K5Gvu9DBlY07y9vVsYBN1kY5eVlcXExFAZFCBnypQprT7irq2tvXTp0uXLl1NTUxWLrYrFYj6fL5PJ6urqLl68WFVVZWVl5eDgYGpq2rt370GDBrm6uuro6BBfqwpyL0qNHj3azc1NjQGkpaW9e/dOjQEABEFQFH3y5EmTUzHEYnFSUpKenl63bt2IfN+bmppOmzbtxo0bkFhTqlu3bsbGxlT3CZiZmQkEAo1d6gAysKbVT0YjCMOw6OjovLw8iuIBZBkbG48fP77VG+KUlJQtW7akp6c3rNpX36lUWlqKIEhmZmZOTg6DwYiMjAwPD+/bt++4ceO8vb0htdIEffv21dPTo+1w9cME638SHh6en59PWwCgSd26dWvu8/jmzZtp06b98MMPtra2BCcX9+7d28rKCjIw6jAYjHnz5tEwQsvc3NzAwCAzM5PqAylHc0eoqZGxsXGfPn1IvaS0tPTIkSMwC1Jz+Pj4tLo6DYZhYWFhHz58aLVoslwul0ql5eXlDx8+3Ldv36ZNm27evCkWi6HF1YvFYm3YsIHOI6Io2jD9Ki4uPnHiBFRgVi9tbe3mSsGJxeKxY8dmZ2dfunSpurqa4AdWT09v1KhRmjx+qL1zc3Pz8fGh4UBWVlbKrQ5JD8jAmuDl5eXo6Eh8e5lMFhERAQuKaQ4URWfMmNHqo5G0tLSwsDCyO8cwLCoqavXq1Tt27CgqKtLYEQadwbRp09R4dIlEMmXKFMWDUqBGgYGB33//fZO/unz58sePHxEESUpKevz4cQtVCRomZxwOZ9WqVXZ2djBvhgooik6ePJme6n0GBgYGBgbUFbxoI8jAmmBkZETq7kcmkyUkJGhsT3MnxOPxxo4d2+oj7gsXLrx9+1aJ/WMYlpmZuXPnzm+++ebYsWMSiUSpMEGbaGlpzZs3T13fkYqBB9HR0RpbaqiT8PDwWLNmTZPjMt+9e7d27VpFalVUVBQSEtLC/VLDPyQURXV1dTW8kEH7ZW9vP3PmTFKf3MrKypSUFEUyTQqTyezXr5/SS3RTDf68mhAQEPDpkIIWHl+XlZXdvHmT4qAACQMHDmz1AZhMJrt+/Xpb6gjIZLJ//vnnt99+Cw0NJd7BAVSlb9++np6eajm0XC7Pzs7+/vvvlVv0F6jQ+vXrmyyqXldXFxwc3HBsbkREREZGBsHPKYfDmT9/vrm5ucoCBf81atQoOzs7IltKpdLq6uqcnJx169b9+OOPjZYYIcjLy4uKdSdVAjKwxphMZs+ePT+d3N5cwq4YS5SVlUV9aIAQDoczY8aMlm+wcBxPSEhITk5uY9okFovfvHmzadOm27dvw5cxnZhMZq9evcjOmFEJHMfT09P37NkDa0FqgokTJ376pArH8Tt37oSHhzf8YVVVVV5enlAoJLjnCRMm2NraqiZK8F9aWlrTpk1ruXwMjuM4jkul0tu3bx85cmT58uW///57dHR0bm6uEldsExMTNVaraRnMhWwCqaejBQUFp0+frquroy4eQEq3bt38/Pxa3gbH8ZUrV6pkCBeO49XV1QwGA4aM0ElPT2/r1q1qOfSHDx8mTJjw5s0btRwd1ENR9Ndff21yxIhUKj148OCnnVYhISHdu3cnsi4FjuMcDqdfv34vXryAsZ4qNGfOnBZqbSIIIhQKKysrP3z4EBMTExwcXFNTI5fLMQz7+PFjTk4OhmFkZ0gIBAILC4v09HQN7KaADKwxFEWJL9iH4/izZ89evnypgU3bOXE4nGnTpllaWra8WUVFxdOnT1XSaj4+PtOmTRsxYgTMnKLT4cOHtbW1lX650ktOCYXCMWPGwNIXmkBRgrXJB2CHDx++f//+py+5fv36wIEDZ86c2erQbMWfx9y5c2NiYp49e6aqmDs5PT296dOnf1oTBMdxRQnGM2fOhIWFpaenV1RUiESihrmvTCYrLy+vq6sj+8Hn8/menp6PHz/WwG4KyMAaQ1GU+Ki96urqa9eu1dbWUhoSIM7Ozm7ChAktl0vFMCw5OVkln0YOh7N48WI/Pz+oDUYnLS0td3f3tjx0VOK1QqGwrKxsw4YNkH5pAkNDw2+//bbJ+l6ZmZkbNmxoskRIWVnZ3bt3x44da2ZmRuQoVlZWnp6ekIGpir29fc+ePRt++nAcxzDs0aNHb9++TU5ODg8Pz83NlUqlTb68pKSktraWbAbG4XCsrKw0s48CMrDG9PT0TExMCG78/PnzW7duURoPIGXKlCmtVhIRCoWqmjnh4+MzcuRI4n8wQCUCAgK6du1K8yV1165dcXFxd+7cofOgoDm+vr7Tp0//9OdisfjUqVPN9RviOB4REfH27VtTU1Mifz+GhoZOTk4MBgNmvKrEsmXL6sduKhZULS8vz8rKmjNnTllZmVAobLm0Xn5+vlAoJFvfSyaTlZSUaGg/FU6SuuOlFpPJXLJkiVQqJfJWiESiKVOmqDdgss1H0IMHD9R7XsqxsLB4/fo1hmEtn11MTIxKJifb2Ng8fvxYJpNR1Ar1/Pz8KNpzO23oGTNmUPSGNCc3N5eGuo7Uxd9OG7o5Pj4+imE9n7p582arqdXJkydFIhHBty41NZVUeUgiVNewjak2TtVycXGpqalRXJ+lUumDBw/69Onj5OREfHFuOzs7xfQpUl68eMHn8yk9tSYRuW7DM7D/geN4YWEhwRow169fj42NpTokQJyHh4e9vX3L19+6urqzZ8+2vXibhYXFpk2bevfuDcO/OjCZTPbs2bOIiIhjx45B5VXNMXTo0CbLGcTHx69Zs6bVRCQkJGTkyJE5OTkZGRlVVVUikUgsFvv5+bm6uqIoKpFIGhYvsLKy8vLyyszMhMdgbcFkMocNG5aamvru3bu0tLTU1NS4uLjXr1+TyhorKiqEQiFOZhBnXl7e1q1b21J1iFKQgf0PFEVtbGyItG5NTc2uXbtgIUjNgaKoh4dHq+OxkpOTo6Ki2ngsgUAwYcKEzz//XGPLzHRgbDZ7/fr1NByovLw8JCRk3759MPBLo/B4vKlTpzZ5n3zs2LGUlJRW9xAVFbVgwYL8/PySkhKxWCyTySQSiZOTk5mZ2dChQysqKpYtW2ZgYKClpYWiKJvNnjBhQmhoKEx4bwsGg5GYmPj111/n5uaWlJRIJBJFX9P/sXefAVFc68PAd7ZSlt6kIzYURBQURUFUbFhQidEoauw9liS26FVjN0YssRJN7C1qooJdEOwQG4qAiNJ7L1tn5v2w/5fLpezOzs5sgef3SdnZmefM2Z195pwz5yi1ExRFc3NzlcrAbt269eDBA+XjVRPIwBoieKNz9OhRctOpA5rI1oZT+M2MjIxUcZVWFos1dOjQefPmafNyYy0Ym8328PCg9RA4jqMoum7dusOHD2vh81Ot3Hfffde1a9cGf8RxPDU19ezZs0TW6JRIJI1Hgr579+7du3f3799nMBjnz5+fOnVq9+7dO3fu7OrqOnDgQAsLC1h/XRUSieTFixcqtiNKpdLU1FTieZtQKPz7779LS0tVOSi9lO1S1XS89GKxWKtXr1Z4EvLz811cXDQdLIMB48DqITg2SPUfb19fX1njudrAOLD6Ll++TNPZqLNy5UoVn7Ukh74S6WJFN6lv374CgaBxAVEUlf8ENDksFmv//v0SiWT8+PEUzupJX0VTFaF2YrFYoaGhYrGY4NlYuXKlBudiJXLdhjnx/weCIAoHgaEo+uuvv8L9kFaxtLQMCwuTvw2O40VFRSr2KDGZzGnTpjW5CgpQAw6HQ/fEH//5z3+uXbuWlJTU4n/PdI6FhcVPP/3U5FReHz9+JNL6pSwURZctW9auXbvk5GQYB6ZxKIp+/PixtraWyHezqKjo+vXrzU1soSWgF/J/MJlMhVX75cuX48ePw2LMWsXDw0PhEoE4jp86dUqVwRxMJrNTp06BgYFau8ZFi2djY2NtbU3TzoVCYXx8/P79+8vLy2k6BFDFzJkzhwwZ0rhtsrKy8sSJEzQdVCqVZmZm8ng86I/WBpWVlZWVlUZGRvKbqGtra8+cOaPigBM1gDaw/4HjuPxH26qrq9esWQNPRWkVFos1atQohT/MJSUlR48eVaVhw8HBYfny5e3atdPOyf1aAycnJ3t7ezr2XFJScv78+YCAAEi/tJO7u/v8+fObvD5HRUVt27aN1qPDMHwtIZtCTOFlPDs7e+/evdq/nBS0gf0PhV3pz58/p2oyT0AVd3f38ePHy0+dURSNjY1NT08nfRQmkzlhwoTJkyfD848aZGtrS3A2c+IwDPv8+fOsWbNUf0gW0ITFYsXExFhaWjZ+KT09XVMrhAL1q6qqKi0tVZiB7d69W/sbwBjQBtYAgiCyCTabfPXevXuHDh2qqqpSc1RAvoULFyr8VS4vLz9//rwqYwI6duw4bNgwPT090nsAqkMQhNoGSAzD/v7771GjRj18+BAGfmktNze35h49Pn/+PEwX0nqIRCKFLVuZmZm68ugJtIE11NxVWCAQrF279s2bN2qOB8jH4/H8/f0VDsxKTExUZVYYBEFmzJjRo0cP6H/UIDabHRAQQO0+nz17tnjxYniwRpvJZoBr7qsXEREBo3JbDxzH5a+qjqLo4cOHMzMz1RaSKqAN7H9gGCaRSBpPmI6i6Llz554/fy4UCjUSGGiOu7u7nZ2d/MRIKBT+8ccfqswK06lTpylTppiampLeA1Adk8ls27YtVXurqak5cODA1KlTIf3SZgiChIaGhoaGNn4Jx/HIyEhd+a0FlODxePKnHSkqKoqIiBAIBGoLSRXQBvY/cBzPzs7OyckxMzOr+1HHMCw2NnbevHmajQ00xmKxxo4da2RkJH+zx48fyyZaJEdfX3/p0qVNjkEB6sRisbp160bJrmpqatavXx8eHg5TDGg5Z2fnvXv3Ntn7X1ZWNm/ePKjBVkUikcim1G8yD8Nx/MCBA8XFxeoPjBxoA/sfGIbFxMS8ePGifltXfHz8qlWrtHxakdbJzMysufVJ6ktISCgoKCB9FGdn51GjRsH6jxqHIAglK+yWlpYuXboU0i+dsHXr1iZvfgQCwdGjR2FduNYGw7D09PTmOqNyc3Nv376t5pBUARlYQ4WFhbdv387NzZVKpbW1tVeuXJk6deqLFy80HRdowtChQ11dXeVvg+N4fHw86dkazc3Np0+f3qZNG/pGgOE4jmEYiqIoiorF4oqKChRFq6qq0tLSSkpK4Demjr6+voq1gON4cXFxWFjYsWPHIP3SfoMHDx49enSTt1hpaWk7duyAhydaoeTk5CYH4+M4/uTJk6SkJPWHRBr0QjYhPj7+P//5j4eHx4MHD2JjY2GYp3ayt7f/5ptvFDZNqfJcDIIg48aNmz59usJmNhJwHJdKpbLpbT59+lRTU2Nubv7p06ecnJxOnTqlpKS8evWqQ4cORUVFlB9aRwUHB6syFQiO43fu3Fm2bBms6KoTEAQZMGBAk62eVVVVS5cuhZnbWqfXr1/LVqZqcD+WkpISERFRU1OjqcBIgAysCV++fMnOzr506RL0PGqzwMBAPz8/+dugKBoeHk56Bl0LC4uvv/6awhFgOI7LGrqKi4vz8/MzMjLevHnz8ePHtLQ0iUTC5/NzcnIEAoGpqWlZWVllZaWhoaFIJOrVqxdVAei0tLQ00m2ZAoHgwYMHEyZM0K0LdGvWsWPH5cuXN/lSREREbGysmuMBWiI9Pb2iogLDsPq33xiGbd68Wec+FZCBNY2OJcYAtYKDg+U/nIjjeGFhYVRUFOlDeHh4eHt7U9L/KOsukWVdnz59evv2bUpKSm5ubnZ2dmVlpUgkwjCMzWbLGlyLi4tl20P7a33p6ellZWUmJibKvrGmpua3335btWoVHVEBOpiamu7du7fJeQdQFI2OjoZLdKtVWVlZXFwslUrrZ2DZ2dnR0dE6t3QBZGBAJ3Xu3DkgIEB+boSi6PPnz0k/rG5hYTFr1iwzMzNyb68Px3GRSFRUVHTs2LGEhITPnz8XFRXJxnvVX2yuLt+C0S1NEggEBgYGyr5LKBTOmTPn8uXLdIQEaDJw4MD+/fs3+COO42KxeNq0aarcVgFdh2FYVlaWVCqtn6C/ePGisLBQg1GRAxkY0D1sNnvjxo1t2rRhMBiNRwPUKSws/PXXX8ndFSEI8tVXX40ZM0b1BjChUJiWlhYVFZWQkBAdHV1eXg637+QIhcLXr18PGTKE+FswDOvRowcM/NItrq6ue/bsaTwDxblz5w4cOPDkyRONRAW0x8ePH8Vicd0YQYFA8Ouvv+ridRUyMKB77O3t+/fvL2uClpMh3b9/Pz4+ntwhTExMQkNDVZz7AEXR0tLSe/fu3b9//+bNm+Xl5dq/UqyWq6qqkkql8qdklKmurk5MTLx48SKkXzrn999/t7Ozq/8XDMNWrFhx5MiR6upqTUUFtEdOTk79CSliY2NfvnypwXhIgwwM6BgWixUYGGhhYSG/dUogEFy9epX0sIBOnTr5+PiQe6+MbL3nBw8eHDt27NOnT6SfBgB1xGLxqVOnhgwZIn8OXhzHcRxfv379mTNnVJkHDmiEpaVlhw4dGgyyTk9P//XXXzUYFdAqxcXFlZWVtra2DAZDLBafO3dOR4fMwnxgQMcYGhouXbpU4fQQL1++fPz4MemjhIWFqbgG0YcPHw4fPrx9+/b4+HhIv6jy8OHDe/fuyd8GRdEzZ87s2bMH0i9dFBAQYG9vX/dfDMMePnxI+XqgQKeVlJTUfbufPXt29+5dzcZDGrSBAR0zdOhQDw8P+Q1gOI6fOnWK3ExaCIIMHjx4xIgRpEeACQSC2NjY3bt3v3z5sqSkBIbVU6i6unrjxo29evWysLBoPE4oOTn59OnTDx8+fPTokUbCAyrq06fP+fPn67562dnZ69atO3nyJEyfC+orLCyUTVUtlUpv3LiRn5+v6YhIggwM6BILC4sxY8YoHAYkFotv3LhBLvUxMTFZsmRJg2EoBGEYJhaLo6Ki9uzZ8++//wqFQki/qCWVSpOTk6dPn25jY7Nr1y42m52UlGRgYFBaWnrr1q3a2trjx4/raH8EsLCwWLp0KYfDkf0Xw7AzZ85A+gUaKysry8/PR1G0qKjo2rVruvsJgQwM6BJvb29/f3+Fm6Wmpubm5pI7RPfu3f39/ZuciEihsrKyhISE3bt3x8fHw3S+NBGJRHfv3uVwOCiKslisZ8+eVVZW6uKD6KCBb7/9duzYsQwGA8fxmpqaCxcu/Pzzz7r74wroU1tbW1RUJBKJjh07lpGRoelwyIMMDOiS0NBQR0dH+dvgOP7HH3+Qbnz68ccf+Xw+8e0xDKsblHb79u3w8PCEhARyhwbESSSSc+fOaToKQBkEQVauXClrABMIBF9//fXNmzc1HRQgCUEQWpv/MQwrLCwsLCw8evRoc6t06wTIwIDO8PLyCg4OVrhZUlLStWvXyB3Cx8dnwIAB8rfZtGlT3Rh/HMeTkpLc3d0ZDIZIJPrw4QMs4wiAsrhc7pMnT2TLf6Eo2r1799TUVE0HBchTw+iLxMTEb7/9Nisri+4D0QoyMKAbEASZPXu2wiUapVLpvXv3srOzSRxCT09v5MiRPB6vyTH4MTExp06dio6OLigoaDCtF7nDAQAYDAaCIEFBQV27dkUQRDbrRHp6uqaDAtru3bt3OrcGUWOQgQHdYGxsPHjwYIXDs0pKSi5cuEDum2lnZxcSEtIg/ZJKpWVlZUePHt28ebNON3cDoJ34fP62bdtYLFZ8fPxPP/2kuzMLAHVqGbNbQwYGdACLxerTp4+Li4vCSSguX75Meh78kSNHenp61v+LSCSaM2fOyZMnye0QACAfm83euXOnm5vb3r17f/rpJ7jJAa0KZGBAB3h4eGzYsEHhJBSlpaV//vknudXB2rRpM378+PoTvR47duzIkSOk8zkAgEJ9+/bt1atXQEDAixcvYOoW0NpABga0HYfDGTZsmJeXl8IpUpOSkj5+/EjuKMHBwZ07d677b2Rk5A8//FBeXk5ubwAAIioqKmbPnq2ji/oBoCLIwIC2c3V1HT58uMIRYDiOv3//vqKigsQhuFzumDFjzMzMGAxGcXHxjh07Tpw4AekXAHR7/fq1pkMAQGMgAwPaLjg42NfXV+FmQqHw7Nmz5Doy3N3dAwICmExmcXGxnZ0dTKYKAACAbrAyN9BqfD5/8uTJjVcAbOzhw4dPnz4lcQgWi7V161YjI6PMzEw/Pz9IvwAAAKgBZGBAq3311VcdO3ZUuFltbe2lS5fIjcF3dXXt169fWlra+PHjSQ8jAwAAAJQCvZBAe+np6c2dO9fQ0FDhlmlpaXFxcSQOwWaz+/fvjyDIxIkTX716RWIPAAAAAAmQgQEtxWKxgoODfXx86s8Q0SSpVHr16lVy82jb29sHBwcbGxvDAsAAAADUCXohgZaysrIiMgcYg8HIycm5cOECiqIkjtKuXbvvv/8e0i8AAABqBm1gQBvp6ekNGzasS5cuRDY+derUly9fSByFw+E8ffpUIBCQeC8AAACgCsjAgDZq3779/PnzWSyWwi0lEslff/1FLouSSCTw5CMAAACNgF5IoHV4PN7YsWO7d+9OZOO0tLSsrCy6QwIAAACoBRkY0DqBgYGTJk3icDgKt8Qw7MGDB+TmwQcAAAA0CDIwoF3YbPakSZPat29PZOPa2trTp0+TG4MPAAAAaBBkYECLIAji4+MTGBhI5BFIBoMRGxubkJBAd1QAAAAA5SADA1qEz+dv2LDB3t6eyMbFxcUnT54kNw8+AAAAoFmQgQFtwePxBg8e3LdvXyKPQDIYjPj4+EePHtEdFQAAAEAHyMCAtujSpcu8efMMDAwIbn/v3r28vDxaQwIAAABoAhkY0BarVq0KCAhQuAaRTEZGxtWrV2EuewAAADoKZmQFmocgSN++fYOCgng8HpHtURTdvn17dnY23YEBAAAANIE2MKB5enp6EydOZDAYOI7jOK5w+9LS0tu3b8N09gAAAHQXZGBA8zAM+/jx49mzZ3Nzc0tKSqRSqZxUDMOwly9fQgMYAAAAnaZ0L6S5uTnByQIA3XJycmjaM5vN7tq1K007b1JsbOzjx4+vXr3KZDK5XK780WAVFRVubm5qi03j6HvgQP0VDZojEono2zlUtPagtaJtbW0tLS3p2z8gzsjISOE2CJFOHwAAAAAAQCHohQQAAAAAUDfIwAAAAAAA1A0yMAAAAAAAdYMMDAAAAABA3SADAwAAAABQN8jAAAAAAADUDTIwAAAAAAB1gwwMAAAAAEDdIAMDAAAAAFA3yMAAAAAAANQNMjAAAAAAAHWDDAwAAAAAQN0gAwMAAAAAUDfIwAAAAAAA1A0yMAAAAAAAdYMMDAAAAABA3SADAwAAAABQN9aGDRs0HQN5FRUV+/fvv337NpfLzc3NPXTo0KBBg4i//c6dOzt37gwKCqqtrV23bt39+/f5fL6jo6Ps1cTExN27d5uamtrb2799+3bp0qWjRo1is9n0FAXIc+fOnYiIiNTU1M6dO69cuXLYsGFKvX3u3LkIgnTs2JHBYLx79y4yMrJ79+6ylwQCwZ49e54+fert7Y2i6MaNGxMTE3v37k19GQABlFR0+/btjx49euXKFQzD2rVrJ3tJIpEcOHDgwYMHPj4+HA5n06ZNN2/eDAoKoqEQQDGqKvrnn3++efNmampq2w3/LAAAIABJREFUr169ZC81/kZ//PjRx8eHhkIABbKzsw8cOBAdHW1lZfX48eOEhARPT0/ib4+IiLh06ZK/v39WVta2bdvu3bvn5ORkaWkpezU2Nvbo0aMuLi7m5uZ37tzZtm3b6NGj6SkHjXQ4n8AwbOHChcuXL+/WrduNGzdsbGxkf79//z6DwfDz89PT03v69GlFRYW3t7eBgUFcXJyent6AAQPq9pCamjp+/Hh9ff2SkpLOnTvPmDGj7iWJRLJmzZqLFy8OHTr0n3/+8fT07Nevn0Qi4fF4ai4mOHfu3NOnT3/55ZeUlJSCggLZH1++fJmfn9+hQ4cOHTrk5eW9evXK1ta2W7duz549Ky8v9/X1tbCwqNuDkZHRyJEjZf8+c+ZMQUHB9OnTZf89fPiwp6cnm82+efPmmDFjvv3221WrVi1ZskTNZQQM6ioax/HQ0FBzc/NZs2YNHjxY9tKpU6csLS39/PzOnj07c+bMOXPmjBkzRgOFBNRVtFQq/f333zMzMxEEqXup8Td68+bNc+fOVXchWz0URZcsWbJ582YXF5erV68aGBgwGIza2tq4uDgej+fn54fj+KNHjyQSSd++faurq1+9emVkZOTv71+3h+fPny9btozH4+Xm5s6dO7fuborBYAiFwj///HP79u2BgYEvX74cMmTIw4cPNVBIlelwL2RKSopQKOzRoweLxQoJCan7u6ypY8WKFVVVVSkpKYGBgRKJZPPmzb6+vvb29nWbVVZWJiYmOjg4MBgMFosVHh4+bNiwz58/y15NS0tr27atvr7+yJEjU1NTGQyGo6Pjs2fPJBKJWgsJGIzLly/v2bOHx+N5enrWfQkzMzMHDRr0008/4Tju7+/v7+9vZmb2+vXra9euDRkyhMn87wf71atXdXnzuXPnRo4cyWKx6l5NT08fOnSon5/fvXv3GAyGsbHxx48fi4uL1Vg+8H+oqmgEQSwtLTt37pybm1v/1UmTJnXt2vXu3bsMBoPP55eWlubl5am3iIDBoLSibWxsevfu/dtvv9W92vgbnZKSAt9o9Xv69GlAQEDnzp319fUnTZok+6NYLPb19f38+XNERERMTAyHw+nXrx+Kor/88svAgQMNDQ3r3l5WVpacnGxmZsZgMDgczoQJE8aMGVNYWCh7NT4+3sfHx9raOigoqKSkhMFg8Pn8ly9f4jiu9oKqRIczsCZhGLZkyZKlS5empqYaGBjEx8ePHTtWKpVOnTo1JCTk5MmT9TcWi8X6+voMBqNNmzZv3rw5ffr0hAkT6l6tf1/FYDAMDQ2FQqF6SgEUysjI6N2798OHD4uKinbt2jVo0KDY2Fg3N7fy8vKBAwdWVFTUbSkWizkcDoPBqKioePPmjZ+fX5M7lFU3h8MRi8U69zVuwUhUtExKSsrYsWPrbyAjq2gYTqBtSFQ0i8V6+vTps2fPCgoKBAJBgx3WfaMlEgl8o7WEUCj86quvdu/enZaW5uXl9dtvv4WFhWEYNnTo0IEDBz569Kj+xmKxWJZq+/j4xMfHHzhwYNu2bQ12WPczzeVyRSKRekpBIR3OwDp27MjhcN69e4ei6O3bt2V/PH369IIFC44fP47jOIqimzdvXrly5b59+zAMi42NTU1NTUtLk21pbGzco0cP2X+zsrJEIlFaWlpdI5mrq+vnz59FItGtW7fat2/PYDCSk5MDAwPrX+KBeowePXr16tUSiSQ5OfnLly8MBqO0tPT06dOPHz/u3bs3iqL29vZPnz69ePGiSCTasmXLyZMnL126VPd2X1/f6upqBoPBZrPbtWsXERGRnJyclJQke9XZ2Tk6OjohIaF///4MBkPWH21lZaWBcrZ6VFW0RCL58uWLWCxOSEhAUVT2qqen5+XLl5OTk2XjEMrLy01NTW1tbTVQzlaPqoqWSqXFxcVisTgnJ6fuytz4G92lSxf4Rqtf7969Hz16lJaWJhQKr169KvvjH3/88fvvv2/btg3DMBaLdfLkycmTJz948KBt27axsbH79++va600MzPz8PCQdVJnZGSgKPr69eu6QWDe3t6vXr0qKSm5f/++ubk5g8EoLS3t06dPg3YT7afDI/GZTObgwYMvXLhw+/Ztd3d3Ozs7PT290aNHnz17FkEQV1fXbt267d69Oy8vb8mSJampqREREQMHDgwICKjbQ2JiIoZh7u7usgGDZWVlW7du5XA4ly5d8vT0dHd337dv35IlS2QZWFRUVN++fblcruZK3Ep169YNw7Djx4+XlZX16dMHwzAvLy99ff3r16/7+vp6eXndvn376tWr06ZNMzMzO3jw4OvXr+fMmVO/QfvatWvBwcFcLtfb29vb29vQ0HDAgAGXLl2ytrbu16/f33//nZOTM2XKFDabnZOT8++//8IIIY2gqqIxDDt16lRkZOSoUaPc3d3v3bunr6/v5+d3//799+/fz507l8PhFBUV3b59e+rUqRosb6tFVUXLxoHduXNn4sSJzs7OzX2j3759O2LECA2Wt3ViMpl+fn7nzp2Li4vr37+/qampubl5QEDAwYMHXV1d7e3tzczMwsPDhULhN998ExcXd+bMmfnz53fr1q1uDw8ePOjUqZODg0NSUtLhw4cRBFm4cGF1dfX169e9vLxMTExOnz69c+dOa2trBoNx/fp1ZZ/n0AZIa26eLSgoWLBgQUREhCyJluPSpUvR0dG//fZb/eEIQFfs27cvOzt7586d8jerqqqaMGFCeHh4p06d1BMYoBbBimYwGMOGDdu0aVPPnj3VEBWgnFLf6H379snuooFuSU9P/+67786ePWtsbCx/yw0bNujp6a1atUo9gVGoVWdgAAAAAAAaofRwVHX2s3I4HEdHx86dO/P5fA8PDzabLRAIOByOtbV1dHS0ubm5bAymVCotKSmRSqVqC0x70JRAP3z4MDAwkI49kzNy5MhVq1bJ5h9JTEzUdDjq1qdPnydPntCxZ22r6FaOvvthdVa0t7f36tWrXVxclH2jVCqNi4vbtm1baWkpDXFpEfoqWucGQvn6+u7cubN+F/OcOXNevnypwZCoEhgYGB0dLX8brX4gSCKRZGRkFBYWykbcyzIwBEFsbW3fvHnD4/FKS0vhOZcWj81mBwQE+Pj4bNiwIT09XdPhaADMQgd0iKura+/evetP/UOEUCi8cePGxYsXW3z6BepYWlr++OOP/v7+dYnjunXr3rx5o9mo1EmrMzAGg4GiqOyxl7Kysro/pqSkaC4ioG52dnadO3dOTU3du3dv42fOAQBaxdbWtv7AHRzHFTbMiESikydP7tixo3XeYrVOLBYrLCxs2LBhdR+P6urqO3fu1D2/3BpoewYGwKhRo96/f//9999D+gWA9jMyMqr/zLjC9Ku6unr16tVHjx4Vi8U0hwa0SKdOnZYsWVLX/1hSUtKuXbvGE/i1bJCBAW0XGRlZXV0Ns1oDoP309PSsrKyIj0b68uXLpk2bzp8/D+lXa9O9e3cnJyfZv5OTkydNmtTa0i8GZGBA+2VkZMBQPwB0gp6enq2tLZFZe3Ac//z589q1a69evQrLjbQ2RkZGc+fOrfucTJgw4e3bt5oNSSMgAwPaDtIvAHSFgYGBnZ2dwjawgoKCoqKiRYsWPXr0qFWN+wEMBoPJZI4fP75v376y/96/f//Dhw+aDUlTIAMDAABADX19fXt7ezltYDiOP3/+fOPGjRkZGa32d7eVc3FxWbZsGZPJxHH82bNnw4YN09RkUgiCGBkZ8fn8goICjdwJQAYGAACAGjwer/7cTvXhOF5UVHT37t2dO3cmJSW1zhkcAZvNXrBgQefOnRkMxqlTp7777juNfBL09PQYDIanp+eSJUtEItGuXbvqFgtWJ8jAAAAAUMPa2prFYjXohRQIBAUFBUlJSadPn75161Z5eTkMLWi1Bg0aNGHCBBaL9eLFi6VLl2pq9P3gwYPt7e3HjRvXv39/qVSalpaWnJyMYZiaw4AMDAAAADU6dOjA4XBk/87Pz+fz+XFxcVFRUampqe/evcvNzdVseECzjI2NV61aZWdnh+P4n3/+WX+aT7Vhs9nOzs7Lli3r0aOHkZERk8nkcrljx449depUVlaWuoNR8/EAAAC0VA8fPpw5c6atra2Li8s///yjp6cXFxcnFothuD1AEGTKlCl+fn4ikej7778/dOiQmgNgMpmWlpbDhw9fsWJFx44d2ez/5j9ubm6LFi36z3/+IxKJ1BoTriS1BgcUUbb6CIqJidF0ycB/BQYGQkW3BjTVsporGkEQHo9nZmamtiPqHPoqWtMlk8fZ2TkrKwvDsJUrV2okgJ49e+7Zs+fLly9NnrrPnz97eXlReDgi123Fs7YAAAAABOE4LhKJNNLBBLQWj8ebOnWqjY3N0qVLw8PD1R8Ah8PZuXPnzJkz66aBbcDR0XH+/Pl1fejqARkYAAAAAGhkbW3drVu3GTNm7Nu3T83rH7BYLA8Pj61btwYEBPD5/OYmq2OxWKNGjXJ3dycynzBVIAMDAAAAAI3KysqWLVt2+vRpNR8XQZC2bdv+9ttvixcvVphaWVpazpo1S50d6JCBAQAAAIBG1dXV6n/SkMFgtG/fftGiRf369ePxeAo35nA4EydOdHd3J76wqYogAwMAAABAS8NisWbNmjVnzhwWi0XwLRYWFmPHjuXz+bQGVgcyMAAAAAC0KEwm86effvr222/19fWVeuM333wTGBhIT1ANQQYGAAAAgJZDX1//66+/nj9/vpWVlbLvtba2Hjt2rIGBAR2BNQAZGAAAAABaDg8Pj/Xr11tbW5MY0YUgyIABA7p27UpHYA1ABgYAAACAFoLL5a5YsaJTp06k55VwdnZevHixGuYGgwwMAAAAAC0Bi8Xat29fcHCwKs8zqq0ZDDIwAAAAALQEgwcPDgsLU3b0fWNWVlYDBw7U09OjJKrmQAYGAAAAAJ1nbW29ePFiQ0ND1Sf04nA4o0aN6ty5MyWBNQcyMAAAAADoNh6PN2nSpEGDBlG1w4CAgEWLFrHZbKp22BhkYAAAAADQYQiCbNq06ccffyQy9z1xgwcPbtu2LYU7bIDG5A6AVoXL5Xbr1q2mpgZBEDMzs5KSEjMzs4yMDIlEUlhYqOnoAACgxerRo8eUKVNsbGyo3a21tfWQIUM+fvxI7W7rQAYGgEoMDAxQFPX29u7Zs+fUqVMrKiowDHN0dMzLyzM2Nn758qVAILh9+3ZOTk5qaqpAIMBxHMdxTUcNAAAtBIfDmTZtGrnZv5oku0ozmUwulzt8+PDff/9dJBJRsucGIAMDgDx9ff2IiIjq6urRo0dbWFiw2ey6S0DHjh0ZDEb37t0ZDEZYWFh1dfWFCxeysrJevnz57NkziUSiybgBAKCl6N2795w5c0jP/lVHLBZjGCaVSmtqaj59+uTq6vr58+cuXbo4OjqmpaVREmoDkIEBoDQEQQYNGuTn5xcYGNinTx82my1/tKapqamJicmCBQsQBCkuLk5ISFi9enVycrLaAgYAgBbJ0dFx8+bNKg7/ys/Pr6mpOXbsWEFBgVQq/fDhQ3Z2toODQ25urpWVlaGhIZPJxDCMqpjrQAYGgHKGDRs2bty4nj17Ojs7GxkZsVgsIk3fCILo6ekhCGJnZxccHPzkyZPU1FQ6vtIAANBKMJnM8ePHe3t7k3s7juPV1dX379+PjIwsLS29f/++RCLBcVwkEmEYVlhYiKJoXl4ei8Wi6VoNGRgARLFYLG9v7wULFgwZMoTD4Sjb6I0gCI7jUqn0y5cvGRkZ9H2rAQCgNXBxcZk6daqhoaGyb8RxHMOw4uLi8+fPHzp06MuXL1KpFEXR+tvI/othGH0XasjAACDEwMBgypQp69evNzMzI93iXVtb+/Dhw507d8bHx8NQMAAAII3L5YaHh7u7u5N47+PHj3Nyci5cuBAZGSkWiymPjSDIwAAgJCIionv37m3atCH9uI1EItm8eXNMTEx8fHyDmy0AAADEyQbjDhkyRNkZU3Ecz8nJ2bJlS0JCQklJiWafTIcMDAAFzMzM1q1bN3r0aH19fdLpV21t7YcPH54+ffr69WtIvwAAQBUmJiaLFi1Stjuiurr6w4cP+/bti4uLq6mpoSk24iADI0P2M2xmZiaRSGQzPDH+f58xaGHatm07YsSI+fPn83g80ulXUVFRdHT0pk2bPn36JBQKqY0QAABamxEjRgwZMkSpa3JeXt7ly5dPnz6dkJCgJb/XkIERxeFwOnToUF1d3b1796FDh0okki5dukil0qysLLFYbGNjc+jQIXNz89jYWJgAvcWwtLTcu3fvwIED9fT0VNnPs2fP/vOf/3z8+BGG3gOgbfh8vlQqFYlEsntpY2PjyspKTQcF5PH29l6+fDnx/kfZ443z58+Pjo7WqsqFDEwxPT09Dw+PiRMnhoaGZmVlubm5mZiY4DjO4XBwHEdRFMdxFosVEBDAZDIfP3588eLFa9eu1dbWws+tTnN0dBw0aNDw4cNVWZm1sLDwyZMnO3bsgPQLAK3C4XD8/PxsbW29vLwMDAwqKipqampkV/g///wzPz9fNj8nhmGwiIVWQRBk3rx5np6eBLfHcbykpOTcuXM3btzQkqavOpCBycPn8z08PL766qsBAwZ07dqVzWY7OTkhCFK/5ZPFYsn+YWVlxWAwRowY4ePjM3DgwKdPnz569CglJUUzoQPVsNnsOXPmTJs2TZX0q7Ky8unTp4sXLy4qKoL0CwBtYGRkZGho2KlTp4ULF3bu3NnMzIzP5xsYGMhup0tLS3k83oABAyoqKmpra7Oysq5du5aQkFBTUwN5mJYYMGBASEgI8StzYWHhli1bzp07p23pF4Px/9c/Ik7T8aqJoaFhUFDQ/v3709LSamtrlT1LIpGopKTkyJEjvr6+VK1U1SRlAyMoJiaGvph1goODQ35+voqn8e7du3379lU9mMDAQEqqtTGoaK1CUy1DRdcxNTXdtm3bhQsXcnNzZd0XcqAoKhAInjx5sn//fltbWwrDoK+iKQxSOxkYGMgeZiJ4QkpKSsLDw1WcMZ8cItdtyMAaQhBk5syZN2/ezM/Pl7U/kyaVSjMzMw8dOtS9e3cVBxI1R5Xw5GjN12sWizV8+PDo6GgVz+GLFy8CAgIoCQkysFaCplqGimYwGEZGRtu2bYuNjZU9O0WcrCPyzZs3hw8fli3zqjqaahlvBT/Qvr6+xNOv2trarVu3mpiYaCRUyMCUw2Qy+Xz+8OHDi4uLZUsTUKK2tvbff/9du3ZtXX8lhagKsoHWfL2ePXt2WlqaVColffYkEsnbt29HjhxJVdoNGVgrQVMtt/KKNjU17dmz5/bt26uqqoj/eDdWXV396tWrMWPGGBsbqxgShTXbACVnTGsZGBjs2rWL4KlAUfT48eOurq6aihYyMCXw+fyAgIB9+/Z9+PBBxaavxjAMy8vLCw4ONjIyojZsauOs02qv13w+Pzs7W5UPgGyli4EDB3I4HKo6oCEDayVoquXWXNGGhoZbtmyJj4+vqqpS8RxiGIaiaHp6+qxZs1S8uaKkTptE1XnTTr17966srCRyHqRSaWpqqpubmwajhQxMCWvXri0sLBSLxcqeEIJQFC0uLr5w4QKHw6EwbJqibZ3Xaw6Hs3TpUhXzb4lEEh4erq+vT2FgkIG1EjTVcqutaHNz84iICIFAQO1NdVVV1f79+4k/i9cYhcE0QOHZ0zZWVlYXL14keB5SUlJ8fX3p6HciDjIwxWxsbEaOHHn06NHi4mJlTwUJGIaFh4fb29tTFT9NcbbO6/WCBQtki1SQhqLov//+6+HhQW1gkIG1EjTVcuusaA8Pj6ioKJpuqlEUTUpK6tixI7nY6AhJhtpzqFVWrFhRXV1N5CTU1tZOmzZN0/FCBqaIvr7+oUOHyD3tSFp1dfXatWvbtGlDSRFoCrIVXq+dnZ1fvXqlyknDMCwxMTEsLIzyGy/IwFoJmmq5tVU0k8n09fV98OABfX0aOI5jGHblypXRo0eT6JGkLyo6zqc2cHFxef/+PZEzIJFIIiIiZJNDaRZkYM3S09Nr167d+vXr1Zl71SkuLt6zZ48qE03VoSnCVnW9ZjAYbDb7+PHjskmxSZNKpaNHjzYwMKA8PMjAWgmaarlVVTSbze7Tp8+bN2/I9Twq9S6RSPTp06fQ0FAmk6lUkCQCI4ims6pxBw4cIHJ9xjAsOTnZ0tJS0/EyGJCBNQlBkBEjRhw7duzLly9CoZDyQfcyCndbVlZ28OBB1ZMwOoLHW8312tDQUJYwLVy4UCgUqnjSoqKiaPrmQwbWStBUy62qoqdPn56amkrfmWwAw7D09PTevXsrFSR98dB0VjXLwMAgPT2dyI91RUXF2LFjNR3v/4EMrCE9Pb2lS5dmZ2dLpVKaci+CMAyTSqUjRoxQsUQ0hdeCr9dMJtPAwIDL5fr7+8fExDx48ODvv/8uKytT8fNQU1PTvXt3mmbfhQyslaCplltJRTOZzJ07d+bl5an52i5rd1Fq9Cd9wdB3ejWFzWZPnDiRSANYbW3tiRMnNDX7V2NErtutZVUiExOT7t27BwUFjR8/nsKB8KQhCMJisZYtW6anp3f58mVNh9PyMZlMJpOJYdj48eP79etXWlr61VdfyQbS4jiu4gOqEonk0qVLaWlpLfIKCID2QxBk48aNc+fONTIyonUZkiYP3bFjx3379s2fPx+WoaOci4vLunXruFyuwi1TUlJOnz5dW1urhqio0ioyMDabvXHjxiFDhrRr145IRarNoEGDbGxs4uLiCgsLNR1LS8ZkMnv16mVhYVFUVLRp06a2bdtKJBIKJ4yoqKgIDw+vqqqiaocAAOKYTKajo+PatWs1FQCCIAMGDNi+ffusWbNKSko0FUbLw+FwQkNDu3TpQmRjAwODNm3adOjQISMjo6amhu7YqNHiGzk9PT3Dw8NFIpFmux2bg2HYP//8Q/rpOZqiahl9FhYWFv369evSpcvMmTMLCwsFAkF5eTnlH4OPHz/OmDGD1oJAL2QrQVMtt/iKDgkJef36NX1njyCJRHL79m0LCwuFAdMXgxrOtjqNHj06OzubYNlRFC0qKnrw4IHsiShlH4+gXGvvheRyufv37/f393dxcdGqpq/6EAQZNGjQsGHDHj16VFFRoelwdB6CIG3atDEwMPj666/Hjh1rb28vFAr19PQsLS0RBOHxeJT3UOzYseP8+fPU7hMAQNCyZcvmz5/frl07TQfCYLFYAQEBW7ZsWb58uW71hWmt5cuX29nZEdyYyWRaWFgEBATgOG5ubv7kyZO0tDQMw2iNUEUtNgOzsLCYO3fuxIkT1T8sQFmGhoa//vrrpk2bzp8/j6KopsPRSUwmk8vlmpubt2/ffsGCBXw+v1+/fnw+n8Viye4LZZ8Byj8JqampkZGRcLVtAfT19VksFo/Hc3Fx+fz5s1gsxjBMtoqzpkMDzTIxMVm6dKmDg4MqDR6y7y+LxWKz2SwWq7a2ltycMgiC6OnpTZo06fHjxxcuXBCLxaRDAgwGw8nJqVu3bkpdtGUDrPv06WNqatq+ffujR49mZmbSF6HqWmYGhiBIUFDQ+vXrKVybj1adOnVas2ZNYmLi27dvNR2L7rGwsHBxcQkODnZ1dQ0KCrK3t69f6fR9AHAcf/LkSWVlJU37B2rAZDLt7OzMzMzGjRtnbW0tu3AnJSWJxeKSkpK//vrr06dP0DitnSwtLQ8fPkw6/aqurs7Pzy8vL79z505NTY2zs7OLi4u5ufnt27cnT55saGhobGzM5XKVvYAYGRlt27atsrLyn3/+IREVkGEymStWrDA0NCTxXn19/R49elhbW+M4vmfPHtmj7pRHSI0W2c1sYWFx//59ZYumcbdu3VK2pDRFoiujRvr27TtlypRHjx5lZWVhGKbOoX6y1dbV8+QzjAOjg76+vqen59y5czMyMiQSSeMPD4Zhsqdchw0bpp6QaKrlFlnRnp6ecXFxpL/ylZWVU6ZMadeuHZPJZLPZCIIgCMJkMlkslmy+7t69e48dOzYsLOzu3bsk9p+Xlzdo0KDmgicXMxHqrAJaOTo6VlRUqHg2xGLxmjVr7OzsNLJAZOsdB2Zvb9+nTx9NR6E0f3//BQsWHDp0qCV9kSjn6Oj466+/VldXi8ViHx8fJycnMzMzJpOp5sbO2traK1eu6MwTN6AePT29AQMGLFy40N7e3tnZ2dTUtMkPD4IgbDZ7zJgxPXv23Lx5c25ublRUlPqjBY35+/vv3LmzZ8+epL/17969u3PnTmFhIY7jdQ0ksgsviqLp6emfP39mMBgIgrx8+dLHx2fJkiUdOnQwMjKqvxMcx5sLgM1mm5qakosNWFpa7tmzp8HZJoHNZn/33XcMBuPKlSvJyclUhEaxlpmBhYSEUDjXgCyVLi4uNjY2lv+ZKC0tzcjIaN++PZ/PJ3Fp0NfXnzt37l9//QWTUzSHxWKFhYWFhITIbiA4HI5Gbm4YDEZxcXF4eLhUKtXI0QFpnTp1Gjp06PLly52cnIh8SdlstrOz8+bNm9+9e5eRkZGSkgKVrlmGhobTp0/38fFR5bufmZlZWVnZ3L1u/fakDx8+fPr0qaCgICgoaNq0afUXHJTz+RGJRHl5ebI5CEkH2Toxmcxhw4aNHDmy7vTi9cbyKgVBEBsbmxkzZpiamm7evFkbR4wo26yn6XgV4/P5Dx48ULZczREKhe/evdu3b19QUFBRUZHsj801fV+4cKF79+5z5859/vx5fn4+wYXcG1BqyUjyBZNLa/ssnJyczp8/T1OplSIQCE6dOkVumIKyoBeSKp07d753755sfL2yxGJxdHR0SEgIiZWYCaK8fuu0mIo2MjLavn17eXm5iidk7969yiZwZmZm/v7+L168IPL5SUxM7Ny5c3O7UjF4OVQ+wZrXqVOn2NhYak9Lbm7u8OHD1TxdfitdlWjmzJnxX2puAAAgAElEQVQlJSWkqum/MAwTiUSvXr2aNm2ai4sLi8Xy8PCQP+YARVEvLy9ZDDY2Nn369Ll27VqT40vkq6qqmjRpEsHCqlbKZmnt9ZrH4w0dOvT169coitJUduJQFA0PD1dDEgYZmOoMDQ1HjhxZVFSk4mBBkUhESf9Ik6iq1sZaRkXb2dnduHFDIpGoeDZQFN20aRO58fuGhobr1q2rrq6WP/A0MjLSxcWluZ2oGL8c5E+udkAQ5PDhw5Rf3jEMe/fu3eTJk+m7fWqslWZgBw8eVPEiW1BQcPXq1Tlz5rRr1062Xg2bzb506ZL83WZlZdVf3Ea2VMUPP/zw77//KhUPhmGvX78mOL2NKsWUQ5uv1/r6+iNHjszKytKGJCwzMzMsLIzuIkMGpiIHB4eIiAjZ4xoqnjHZiq7bt2+nY5QPJXXapBZQ0b169YqOjkZRVPVKFAqFixYtIj2BhYmJyaJFi549eyYnkoMHD9rY2DS3BxXjl4Ps2dUW/v7+qjegNAnDsEePHvn5+altptZWmoElJSWRqiAcx3EMw6qrq2fMmNG+ffv6I8ksLS3ltzyjKLp+/foGkSAIYmho6O/vf+TIkaysLOJhSCSSw4cPE+mLJF1S+bT8em1tbX38+PGcnByaik8ciqLXrl2je8gtZGCq6NChw/Hjx8kNCWhOXl5eaGgo5aFSGGEDul7RXC734cOHqrd+yVRVVYWGhqry7I6BgUFwcLBsJFmTVq9eLaehlJJSNIl0ibTEkSNHqL21rp8li0SigwcPEp/iVUWtMQNr3749kUXUm1RVVfXkyZMVK1Y0/maGhYXJeSOGYSkpKXLanI2MjAYPHlw3jIwIgUAwcuRIheUlV1KFtP96bW5ufvr06eLiYprOAHEVFRVbt26l9UlMyMBIQxBEflsFaVFRUXK+8uRQHmQdna5oIyOjRYsWUXg2SkpKfH19VYwKQZCpU6fev3+/cV4okUimTp0q5xaawrI0oGKhNMvU1DQxMZG+k4PjeFFR0cqVK9Xz/FZrzMDi4uLIZdAxMTHjxo1zcHBoXDd8Pj8iIkLOewUCwfLly+UHxuVyhw8fHhkZKZVKCYaUmJgopx1bhkRJidCJ63WfPn0uXLhA/HzSJyUlhc/n01dSyMDIsbKymjFjBk2nTiqV3rhxg9oeDZpCxXW5om1sbA4ePEh8aiipVFpQUCB/m/z8fAcHB9VjYzKZ5ubmBw8ebJCE5eXljR49Ws4bSdYiAaoXSlO4XO6qVavovp5jGJaRkdGzZ0819EW2ugzM1NSUxNLLtbW1L168GDVqVHN5sY+Pz8ePH+XsoaCggMj3mclkOjs7v337ViwWEwkMw7CffvpJ/j6VKilxOnG95nK5ffr0ef/+fVVVlWbHhNXW1u7Zs4fCCVAagAyMBDs7u7179yrV8KyssrIyZ2dnCmOmL1QdrWh7e/uLFy9WVVURvKpLpdLr16/v3r1b/mZ5eXnW1tZUBdmuXbvbt2/X3//bt2/9/f3lvIV8RSpCVaHUr3fv3vn5+WqYVRtF0YsXL7Zv377+uG06ELlua3jxcGp5eHgYGhoq1R/0/PnzDRs2zJs379atW82tyditW7e2bds2twccx6OiooqLixUeS5Z9L1y48N27d0QmiUEQZM6cOcHBwQq3bJ3EYnFSUtK+ffvKy8s1u56mnp7erFmzJk+ezOPxNBgGqO+XX36ZPXu2paUlfYcwNTWdPn06fZl3K4cgyMCBA0NCQohc1XEcl0gkERERa9asUXh1raqqonBSt/T09DVr1qSnp9f9paioqLS0lKr9twYmJiYLFy60srJSw8TaCIKMHj160aJF9ad2q/8qg8FgsViGhoYsFku2uLBsuUlaolE2f6QlCCoYGBhs2LCBeEGkUumrV6+6dOmiMBF++PChnP3k5eX16NFDqVCHDBly69YtIkHKHt9Q/4hOHbpj5vP5AwcOjIqKqq2tpelsEFRQUEBti0gdaANTCovF6tGjh3q6pyUSiZxpn5RFX5w6V9E8Hi8kJIT4A0yyHgNTU1NLS8urV6/K3zgyMpLyYQOjR4/Oy8uT7f/s2bNt2rSRs7FKdSkXtYVSm7CwMNXneFNKTU1NSEhI/b5ILpfbpUuXwMDAoKCguXPnHj16dN68eREREYsXLx4/fvx3330XGBhoa2vL5XIJFqp19UK6urrm5+cTKUJ5efnz589/+OEHd3d3hZ3B3t7e8kcV3L59W9mWDyaT2b1798TERCJ9ZyKRqGvXrs3timi1KUmHrteypdwGDx4cHx9fWVmpwe5IsVi8dOlSOlpEIAMjTl9f38/PLzs7m6Yz1timTZuoCp6+IHWrok1NTX/44Yfc3FyCpZNIJK9fv5b9NNrb27969Ur+9nv27CH+O0oQk8kMDQ2V9Xrv27dP/oxxqlZn86gtlHowmcyUlBT6zklzrl+/3rFjRwaD4ejoOG7cuNmzZ7958yY5OTkzM7O8vFwikVRUVEgkkqqqqsLCwqqqqoyMjCtXrqxcuXLIkCGurq76+vry84fWlYFNnDhRYfAYhqWmpi5YsMDNzY3gL+XBgwflDNtCUXTZsmUkomWz2W5ubkR+JzAMe/jwYXN3bMpVHmG6db1mMBimpqZDhgw5e/ZsSUmJOtfnbiAjI0P+CFxyIAMjiMvlLly4MCEhgabT1aRLly5RFT99QepWRW/btk3haPo6KIreunUrMDBQ9l5nZ+e0tDT5b1m8eDEdA7HZbHZoaGhJScnKlSsNDAzkbKlyfTaL8kKpgY+Pj1AopO+cNCb7jaioqNi4caOnp+fx48fT09Ozs7Plz7KL47hUKq2oqHj//v0///yzfPnywMBAOUPAW1EGhiDIhQsX5J9xiURSUFAwa9Ys4uPv2Gy2/EfZP3361GRfMkEHDx5UOHcGhmFisXjUqFFN7kHZ6iNIt67XMiwWa8CAAeHh4WKxWFNJGIZhp0+fpnwoA2RgBA0aNCg9PZ2mc9WcM2fOUBU/fUHqUEV37NgxJyeH+Ff477//dnNzq8uoXF1dMzMz5b9lzJgxNAXP4XCWL18+ceJE+R0jKtdns2gqF314PN7p06c10neBYVhWVtbr16+FQqHC3KvBG6VSaXl5+YcPH06dOmVra9tkQt+KMjBvb2/5zZixsbErV6709PSUf2vSgKmpqfzRRatXr1YlbEtLy7lz5xI57cnJyR06dGi8B+UqjzAdul7Xx2QyPTw8jhw5ImfmRrqTs/Lycnd3d2rLBRkYEY6Ojnfu3KHpRMlB4c85fUHqSkX7+/u/e/eO4O8xhmECgaDBU439+vWT334mFAoHDx5MXxF4PJ6dnZ38gdsU1WoT6CsXHRAEGTBgAJERYJ8+fcrJyamtrZVIJFKpVIMdHQ2IRKJ79+6tW7du1KhRDZ77aUUZ2I8//thcY1J1dXViYqKbm5uyHf8sFuu7776TU9O5ubn9+/dXMXIjI6OjR48q/DxhGPbHH38YGxs3eLuy1UeQrlyvG2OxWL169YqMjMzIyFB4Suk4dVKp9MqVK9QuFgkZmEImJiYXL14kOM8LObKZbqRSaWlpaW5ubm5u7vPnz9evX9/4W0kafcFrf0Xr6+tPnTo1OTmZ+MQTaWlpYWFhDZqcp0yZImeqehzHP3/+3KtXL1rLQuTJTZrQWi7Kubq6PnnyRGGNCwSCCRMmrF69+urVq2/fvn3//n1xcbFIJNKGhelwHEdRtLq6Oisr6+eff/b09DQ2Npb1sxG5bite90Yn9OvXr3GCJVuMMzo6+sqVK7IWMqX2yeVy16xZI+e79OjRo5cvX5IJt56qqqqjR4+GhYXp6enJORaCIKNGjbp9+/b58+dVPGLLhqLoq1evTpw4MWrUqDFjxsh5jp2mx55ZLNawYcM6dOjw5s0bZT9ygBwTE5Px48ePGDGCkgl+6i6O6enpFRUV+vr6tbW1hoaGV65cGTJkSFVV1b1795KTkxEEycvLe/HiBZGZZYB8enp6U6dOXbFihaurK5HtZdf28PDw8+fPN/iWOTg4yO8BzM/Pr6qqUilcReCLTwSXy502bZqXl5f8SzGGYW/fvr1x44aBgcHjx487d+7MZrP9/Py6du3q5ORkYGDAZrPVMIeFHEwm09DQ0NDQcPr06T169Hjy5ElMTMzz588JvVnZdI/eopCCIEjjGZMxDCsvL/f09CT9zEvPnj3ln4qePXtSFf/333//+fNn+YfDMGz//v0N+puVrT6CtP+OWT4EQfz8/O7evUt6iSpVYBh269YtCwsLqooDbWBycLncdevWUdX6JZVKU1NTT58+vWfPHm9vbwMDg3bt2vF4vPbt23O5XB6Px+Vy6ZtNm5IiNEmbK5rH461YsYL4tKs4jj9+/NjPz6/J391Dhw7J389ff/0lf6oINaCiSpum2XIpxd3dPSMjQ2GlV1ZW1vUaIwjCZDKZTGa7du2+/vrrM2fOJCcny55YpO+UEicbTCYWi6Ojo0eMGDFo0CCFb2kJGdi2bdvqz/2Doujbt2+3bt3atWtX0qkxk8ncvHmznPPw9u1bExMTqorAZrOnTp2qcE340tLSkJCQ+m9UtvoI0ubrNUEsFsvX1/f+/fskWqoFAkFeXl5ZWVlBQUF+fr5QKFR2rhqpVDpixAiqygIZmBzr1q2jZCq4f//999y5c/3792/fvr2mJllVvRTN0dqKdnFx+eOPP2pqaoiXBcOwCRMmNHdtP3XqlPy379+/X6nRwHRQrTLl0Wy5lDJ79myF6ZdIJNq1a1eTdc1ms9u0aRMSErJjx47Y2Nj8/HyRSCTboZpHiTUexS+VSouKiqZOnarwvTrfC8nlckNDQ5lMJo7jNTU1qamp586de/To0bt372TfanK7dXZ2DggIaO5VHMd37NhRXV1NNuqGpFLp1atXAwICZs6cKWczExOTHTt2PHnypKioiKpDt1Qoin748OGXX36xtrZ2d3cnnovX1NQsWbIkPT1dX1+/oqKCz+ePHj06Ozt7xIgRCIK4ubmZm5sr3AmLxRo3bty9e/dEIpFq5QDyWFtb//jjj6okTFVVVbK20sOHD799+1bWmk5hhECO9u3b7969OygoiGAN4jheWVm5bt2669evN1lNXC5XT09P/h6EQiGFE+IDcmxsbJYsWaLwsvz8+fMTJ040WddSqTQ/P//mzZsJCQn37t0bNGiQv7+/j48Pm81Ww5qP9TUuBYvFsrS0lP9R/D/Kpnu0lEAF7u7u5eXllZWVz54927p1q4eHByX3N8HBwQKBoLmTUF5e7ubmpvpRGujSpYv8BShxHMcwbOnSpXVdq8pWH0Fae8esLBMTk8TEROIFR1H08uXLsjF5sq8xk8k0MzMzMjLy8vLq06fP+vXrnzx5QqTx/NOnT2PHjqWkFNAG1iRjY+O9e/eSKziGYbW1tR8/fty7d6+rq6ujo6OmS8NgtKY2sDZt2ri5uT148IB4/xGGYV++fFm7dq2cYV729vZ3796VsxOpVLp+/Xq6FwRUiIoqbZpmy0UQm83+7rvv6non5FxLZ8yYQSSdYrFY9vb233zzzatXr0pKSrSkU3LOnDkKt9HtDIzH4y1fvjwxMXHWrFlylm4k4bfffmvuDGAYFhkZSccKgEwmc9GiRQpXUyksLKybmULZ6iNI267XpPXr10+puf4ePHggf/wWj8eTTaBMZMLuL1++UFIKyMAa43A4K1asUKr3qr7s7Oz169f37t3b1NRU00X5L2ortz6tqugOHTqcOXPm33//VaoIaWlpzU2LWKdXr14vX76Us5OqqqrZs2fTtcYfYapVpjyaLRdBLi4uHz58UFgWDMPMzMyI75bH440fP/7YsWNE7pDVoOVnYAiCWFpatmnThtpvlKmpqZx5HcVisaenJ4WHq8/AwODGjRsKa+HChQuy7ZWtPoK06npNGpvNnj59OvGvYklJyVdffUVwz0FBQevXr2/8CEh9NTU1lCwaCBlYAwiCDB8+vKysjESRP3/+fOzYsSZn19M4yuu3jpZUtIGBwbx58169eqXskxMSicTLy0vhdT40NFT+UpIFBQVDhw7V7KNzjNadgfF4vBMnThCZgGnVqlXKtlay2WwLC4uVK1e+f/++qqqKvvNMRMvPwGiycOFCOZX3/v17WruZfX19Fc5llZKS4ufnx4AMTC4nJ6f4+HiCRUZR9Nq1a8S7sDkcDp/P//nnn2NjY5tr9JZIJNu3b1e9ywMysAa6du2akpKi7G1uVVVVTEzMqFGjKHxMlVo01TKuBRVtYWExfPjwv//+u6ysjPii6bIqrqys3LVrF5Gr7oIFC+Tn5V++fPHw8FBDeeWjoEaboemSKYAgyLfffltcXCy/FBiG5eTk2NnZkTuKg4PDzJkzIyMjiX/S6EAkA1PrgDVdMWTIkOZ+iXEcv3nzJq0zAL18+fLIkSO1tbVytnFxcZk9ezZ9MbQMAwYM6NGjB5EtcRx/9uzZli1b5J/2+iQSSXV19a5du1avXn3//v0mPxKyRjh7e3slggYEdO3atX379sRbMmQX9FOnTi1fvvzGjRslJSW0hgcac3Nz27JlS0hIiKmpqVJdFjU1NYcOHfrll1+IXHX19fXl71wkEpWXl8v+jSAIn883MDDo1avXgAEDvLy8nJyc9PX1vb29WSwWk8nUeFNZy2NmZjZ79myFfYtCofDEiRN5eXnkjpKdnX3z5s28vDwdmKtP2bRO0/HSjsPhyFkwu7y8nL41xeqYmpo+e/ZMfkWIRCJTU1Nlq48gjd8xU0Lhc+n1T+awYcNIH8jBwSEuLk4ikTTZKnPo0CFCD8U0D9rA6tPT07t06RLBAsqm54mKiho+fLimA1eMplrWhoqeNm2a/C77JlVUVMycOZN4n8O6devkDw1MSkqysrJCEEQ2ZuiXX365fv16ZmZmSUlJWlra8+fPr127lpqaum/fvsWLFw8cONDJyYn0jJJyqFCTClAeKrUWLVqkcJg8hmHR0dFstkoTNYSEhKh5te/GoBeSDD09PTkzSMXGxlI4DZgcTk5O8tcYxjDMy8tL2eojSOPXa9V5eXkpXKC37kxevnxZxUcrzM3Nx40b9/r168b7F4vFffr0UWXnkIHVYTKZBw4cIN7/iKJoSEiIUuN5NYimWtaGit60aZOcp8ubhKLo/v37lWowi4iIkP+7+/Dhw8mTJ2/atCkhIaG8vLz+ksxYPRKJpKampqysrLCw8MKFCwsXLqT2sq9SXcpFYZCU69atW2VlpcIvb1pa2sCBA0kfBUEQDw+Pt2/f0neSCSKSgen8fGDUYjKZY8aMkXPL9fjx44qKCjVEkpOTc/LkyZ9++knFW4FWy9PT08bGRuFmOI6XlJSsWrVKxYm7SktLZXMUbdmypcHoew6H06FDhxcvXqAoqsohAIPB6NixY2BgIJHuoZqamtLS0pcvX968eVMsFqshNiCHs7OzUpcygUBw8+bNgwcPKvWtsbGxkd9gZmpqun79eltbW319/Qb9jPX/zWaz2Wy2bCxKSEhI//79HRwcYmJiYmJiYIY/cvh8/qxZs4yMjBRuee7cuadPn5I+kJGR0Y4dOzp27Eh6D2qlbFqn6XjpxePxkpOTmyt7Zmamt7e32oKxsrJq7slqFEWLi4sdHByUrT6CNH7HrLrw8HAiLSXl5eXff/89VQflcrm7du2SSqUNDv306VN3d3fSu4U2MBkEQWbPnk3kMToMww4cODB+/HjtfOaxOTTVsjZU9P3794lHKxaL//zzzy5duih7FNkynXL2rGw7XJ3y8vK4uLh58+ZR8tw9uRiIUD02mgQEBOTk5CiMPzs7u1OnTqSPgiBIWFgYzAemq3x8fOSUffLkyWqeyi84OLjxejjFxcUnTpxYvHgxgiDKVh9BGr9eq4jNZhNcqSYqKoraqUxsbW1nzZpVWlpa/ygYhq1evZr0PiEDk+Hz+Qrn15VKpaWlpa9evdL4nE8k0FTLGq9oJpP5/Plz4tEuWLDA2NiYxIG+fPlC1RlrvNQMjuNSqfTmzZs9evRQcZA+VUE2pkpU9LG0tLx3757C4DEMW7BggSrn1sPDQ04bippBBqa0FStWNFdwgUBA4p5MRVwu9/vvv6+76ccwLDc3d8aMGRYWFrJ1PJStPoJ064e5scDAQCINYGVlZQMGDKD86Gw2++rVqw2aavLz80kP6YUMTMbb21v+aO7c3NzTp0/36dPHwcFB08GSQVMta7yiHR0diS9NkZSUZGlpSe5ARFpZVCSbmn/y5MmqLO9NX3ikQ6IPi8Xat28fkVviysrK7t27kz5Qly5djh8/rtkZKOqD2SiU4+DgIGctyJKSks+fP9f/C5vNpvtxZbFYfOHCBdnIs8zMzKioqC1btly6dKmkpEQgENB6aJ3m6+tLpGpWrlwZHx9P+dGlUumKFSsePHhQ/1loc3NzVYaXAgaD0aVLl+ZatsRicV5e3rFjx5YtW/b8+fPs7Gw1xwbkcHJy4vP5CjcTi8Xx8fGzZs0iN12IlZWVGkbNIgji5OS0efPmJUuW0LEySsvj5OQ0atQohc+DoygaFRWVlJRE7ig8Hm/t2rWhoaG61fgNo7z/q0OHDs21iGAY9uzZM6FQiCCImZmZu7u7VCrt1KmTQCAoLCyUSCSmpqYxMTH6+vqUr5mdm5sbGRk5cODAX3755eHDh58/f6ZwRfAWycrKavTo0fK3wXE8Li7u1KlTNCWyHz9+XLdunUQiGTlypOwvLBbL29v71q1bdByulTAzM2ucWOfk5KSkpOTm5l6+fPn58+ewaL0WcnJyMjQ0lL8NjuM3b97ctWvXkydPyB2lS5cudMwc0RiCIC4uLnPnzn379u1ff/0lkUjUcFAdxWazV61a5eTkpPCWODMzc8uWLaQfdOjXr9+IESOIjPTXLso2rGk6XhrJWeVXKBQOGzbs6NGjP/744927d3NycrKysmpqampqavLz83NycsrLyyMjI+/duzd58mRra2tq28ZMTU2DgoKavN9StvoI0q3OqQaCgoKqq6vlFxBFUdI9HcS1adOmfiSvX79u164dif1AL6SMi4vL3bt3pVJpTU1NXl5ebm5udnb2oEGDNB0XZWiqZY1X9Jo1a+QPgReJRNu3b1dx7uJly5YRHP1JlcLCwn/++YfEksT0haTKCaQcn8+fNm0akbCrqqpUGQFmYmISExND31klB8aBKUFPT0/OKE6pVJqbmysWi2tqalAUbXKMEYqiKIqWlZVFR0fPmjWra9euFP7GN/eItbLVR5Bu/TDXx+FwNm7cKH8QGIZh6enpagiGyWQuXrxYIBDI4pEN41XYGNAYZGAyTCZzxIgRJ06cWL16tZeXV6dOnXTrUUeFaKpljVf01q1bm3s8DcOwmpqa5cuXq956cfLkSfWPAUJRNC4uztnZWalQ6YtHxXNIrdGjRxcWFhIJ+6+//lJl0r5FixbJmcVTvuZ+LOpmiSO3WxwyMKWMHDmysrKyuVI3eC5GTq3IZvPLysp69OjRxIkT6Z6+VdnqI0i3fpjrc3BwULiqZkFBwZIlS9QTj7Gx8e+//y4SiWSHLisrkzPWsDmQgdXhcDg2NjbGxsYtcsUYmmpZ4xW9Z8+e5jKwwsLC9evXq7hoBIPBQBAkJiaG9M+wKkQiUUREBJGBbnXoC0bF00ghKyur69evE8xgBg8eTPpAbm5uCQkJpM9Y/QhRFBWJREKhsLKyMj09vbKyMi0trbKysra2tqKiou4yThDMyKqEoKAgOY0TDS73cq7+CIKw2WyH/8/f3//EiROy9aGpDBc0o1evXra2tvK3OXbs2JEjR9QTT2Vl5fLly3v27Onp6clgMAwMDPr37x8bG6ueo7c8EomkoKBA01EAJbBYLEtLyyavmV++fNm2bdvZs2eFQqHqB2rTpo1G8nIulztp0qSUlJTffvuNkoK0DAsWLOjfvz+RGsnNzX306BG5o7BYrFmzZsmurnVwHCf+SZBtKZFIxP+vvbOPauJK/3hmkpBAoigvIULhoEALaipUBZeDuxS3odt6UJTFthRf2qPHvsjRWteudlvdbe1aVyjuQVurLb5QBVxaK221rbUKDalAqdqKqIBRDO9pAiQEMpnsH/n9OGx4ybzdZIbcz396kpnvvV9y7zP33nmewcEffvhBr9cbjcbm5ubq6ur4+Pja2lqFQiGXy7VabWxs7Ny5c+Vy+aRJkxj7SyMZL07MMAJF0dOnT5PtCiLgOH737t19+/bRrEszFiA029z9xEwZsVj8/fffj//UVVtbGxkZ6WJhSUlJ169ft/89fP3112Q3IuEamIcAyGX3Gu3t7X3hwgWH1an79+9XV1cnJCQw9fair6+ve9MQkFreBieDkc6kCYqizz///L1794gINpvN69atoxzQLFu27LfffqPTYxaL5fLlyzt37ty8ebOfn5+fn5+9XgKPx7O/VomiqEgkQlFUIpE8/PDDq1ev3rdv38WLF9va2oZOmIwK3IUkilQqJbhdTQ2TyaRWq2fMmEG8xCxBAAnm6MS8YMGC7u7u8Zu2evVqxl1wCp/Pf/fdd+0zhMFgSEpKIvV1GIF5CIBcdq/RkyZN+vXXX4dO1Vit1rq6uvT09EceeYSpX6JcLt+3bx+43iNCX1/fsmXLCAoGJ4OR/qRJZGRke3s7kf1He5IBPz8/ajfy9/e/cuUKta1n+8kivV5fXFyclJQ0efJkgg/GQqHQz89v5syZ2dnZBQUFlZWVYx0NhxEYIRAEefTRR+kcuCNCf39/eXn5448/zuz0D0gtRyfmjIyMcZ6DcRzv7Oz09/d3i7awsLBLly7ZZRQVFZH6LozAPARALrvX6ClTpmi1WpvNhuO4TqerqalJSUnh8/lM7ePIZLKDBw9SLjfEFC0tLampqQQ1g5PBSJfSYcqUKdu2bSM4n/b29q5atYrajVAUzcrKGhgYoDZ3azSahoaGvLy80NBQapOyUCgMCAKXUX0AABVGSURBVAhITEy8fPmyXq8fqQRGYISQSqUVFRVk+4EC9mKOiYmJDKYNBCSVoxPzxo0bx+9/4g+pIFi8eLE9OYXZbI6NjSX+RRiBeQiAXHav0UFBQd3d3Vqt9tNPP83MzGQ8Wc9XX31F9og0CH7++WfiVYPByWCwYymAIMhbb71lD7idYrVaCwoKKL8DGxYW1tjYSK2XMAzLyclJSEigVvxqOCiKPvTQQ9nZ2fn5+U1NTcPvAiMw5zzzzDOnT5925Q+4sbFx8eLFTOXtBSSSixPz1KlTx99Krq6uppAJgkHEYvH27dvNZjOO46RexoQRmIcAyGX3Gh0REbFy5cqkpKTAwEBmYy8fH581a9awpAzzt99+SzwnBTgZDHYvBV566aXW1laCUm/cuEE5m4yPj8/u3bsp9I/FYrl169b27dsDAwMZbDiCIN7e3itXriwvL7979679SRtGYGOCoujkyZNTU1Pv3Lnj+h+wWq2mvPTqACCFXJyYFQrFOAcCWlpa1q5d626NvICAAHtO0ZMnT9orexIBRmAeAiCX3Wu0QCCwH2Rm9rIBAQFbtmwhPt+PxGq12rMM/Pjjjz/++KNGo/ntt98MBoNKpTKbzRiGkdreKikpIZ57iLJmpzDbycTh8/kPP/xwa2sr8VNZRUVFlP8q0tPTnWYdGkl3d/eZM2f+/Oc/+/j4MNt8OxKJJCoqavny5YWFhb29vWvXrnUqyROzUUil0ujo6KysrMWLF1PeA6ZDQkKCRCKprKxsbGx08a0nKgiCZGdnj2UlhmG7du06duyYi1WNpLu7+/XXXz9x4oRSqYyOjq6rq3O3IggELBiGYRjG7DWlUukrr7yyfv16amk8cRw3m80tLS3l5eXXrl1rbGw0GAy+vr5SqVQmk7W2tq5cuTIiIiIkJEQgEPj6+jqdsG02W3t7uyeXJ4qJidmzZ09QUBDBZU6LxXL06NHhlXOJ4+Xl9dxzz4WFhZH6ls1mO3To0Mcff3zz5k1q93WK0Wi8devWrVu3GhoaDAYDoZJ3ZKNIELpdyfz58z/77DOtVuveowMYhnV2dlKrUTMcQPI4tzQyc+bMGzdujNWc0tJSF9QgIgiCIHv37sVx/MMPPyT4FbgG5iEAcnniGZ2Tk0O5AFF1dXVxcXF2drZcLrfnHRgeNPD5fD6fL5VKp06dGhAQMH369Ndee62qqspsNo9zTavVumnTJuKFuqkpJwKY/nbCrFmzCgsLia9+4Th+8uRJykdxtm7d6rTunANms1mtVpPKmksH+6bkokWLnPtFqhk2LkdgMplMqVSePXvWLXmTRyU/P59mZABIGOfG69TU1HFKGmzZssXdAv8Hf3//jo6Ojo6OxMREIp+HEZiHAMjliWQ0n89XKpV3794l2wNWq/WXX345duzYzJkzSZ1Ik0ql4eHhe/futSfWHhUMwxYvXkz8FSt6Zo4H1X6lTnp6un3flrjIhoYGUq8iDSc4OFin05HaINbr9X//+9/pr3eQhci47RERGIIgS5cuPXjw4M2bN93+0vJwampqHJL5kgWQMG6N10Kh8IMPPhgrsDYYDLNmzXK3Rkfy8vKMRuPbb79N5MMwAvMQALk8YYyWSqVLly6tr68n1Xar1drf319TU6NUKinnzff391+4cGFeXl5vb+/IocZiscTGxhK/MnPGOkKhaZQRCARRUVFnz54llQvXYrHs2LGD2gIYgiApKSmkwq/e3t6ysjJmz90TBEZgPB6P5+XlNX369Nu3b4PO+OWAQynJkej1+nXr1tGsRwtIPLfG68DAwLHyLw8MDKxfv97dAkchJibmypUrZ86cITISwQjMQwDk8sQwWiwWr1+/vrm5mVTDcRy/efNmQUFBcnIyIxo2b96s0Wgchveurq7p06cTvw7D7g6DfhsJIpFIkpOTi4uLSZ3nwXG8uro6NDSU2k0nTZp05MgRUrc7ffo0zWUOynh6BIai6J/+9KfCwkL7D4ZsS2ly/PjxcdKMYRj2+9//nn5iMEDiuTVev/DCC0ajcdSGXLx4kfjhDBeTkJDQ09NDZHSAEZiHAMjlCWA0giAff/zxOCcNxkKtVkdERAiFQqYSYfD5/AULFly7dm34vltVVVVwcDDxizDq7f/ASBud8uCDD+bl5bW3t5M90mMwGBYtWkTZizVr1pC6o1qtjo+PZ7btxPHoCMzb2zslJaWpqYlyzlzi9Pf3FxQU5ObmSiQSn//Hy8tLJBIN/TM4ODgvLy8vL89isZhMpqNHjzKSlxVQi7g1XtfW1o76s2xra3Pjz88pEonkwIEDx48fdzoewQjMQwDk8gQwOj4+3mQykRrJzWZzaWkpiCKwCILExMS88847Q/cqKioiVVoHgMP/B+ONdcDX1zc4OPjSpUtGo5HsxGp//UgsFlO7dWxs7DhH8RzAMKypqSkxMZGp1JsU8NAITCKRJCQk/O1vf6urqwN96F6v158/fz4tLU0oFBKUt3Tp0sOHDzN1MglQuzg0Xsvl8paWllGt+cc//uHGnx8RkpKSWltbnR4RhRGYhwDIZU4bLRAIEhISyJYtMRqNhw4dio6OBicsICCgtLS0r68Px/Fdu3aRyvYMyGUbyAmaz+fHxMT89a9/zc3NpVYEXavVPvTQQ9TujqLonj17iJ/3b2trW7t2LeVojxE4HIERD2iG4+3trVAo9u/f/+uvv4JONoHjeEVFBfFCYIAA1DoOjddxcXEGg2GkOx999BHxlKfuQiQSffLJJxs2bBh/GQxGYB4CIJe5a7RQKHziiSd++eUXUo3t6+vLzc11weHr0NDQnJwcrVabk5ND6mEPkMs2MBM0giAikSg5Ofmzzz4zGo2Dg4MUhA0ODr733nuUNcTHx7e3txO8l9Vq/fe//+32x2+uRmB8Pv/AgQMZGRnE4zCJRJKRkVFWVtbX1zdWoXJmefzxx5mtsEENQK3jyngtEAgOHDgw0m6LxRIeHu5udYTw8fFxWpsMRmAeAiCXuWt0SkoK2dQD3d3da9euddnsKxAIlixZkpaWRupb4IxmvHURERFLlizZvn17V1eX09fLxkGtVsvlcspKVCoVwR0tHMe/+eYbUsfyAEFk3GZjTnyZTLZ69eolS5asWrWqqKiorq7OaDS2tbXZbDYURe0BVkhISG9vb1xcXHR0NIIg6enpCoVCJpM5pNcDwZkzZ5566in7cijQG0GcIhKJVqxYMdJxrVar0WjcIoksJpPJ3RIgEDYSHR29ZcuWKVOmEB/Sr1y5snPnTnvSR6DahsAw7OzZs/QLPLOKqKioqKioadOmzZkzJyYmJjo6WiKRkDLCAb1en5ub29bWRu3rcrk8IiKCYPWawsLCF154YWBggNq9XAzrIrDAwMAXX3xRLBbL5fLU1NTZs2dfu3ZNp9PV1tZaLBapVGq1WjUaTVpaWmdn5x/+8IeQkBA+n+/n50dt45I4Nputq6vr559/fvnll+GsyRIUCsWUKVMc/lOv17/77rswPoZAuItCoXjzzTeTk5MJzvo2m62pqekvf/nLxYsXXTz7DgwMdHV1ufKOoMEwbOPGjVFRUQEBAWKxmM/n01nXsNlsZWVlFy5coPZ1kUj0zDPP+Pv7O/1kR0fHxYsXX331Va6EXzwe+6oSrVixYuSxHqvV2tPTo9frjUajyWTSarU4jhM/DEh/U7K3t/fy5cuUs5iAg2a7xoITexZisfjDDz90UI5h2KFDh1ibgYIacBfSQwDkMueMjo2NValUpI57DwwMzJ8/393CiQLOaKYUFhcXk0pzPw6dnZ2UM+DzeLx58+aNDAlG0tLSEhQUxFTzGYF758B8fX1/+uknIjJccNILx3Gr1WowGA4cOKBUKhlJHsE4gNrOifE6MjJSpVI5KG9rayPytMQtYATmIQBymVtGe3t737hxg9QIr9Ppdu/e7W7hJABnNFMKY2Njr169Sl8PhmE5OTmUl9BkMtmpU6ec3qW9vd29rz2OCsfOgaEoumnTJspvqzILhmF37ty5dOnSsWPHrl+/bj+E6G5RkP8hOTl5zpw5w//HbDZv3LhRp9O5SxIEAqFDUFDQq6++Gh4eTnzO1mg0//rXv06ePAlUmKdRX19fWVkZExNDZ+nBbDZXVVUdOnSIcmiYmZmZkpIy/meuXr2alZVlNpup3cLNkA1pwSmRyWRkH30Acfv27ffffz89PT0wMJDg6T93AagHOPHE/NVXX42UPXXqVHfrYh64BuYhAHKZK0ZPnz599+7dZBPfZ2dn+/r6uls7OQC5bGN0gl60aNHt27fpiKmurv7d735HWQCCILW1tePf4v79+6zdfebSLiSKohs3brRYLGT1MAuO4/fu3XvkkUdolmt0GYD6gf3jtZ+fn/312CEsFktGRoa7dQEBRmAeAiCXOWH0nDlzysvLTSYT8UZZrdYffviBnedDxgec0QyKFAqFO3fupJzVvK+v79lnn6UjIDExsa+vb5xbNDc3j3wTiz1wKQKLjo7u6uoiK4ZBBgcHNRpNfn7+woULAbURBIB6g/3j9YkTJxwSA54/f54NGdpAACMwDwGQyyw3GkEQhUJx584dUkfvjUbjqVOn2DwBjwM4o5nVOW/evI6ODgrVh6xWa35+Pp21SS8vL7VaPU78d/fuXZYnASEybrNii00sFj/11FOk6moxTnl5eVZW1ltvvVVZWelGGRAiiMXiuLi44c++PT09+/btY3wAgkAgQBGJRH/84x9PnDgRFhZGPI2qTqd7//33N2/erNfrgcrzcK5fv15WVmY0Gsl+8dKlS4cPHzYYDNTuy+fz4+PjFQrFWKeArl69mpGR0dPTQ+36LIJUbAtohsvMzLx+/TpZJYxgsVh0Ot3nn38+f/58Lq6gAOoWNj8x83i88PBwnU43pHZwcHDHjh0T8gSYHbgG5iEAcpm1RguFwuzsbArv3BUWFrIt9QApQFhsh3GpCoWiqqqKlIbOzs6YmBg6ZQlCQ0MvX7481tqbTqebPXs2g20EBDd2IUNCQq5evQq6hPZYHD58WKlUcvfHDKhb2Dle2xEIBFu3bh3+4zx37tzEy0AxHBiBeQiAXGan0WKx+O2339ZqtWTbUlNTExcX5275tABhsR3GpaIo+tJLL/X29hIUYDQaDx48SOeOIpFox44dY12/tbXVx8eHqdYBhQMRmEAgKCoqAl1FeyQWi6Wtre3IkSNTp07l4tLXEID6h4Xj9RASiWR4pV4cx+fOnctpE50CIzAPAZDLbDN60qRJL7744tGjR00mE6kzRoODg999911kZCTXf+/gjAah9sEHHzx37hyRVRKLxfLOO+/MmDGDzu2eeOIJjUYz1vU/+eQTptoFGrZHYCiKKpXK1tZWshpootFoSkpKVqxYMW3aNPhLHhVWjdcOzJ07d3jIfu/ePToFXzkBjMA8BEAus8doFEWnTZv25ptvdnZ2kn3z3Ww2l5SUREREuLsRDADIZRuYCIzP52dmZjq8ez4q58+fp2mQl5fX6dOnx4rLS0tLmWqUC2B7BCaTya5cueLi/cfKysonn3xSLpdz8R3mkQDqJZaM1yNBUXTv3r1DOs1m87p167geRjsFRmAeAiCX2WA0giASiWT16tX/+c9/9Ho9Wf04ju/fv/+BBx5wbyuYAoTFdgAJlkgkH3300ThBs9Vq1el0sbGxNCfWpUuXjpWBoqSkhFuHfdkegS1fvpzs3Yeg8H7s/fv3S0pKuJVswimUO3B83D5ej0VISMg333wzpHP//v2gK7KzARiBeQiAXHaj0QiChISEPPbYY6+//rpKpSJS4G9Ubty4wZUcjURg1tzhgNM8e/ZstVo9VhDW0NCQlpZG8xZ8Pr+8vHzUyX3Pnj2cq/bL9ggsLCzslVdeIZUDhhpWq7WgoECpVAYGBtJ5QYOFAOox1k7MTz/99NCZ0Pr6+oSEBHcrcgUwAvMQALnseqOFQuEDDzzwxhtvvPzyy+fOnWtqaurv76e23WG1WlUqlVKpdKV+0DDu7xDgNKMo+vTTTzc3NztESBaLpbGxccuWLfTn1oiIiPv3749slMlkCg8PZ6IRLoXtERiPx5s8efIXX3zR2dlJVgYRcBzHcVyv11dUVISEhDCrnCWA6Dcbiyfm48eP2xViGLZr1y4vLy93K3IFMALzEAC57HqjZ82a9fXXXxsMhvb2djrnTHAc/+677xYsWDAxDo0MwaCzDgCV7efnl5ubO7xuAY7jdXV1a9asoZ9PQCqV5ufnj1wAM5lM27ZtY0S/i+FABMbj8fz9/bdu3QriNBiGYZ9//vmzzz4bGhrKuGyWwHin2WHnxIyiaH19vV3hG2+8MbEzUAwHRmAeAiCXXWw0giDLly8nW95xVNRqdXBw8MQ76Em/Z8YCtPLIyMih8s04jptMplWrVjESH2dkZIysSYVh2IYNG+hf3C1wIwLj8Xh+fn7r1q2rqKhgcEeyt7f31KlTQUFBLC+tTROmussBdk7Mubm5ZrPZZrO1trZOmzbN3XJcB4zAPARALrvYaBRFt23b1t/fT1NzZ2fnypUrXSbblTDi6aiAVo4gyJ49e+7cudPf319RUZGVlSWRSOhfdsaMGVVVVSMXwJ588kn6F3cXRMZtVizt6nS6I0eOqFSqzMzM9PT0yMhIsVhM+Wrt7e3V1dVlZWXffvtte3s7gzohbkQgEDz66KNeXl4DAwPl5eXQWQiEnSAIEhkZSecVGZvN1tDQsHfv3uLiYgaFQehjs9k++OCD7u7ugICA0tLSurq6wcFB+pd97rnn4uLiHBY76+vrJ/4jIqtC7MmTJy9cuPDChQv2Kq3EX3jEcRzDsO7u7i+//DIrKysiImKCnRsYC7L2EYSFf/dBQUH2GrFffPGFTCZztxyXAtfAPARALrvYaIFAcObMGbKvqw+npqYmMzOTznM4y2HQWQdco9/f35/BxBAikcjhAD6O4zqdjuvJRzizBjZET09PRUXFa6+9JhKJNmzYkJaWRuSotc1m6+/v//LLL48dO3bu3LnBwUGX/SFCXINAIFi2bFlAQEBzc/M///nPjo4OdyuCQCCjI5VKfXx8nB7eso/So35s06ZNKpXKarUC0QehTXd3N4NXS01NDQwMHP4/er0+LCysr6+PwbuwE4RssKJSqTiXlmOiMjAwkJiYCOLKPT09t27dAnFlCAUwDAOUdwMazR5sNtu8efMAXRwazR6AGq1Wqz0hRSInEIlETiuIk47AIBAIBAKBQCA0mcjvCUIgEAgEAoGwExiBQSAQCAQCgbgaGIFBIBAIBAKBuJr/AgLpgsJDw7Y9AAAAAElFTkSuQmCC;" vertex="1" parent="RVkiUUmXxSvIBv53PdkQ-1">
          <mxGeometry x="49.20999999999998" y="450" width="1484.79" height="1450" as="geometry" />
        </mxCell>
        <mxCell id="xo6WSdMoPao4BwD4sp3l-2" value="&lt;font style=&quot;font-size: 20px&quot;&gt;&lt;b&gt;Transformed Images&lt;/b&gt;&lt;/font&gt;" style="text;html=1;strokeColor=none;fillColor=none;align=center;verticalAlign=middle;whiteSpace=wrap;rounded=0;" vertex="1" parent="RVkiUUmXxSvIBv53PdkQ-1">
          <mxGeometry x="622.8" y="410" width="338.39" height="40" as="geometry" />
        </mxCell>
      </root>
    </mxGraphModel>
  </diagram>
</mxfile>
